<svg xmlns="http://www.w3.org/2000/svg" xmlns:xlink="http://www.w3.org/1999/xlink" width="500" zoomAndPan="magnify" viewBox="0 0 375 374.999991" height="500" preserveAspectRatio="xMidYMid meet" version="1.0"><defs><clipPath id="fc3e3d5336"><path d="M 40 26 L 319 26 L 319 311 L 40 311 Z M 40 26 " clip-rule="nonzero"/></clipPath><clipPath id="f8933bb9ee"><path d="M 29.089844 7.851562 L 337.253906 15.179688 L 328.894531 366.828125 L 20.730469 359.503906 Z M 29.089844 7.851562 " clip-rule="nonzero"/></clipPath><clipPath id="f40002ab0f"><path d="M 29.089844 7.851562 L 337.253906 15.179688 L 328.894531 366.828125 L 20.730469 359.503906 Z M 29.089844 7.851562 " clip-rule="nonzero"/></clipPath><clipPath id="4523fa9d8b"><path d="M 29.089844 7.851562 L 337.253906 15.179688 L 328.894531 366.828125 L 20.730469 359.503906 Z M 29.089844 7.851562 " clip-rule="nonzero"/></clipPath><clipPath id="4453051ca4"><path d="M 38 24 L 321 24 L 321 312 L 38 312 Z M 38 24 " clip-rule="nonzero"/></clipPath><clipPath id="3be73bfbea"><path d="M 29.089844 7.851562 L 337.253906 15.179688 L 328.894531 366.828125 L 20.730469 359.503906 Z M 29.089844 7.851562 " clip-rule="nonzero"/></clipPath><clipPath id="5807712f8e"><path d="M 29.089844 7.851562 L 337.253906 15.179688 L 328.894531 366.828125 L 20.730469 359.503906 Z M 29.089844 7.851562 " clip-rule="nonzero"/></clipPath><clipPath id="5d0511c529"><path d="M 29.089844 7.851562 L 337.253906 15.179688 L 328.894531 366.828125 L 20.730469 359.503906 Z M 29.089844 7.851562 " clip-rule="nonzero"/></clipPath><clipPath id="c1b7c49fe5"><path d="M 189 226 L 220 226 L 220 363 L 189 363 Z M 189 226 " clip-rule="nonzero"/></clipPath><clipPath id="e73ad482d7"><path d="M 29.089844 7.851562 L 337.253906 15.179688 L 328.894531 366.828125 L 20.730469 359.503906 Z M 29.089844 7.851562 " clip-rule="nonzero"/></clipPath><clipPath id="1142113a00"><path d="M 29.089844 7.851562 L 337.253906 15.179688 L 328.894531 366.828125 L 20.730469 359.503906 Z M 29.089844 7.851562 " clip-rule="nonzero"/></clipPath><clipPath id="02ca11c8a6"><path d="M 29.089844 7.851562 L 337.253906 15.179688 L 328.894531 366.828125 L 20.730469 359.503906 Z M 29.089844 7.851562 " clip-rule="nonzero"/></clipPath><clipPath id="ce4f027d28"><path d="M 188 224 L 222 224 L 222 364 L 188 364 Z M 188 224 " clip-rule="nonzero"/></clipPath><clipPath id="59d9b845c4"><path d="M 29.089844 7.851562 L 337.253906 15.179688 L 328.894531 366.828125 L 20.730469 359.503906 Z M 29.089844 7.851562 " clip-rule="nonzero"/></clipPath><clipPath id="451ccf409d"><path d="M 29.089844 7.851562 L 337.253906 15.179688 L 328.894531 366.828125 L 20.730469 359.503906 Z M 29.089844 7.851562 " clip-rule="nonzero"/></clipPath><clipPath id="948afa9e62"><path d="M 29.089844 7.851562 L 337.253906 15.179688 L 328.894531 366.828125 L 20.730469 359.503906 Z M 29.089844 7.851562 " clip-rule="nonzero"/></clipPath><clipPath id="421a9a0eed"><path d="M 42 17 L 322 17 L 322 302 L 42 302 Z M 42 17 " clip-rule="nonzero"/></clipPath><clipPath id="20f048fe9f"><path d="M 29.089844 7.851562 L 337.253906 15.179688 L 328.894531 366.828125 L 20.730469 359.503906 Z M 29.089844 7.851562 " clip-rule="nonzero"/></clipPath><clipPath id="890ae6f215"><path d="M 29.089844 7.851562 L 337.253906 15.179688 L 328.894531 366.828125 L 20.730469 359.503906 Z M 29.089844 7.851562 " clip-rule="nonzero"/></clipPath><clipPath id="943af6f774"><path d="M 29.089844 7.851562 L 337.253906 15.179688 L 328.894531 366.828125 L 20.730469 359.503906 Z M 29.089844 7.851562 " clip-rule="nonzero"/></clipPath><clipPath id="c241077ba3"><path d="M 41 16 L 324 16 L 324 304 L 41 304 Z M 41 16 " clip-rule="nonzero"/></clipPath><clipPath id="411eab3516"><path d="M 29.089844 7.851562 L 337.253906 15.179688 L 328.894531 366.828125 L 20.730469 359.503906 Z M 29.089844 7.851562 " clip-rule="nonzero"/></clipPath><clipPath id="1c14b98d57"><path d="M 29.089844 7.851562 L 337.253906 15.179688 L 328.894531 366.828125 L 20.730469 359.503906 Z M 29.089844 7.851562 " clip-rule="nonzero"/></clipPath><clipPath id="a1578af942"><path d="M 29.089844 7.851562 L 337.253906 15.179688 L 328.894531 366.828125 L 20.730469 359.503906 Z M 29.089844 7.851562 " clip-rule="nonzero"/></clipPath><clipPath id="a63259ddeb"><path d="M 230 60 L 247 60 L 247 76 L 230 76 Z M 230 60 " clip-rule="nonzero"/></clipPath><clipPath id="af602d6e5d"><path d="M 29.089844 7.851562 L 337.253906 15.179688 L 328.894531 366.828125 L 20.730469 359.503906 Z M 29.089844 7.851562 " clip-rule="nonzero"/></clipPath><clipPath id="e914d0b855"><path d="M 29.089844 7.851562 L 337.253906 15.179688 L 328.894531 366.828125 L 20.730469 359.503906 Z M 29.089844 7.851562 " clip-rule="nonzero"/></clipPath><clipPath id="63c6ba32fb"><path d="M 29.089844 7.851562 L 337.253906 15.179688 L 328.894531 366.828125 L 20.730469 359.503906 Z M 29.089844 7.851562 " clip-rule="nonzero"/></clipPath><clipPath id="1299812f07"><path d="M 192 55 L 197 55 L 197 60 L 192 60 Z M 192 55 " clip-rule="nonzero"/></clipPath><clipPath id="d1d762b5cb"><path d="M 29.089844 7.851562 L 337.253906 15.179688 L 328.894531 366.828125 L 20.730469 359.503906 Z M 29.089844 7.851562 " clip-rule="nonzero"/></clipPath><clipPath id="35b60630ce"><path d="M 29.089844 7.851562 L 337.253906 15.179688 L 328.894531 366.828125 L 20.730469 359.503906 Z M 29.089844 7.851562 " clip-rule="nonzero"/></clipPath><clipPath id="2bd7d85547"><path d="M 29.089844 7.851562 L 337.253906 15.179688 L 328.894531 366.828125 L 20.730469 359.503906 Z M 29.089844 7.851562 " clip-rule="nonzero"/></clipPath><clipPath id="8c9f7708d5"><path d="M 243 48 L 247 48 L 247 53 L 243 53 Z M 243 48 " clip-rule="nonzero"/></clipPath><clipPath id="43b7edec80"><path d="M 29.089844 7.851562 L 337.253906 15.179688 L 328.894531 366.828125 L 20.730469 359.503906 Z M 29.089844 7.851562 " clip-rule="nonzero"/></clipPath><clipPath id="0691d36029"><path d="M 29.089844 7.851562 L 337.253906 15.179688 L 328.894531 366.828125 L 20.730469 359.503906 Z M 29.089844 7.851562 " clip-rule="nonzero"/></clipPath><clipPath id="e0dc3457d5"><path d="M 29.089844 7.851562 L 337.253906 15.179688 L 328.894531 366.828125 L 20.730469 359.503906 Z M 29.089844 7.851562 " clip-rule="nonzero"/></clipPath><clipPath id="cf8b9428b8"><path d="M 248 57 L 253 57 L 253 62 L 248 62 Z M 248 57 " clip-rule="nonzero"/></clipPath><clipPath id="683b155f92"><path d="M 29.089844 7.851562 L 337.253906 15.179688 L 328.894531 366.828125 L 20.730469 359.503906 Z M 29.089844 7.851562 " clip-rule="nonzero"/></clipPath><clipPath id="8c93fba46b"><path d="M 29.089844 7.851562 L 337.253906 15.179688 L 328.894531 366.828125 L 20.730469 359.503906 Z M 29.089844 7.851562 " clip-rule="nonzero"/></clipPath><clipPath id="e637edae7c"><path d="M 29.089844 7.851562 L 337.253906 15.179688 L 328.894531 366.828125 L 20.730469 359.503906 Z M 29.089844 7.851562 " clip-rule="nonzero"/></clipPath><clipPath id="6c43f4233b"><path d="M 208 30 L 235 30 L 235 58 L 208 58 Z M 208 30 " clip-rule="nonzero"/></clipPath><clipPath id="3ff93dd795"><path d="M 29.089844 7.851562 L 337.253906 15.179688 L 328.894531 366.828125 L 20.730469 359.503906 Z M 29.089844 7.851562 " clip-rule="nonzero"/></clipPath><clipPath id="bf0aded6a2"><path d="M 29.089844 7.851562 L 337.253906 15.179688 L 328.894531 366.828125 L 20.730469 359.503906 Z M 29.089844 7.851562 " clip-rule="nonzero"/></clipPath><clipPath id="d5769e7fc2"><path d="M 29.089844 7.851562 L 337.253906 15.179688 L 328.894531 366.828125 L 20.730469 359.503906 Z M 29.089844 7.851562 " clip-rule="nonzero"/></clipPath><clipPath id="7064c157a2"><path d="M 272 34 L 318 34 L 318 76 L 272 76 Z M 272 34 " clip-rule="nonzero"/></clipPath><clipPath id="9b9f3350bd"><path d="M 29.089844 7.851562 L 337.253906 15.179688 L 328.894531 366.828125 L 20.730469 359.503906 Z M 29.089844 7.851562 " clip-rule="nonzero"/></clipPath><clipPath id="f18a8a45b9"><path d="M 29.089844 7.851562 L 337.253906 15.179688 L 328.894531 366.828125 L 20.730469 359.503906 Z M 29.089844 7.851562 " clip-rule="nonzero"/></clipPath><clipPath id="c8d30c8129"><path d="M 29.089844 7.851562 L 337.253906 15.179688 L 328.894531 366.828125 L 20.730469 359.503906 Z M 29.089844 7.851562 " clip-rule="nonzero"/></clipPath><clipPath id="6f7badc003"><path d="M 109 139 L 166 139 L 166 198 L 109 198 Z M 109 139 " clip-rule="nonzero"/></clipPath><clipPath id="dd43a340e6"><path d="M 29.089844 7.851562 L 337.253906 15.179688 L 328.894531 366.828125 L 20.730469 359.503906 Z M 29.089844 7.851562 " clip-rule="nonzero"/></clipPath><clipPath id="a86ded18db"><path d="M 29.089844 7.851562 L 337.253906 15.179688 L 328.894531 366.828125 L 20.730469 359.503906 Z M 29.089844 7.851562 " clip-rule="nonzero"/></clipPath><clipPath id="b033730cbb"><path d="M 29.089844 7.851562 L 337.253906 15.179688 L 328.894531 366.828125 L 20.730469 359.503906 Z M 29.089844 7.851562 " clip-rule="nonzero"/></clipPath><clipPath id="0fe6f03519"><path d="M 108 137 L 167 137 L 167 199 L 108 199 Z M 108 137 " clip-rule="nonzero"/></clipPath><clipPath id="cd967f5d7e"><path d="M 29.089844 7.851562 L 337.253906 15.179688 L 328.894531 366.828125 L 20.730469 359.503906 Z M 29.089844 7.851562 " clip-rule="nonzero"/></clipPath><clipPath id="213086efb7"><path d="M 29.089844 7.851562 L 337.253906 15.179688 L 328.894531 366.828125 L 20.730469 359.503906 Z M 29.089844 7.851562 " clip-rule="nonzero"/></clipPath><clipPath id="601e6d1484"><path d="M 29.089844 7.851562 L 337.253906 15.179688 L 328.894531 366.828125 L 20.730469 359.503906 Z M 29.089844 7.851562 " clip-rule="nonzero"/></clipPath><clipPath id="a7cdd24b3e"><path d="M 125 140 L 165 140 L 165 195 L 125 195 Z M 125 140 " clip-rule="nonzero"/></clipPath><clipPath id="2645c5f41a"><path d="M 29.089844 7.851562 L 337.253906 15.179688 L 328.894531 366.828125 L 20.730469 359.503906 Z M 29.089844 7.851562 " clip-rule="nonzero"/></clipPath><clipPath id="77038c5f21"><path d="M 29.089844 7.851562 L 337.253906 15.179688 L 328.894531 366.828125 L 20.730469 359.503906 Z M 29.089844 7.851562 " clip-rule="nonzero"/></clipPath><clipPath id="2e90ace4a7"><path d="M 29.089844 7.851562 L 337.253906 15.179688 L 328.894531 366.828125 L 20.730469 359.503906 Z M 29.089844 7.851562 " clip-rule="nonzero"/></clipPath><clipPath id="1b42b748e8"><path d="M 124 138 L 167 138 L 167 197 L 124 197 Z M 124 138 " clip-rule="nonzero"/></clipPath><clipPath id="5bbc63c7c8"><path d="M 29.089844 7.851562 L 337.253906 15.179688 L 328.894531 366.828125 L 20.730469 359.503906 Z M 29.089844 7.851562 " clip-rule="nonzero"/></clipPath><clipPath id="c0611098e7"><path d="M 29.089844 7.851562 L 337.253906 15.179688 L 328.894531 366.828125 L 20.730469 359.503906 Z M 29.089844 7.851562 " clip-rule="nonzero"/></clipPath><clipPath id="c4152e6600"><path d="M 29.089844 7.851562 L 337.253906 15.179688 L 328.894531 366.828125 L 20.730469 359.503906 Z M 29.089844 7.851562 " clip-rule="nonzero"/></clipPath><clipPath id="1411d6a01b"><path d="M 194 124 L 226 124 L 226 153 L 194 153 Z M 194 124 " clip-rule="nonzero"/></clipPath><clipPath id="f3498eecb0"><path d="M 29.089844 7.851562 L 337.253906 15.179688 L 328.894531 366.828125 L 20.730469 359.503906 Z M 29.089844 7.851562 " clip-rule="nonzero"/></clipPath><clipPath id="ab97a1be58"><path d="M 29.089844 7.851562 L 337.253906 15.179688 L 328.894531 366.828125 L 20.730469 359.503906 Z M 29.089844 7.851562 " clip-rule="nonzero"/></clipPath><clipPath id="eedc1b08dc"><path d="M 29.089844 7.851562 L 337.253906 15.179688 L 328.894531 366.828125 L 20.730469 359.503906 Z M 29.089844 7.851562 " clip-rule="nonzero"/></clipPath><clipPath id="c90adfb260"><path d="M 195 144 L 216 144 L 216 153 L 195 153 Z M 195 144 " clip-rule="nonzero"/></clipPath><clipPath id="048265c46a"><path d="M 29.089844 7.851562 L 337.253906 15.179688 L 328.894531 366.828125 L 20.730469 359.503906 Z M 29.089844 7.851562 " clip-rule="nonzero"/></clipPath><clipPath id="99a3d5958a"><path d="M 29.089844 7.851562 L 337.253906 15.179688 L 328.894531 366.828125 L 20.730469 359.503906 Z M 29.089844 7.851562 " clip-rule="nonzero"/></clipPath><clipPath id="f9ae3476b6"><path d="M 29.089844 7.851562 L 337.253906 15.179688 L 328.894531 366.828125 L 20.730469 359.503906 Z M 29.089844 7.851562 " clip-rule="nonzero"/></clipPath><clipPath id="ad29ebf7c6"><path d="M 181 170 L 211 170 L 211 196 L 181 196 Z M 181 170 " clip-rule="nonzero"/></clipPath><clipPath id="438273ceaf"><path d="M 29.089844 7.851562 L 337.253906 15.179688 L 328.894531 366.828125 L 20.730469 359.503906 Z M 29.089844 7.851562 " clip-rule="nonzero"/></clipPath><clipPath id="a60cc22d4b"><path d="M 29.089844 7.851562 L 337.253906 15.179688 L 328.894531 366.828125 L 20.730469 359.503906 Z M 29.089844 7.851562 " clip-rule="nonzero"/></clipPath><clipPath id="f602e4d25e"><path d="M 29.089844 7.851562 L 337.253906 15.179688 L 328.894531 366.828125 L 20.730469 359.503906 Z M 29.089844 7.851562 " clip-rule="nonzero"/></clipPath><clipPath id="21b91aff8a"><path d="M 261 182 L 281 182 L 281 192 L 261 192 Z M 261 182 " clip-rule="nonzero"/></clipPath><clipPath id="e61800841a"><path d="M 29.089844 7.851562 L 337.253906 15.179688 L 328.894531 366.828125 L 20.730469 359.503906 Z M 29.089844 7.851562 " clip-rule="nonzero"/></clipPath><clipPath id="30784bb6f3"><path d="M 29.089844 7.851562 L 337.253906 15.179688 L 328.894531 366.828125 L 20.730469 359.503906 Z M 29.089844 7.851562 " clip-rule="nonzero"/></clipPath><clipPath id="21bec97a67"><path d="M 29.089844 7.851562 L 337.253906 15.179688 L 328.894531 366.828125 L 20.730469 359.503906 Z M 29.089844 7.851562 " clip-rule="nonzero"/></clipPath><clipPath id="ed4a6618af"><path d="M 250 190 L 265 190 L 265 203 L 250 203 Z M 250 190 " clip-rule="nonzero"/></clipPath><clipPath id="8c5861e4a0"><path d="M 29.089844 7.851562 L 337.253906 15.179688 L 328.894531 366.828125 L 20.730469 359.503906 Z M 29.089844 7.851562 " clip-rule="nonzero"/></clipPath><clipPath id="3da478c6fa"><path d="M 29.089844 7.851562 L 337.253906 15.179688 L 328.894531 366.828125 L 20.730469 359.503906 Z M 29.089844 7.851562 " clip-rule="nonzero"/></clipPath><clipPath id="2816b16446"><path d="M 29.089844 7.851562 L 337.253906 15.179688 L 328.894531 366.828125 L 20.730469 359.503906 Z M 29.089844 7.851562 " clip-rule="nonzero"/></clipPath><clipPath id="92ad9a0fd8"><path d="M 142 220 L 152 220 L 152 234 L 142 234 Z M 142 220 " clip-rule="nonzero"/></clipPath><clipPath id="6e8dd5d576"><path d="M 29.089844 7.851562 L 337.253906 15.179688 L 328.894531 366.828125 L 20.730469 359.503906 Z M 29.089844 7.851562 " clip-rule="nonzero"/></clipPath><clipPath id="d089831249"><path d="M 29.089844 7.851562 L 337.253906 15.179688 L 328.894531 366.828125 L 20.730469 359.503906 Z M 29.089844 7.851562 " clip-rule="nonzero"/></clipPath><clipPath id="124fb849d5"><path d="M 29.089844 7.851562 L 337.253906 15.179688 L 328.894531 366.828125 L 20.730469 359.503906 Z M 29.089844 7.851562 " clip-rule="nonzero"/></clipPath><clipPath id="71b040dc0a"><path d="M 113 213 L 133 213 L 133 223 L 113 223 Z M 113 213 " clip-rule="nonzero"/></clipPath><clipPath id="ca0c244e9c"><path d="M 29.089844 7.851562 L 337.253906 15.179688 L 328.894531 366.828125 L 20.730469 359.503906 Z M 29.089844 7.851562 " clip-rule="nonzero"/></clipPath><clipPath id="8580698edb"><path d="M 29.089844 7.851562 L 337.253906 15.179688 L 328.894531 366.828125 L 20.730469 359.503906 Z M 29.089844 7.851562 " clip-rule="nonzero"/></clipPath><clipPath id="98c2a9f78e"><path d="M 29.089844 7.851562 L 337.253906 15.179688 L 328.894531 366.828125 L 20.730469 359.503906 Z M 29.089844 7.851562 " clip-rule="nonzero"/></clipPath><clipPath id="cdf76f578d"><path d="M 115 84 L 135 84 L 135 107 L 115 107 Z M 115 84 " clip-rule="nonzero"/></clipPath><clipPath id="51200311af"><path d="M 29.089844 7.851562 L 337.253906 15.179688 L 328.894531 366.828125 L 20.730469 359.503906 Z M 29.089844 7.851562 " clip-rule="nonzero"/></clipPath><clipPath id="0be43a7be3"><path d="M 29.089844 7.851562 L 337.253906 15.179688 L 328.894531 366.828125 L 20.730469 359.503906 Z M 29.089844 7.851562 " clip-rule="nonzero"/></clipPath><clipPath id="c08e9bd39e"><path d="M 29.089844 7.851562 L 337.253906 15.179688 L 328.894531 366.828125 L 20.730469 359.503906 Z M 29.089844 7.851562 " clip-rule="nonzero"/></clipPath><clipPath id="54603fad35"><path d="M 136 238 L 142 238 L 142 247 L 136 247 Z M 136 238 " clip-rule="nonzero"/></clipPath><clipPath id="2a7648e2a5"><path d="M 29.089844 7.851562 L 337.253906 15.179688 L 328.894531 366.828125 L 20.730469 359.503906 Z M 29.089844 7.851562 " clip-rule="nonzero"/></clipPath><clipPath id="b3e98f74da"><path d="M 29.089844 7.851562 L 337.253906 15.179688 L 328.894531 366.828125 L 20.730469 359.503906 Z M 29.089844 7.851562 " clip-rule="nonzero"/></clipPath><clipPath id="c899e96596"><path d="M 29.089844 7.851562 L 337.253906 15.179688 L 328.894531 366.828125 L 20.730469 359.503906 Z M 29.089844 7.851562 " clip-rule="nonzero"/></clipPath><clipPath id="3c5bb69da3"><path d="M 193 342 L 198 342 L 198 357 L 193 357 Z M 193 342 " clip-rule="nonzero"/></clipPath><clipPath id="089ec5b5ab"><path d="M 29.089844 7.851562 L 337.253906 15.179688 L 328.894531 366.828125 L 20.730469 359.503906 Z M 29.089844 7.851562 " clip-rule="nonzero"/></clipPath><clipPath id="e310ad4de8"><path d="M 29.089844 7.851562 L 337.253906 15.179688 L 328.894531 366.828125 L 20.730469 359.503906 Z M 29.089844 7.851562 " clip-rule="nonzero"/></clipPath><clipPath id="3ab129fc62"><path d="M 29.089844 7.851562 L 337.253906 15.179688 L 328.894531 366.828125 L 20.730469 359.503906 Z M 29.089844 7.851562 " clip-rule="nonzero"/></clipPath><clipPath id="fe4150d51a"><path d="M 195 332 L 199 332 L 199 340 L 195 340 Z M 195 332 " clip-rule="nonzero"/></clipPath><clipPath id="254d1281cd"><path d="M 29.089844 7.851562 L 337.253906 15.179688 L 328.894531 366.828125 L 20.730469 359.503906 Z M 29.089844 7.851562 " clip-rule="nonzero"/></clipPath><clipPath id="3c81e6ba9b"><path d="M 29.089844 7.851562 L 337.253906 15.179688 L 328.894531 366.828125 L 20.730469 359.503906 Z M 29.089844 7.851562 " clip-rule="nonzero"/></clipPath><clipPath id="a0e0c893fc"><path d="M 29.089844 7.851562 L 337.253906 15.179688 L 328.894531 366.828125 L 20.730469 359.503906 Z M 29.089844 7.851562 " clip-rule="nonzero"/></clipPath><clipPath id="3e3ad610f4"><path d="M 199 337 L 203 337 L 203 346 L 199 346 Z M 199 337 " clip-rule="nonzero"/></clipPath><clipPath id="7755354bd8"><path d="M 29.089844 7.851562 L 337.253906 15.179688 L 328.894531 366.828125 L 20.730469 359.503906 Z M 29.089844 7.851562 " clip-rule="nonzero"/></clipPath><clipPath id="825f095faf"><path d="M 29.089844 7.851562 L 337.253906 15.179688 L 328.894531 366.828125 L 20.730469 359.503906 Z M 29.089844 7.851562 " clip-rule="nonzero"/></clipPath><clipPath id="d302d297a2"><path d="M 29.089844 7.851562 L 337.253906 15.179688 L 328.894531 366.828125 L 20.730469 359.503906 Z M 29.089844 7.851562 " clip-rule="nonzero"/></clipPath><clipPath id="90d12d45ce"><path d="M 32 148 L 114 148 L 114 235 L 32 235 Z M 32 148 " clip-rule="nonzero"/></clipPath><clipPath id="8ba7c06f49"><path d="M 29.089844 7.851562 L 337.253906 15.179688 L 328.894531 366.828125 L 20.730469 359.503906 Z M 29.089844 7.851562 " clip-rule="nonzero"/></clipPath><clipPath id="41415ce926"><path d="M 29.089844 7.851562 L 337.253906 15.179688 L 328.894531 366.828125 L 20.730469 359.503906 Z M 29.089844 7.851562 " clip-rule="nonzero"/></clipPath><clipPath id="e74ed99500"><path d="M 29.089844 7.851562 L 337.253906 15.179688 L 328.894531 366.828125 L 20.730469 359.503906 Z M 29.089844 7.851562 " clip-rule="nonzero"/></clipPath><clipPath id="2354021fcc"><path d="M 30 147 L 116 147 L 116 237 L 30 237 Z M 30 147 " clip-rule="nonzero"/></clipPath><clipPath id="fd61a78a93"><path d="M 29.089844 7.851562 L 337.253906 15.179688 L 328.894531 366.828125 L 20.730469 359.503906 Z M 29.089844 7.851562 " clip-rule="nonzero"/></clipPath><clipPath id="307dd1567c"><path d="M 29.089844 7.851562 L 337.253906 15.179688 L 328.894531 366.828125 L 20.730469 359.503906 Z M 29.089844 7.851562 " clip-rule="nonzero"/></clipPath><clipPath id="b7d15f47ab"><path d="M 29.089844 7.851562 L 337.253906 15.179688 L 328.894531 366.828125 L 20.730469 359.503906 Z M 29.089844 7.851562 " clip-rule="nonzero"/></clipPath><clipPath id="8de14151f1"><path d="M 83 180 L 105 180 L 105 215 L 83 215 Z M 83 180 " clip-rule="nonzero"/></clipPath><clipPath id="c707493c7d"><path d="M 29.089844 7.851562 L 337.253906 15.179688 L 328.894531 366.828125 L 20.730469 359.503906 Z M 29.089844 7.851562 " clip-rule="nonzero"/></clipPath><clipPath id="84658bfece"><path d="M 29.089844 7.851562 L 337.253906 15.179688 L 328.894531 366.828125 L 20.730469 359.503906 Z M 29.089844 7.851562 " clip-rule="nonzero"/></clipPath><clipPath id="217c767f86"><path d="M 29.089844 7.851562 L 337.253906 15.179688 L 328.894531 366.828125 L 20.730469 359.503906 Z M 29.089844 7.851562 " clip-rule="nonzero"/></clipPath><clipPath id="a2ddf3d918"><path d="M 52 206 L 86 206 L 86 235 L 52 235 Z M 52 206 " clip-rule="nonzero"/></clipPath><clipPath id="86f6783327"><path d="M 29.089844 7.851562 L 337.253906 15.179688 L 328.894531 366.828125 L 20.730469 359.503906 Z M 29.089844 7.851562 " clip-rule="nonzero"/></clipPath><clipPath id="1f251b1c94"><path d="M 29.089844 7.851562 L 337.253906 15.179688 L 328.894531 366.828125 L 20.730469 359.503906 Z M 29.089844 7.851562 " clip-rule="nonzero"/></clipPath><clipPath id="eaad1b02e7"><path d="M 29.089844 7.851562 L 337.253906 15.179688 L 328.894531 366.828125 L 20.730469 359.503906 Z M 29.089844 7.851562 " clip-rule="nonzero"/></clipPath><clipPath id="707af1b64c"><path d="M 56 195 L 88 195 L 88 217 L 56 217 Z M 56 195 " clip-rule="nonzero"/></clipPath><clipPath id="e3bfd687be"><path d="M 29.089844 7.851562 L 337.253906 15.179688 L 328.894531 366.828125 L 20.730469 359.503906 Z M 29.089844 7.851562 " clip-rule="nonzero"/></clipPath><clipPath id="19cb69ce5c"><path d="M 29.089844 7.851562 L 337.253906 15.179688 L 328.894531 366.828125 L 20.730469 359.503906 Z M 29.089844 7.851562 " clip-rule="nonzero"/></clipPath><clipPath id="66a9972bcb"><path d="M 29.089844 7.851562 L 337.253906 15.179688 L 328.894531 366.828125 L 20.730469 359.503906 Z M 29.089844 7.851562 " clip-rule="nonzero"/></clipPath></defs><rect x="-37.5" width="450" fill="#ffffff" y="-37.499999" height="449.999989" fill-opacity="1"/><rect x="-37.5" width="450" fill="#91b2ca" y="-37.499999" height="449.999989" fill-opacity="1"/><g clip-path="url(#fc3e3d5336)"><g clip-path="url(#f8933bb9ee)"><g clip-path="url(#f40002ab0f)"><g clip-path="url(#4523fa9d8b)"><path fill="#84b68e" d="M 174.304688 92.828125 C 175.984375 84.128906 178.488281 69.195312 183.667969 58.238281 C 190.605469 43.546875 203.636719 26.285156 220.484375 26.296875 C 236.636719 26.308594 238.734375 41.988281 245.59375 45.121094 C 258.050781 50.8125 272.863281 45.726562 285.925781 53.871094 C 295.964844 60.132812 302.996094 69.734375 306.183594 81.128906 C 313.890625 108.679688 294.84375 131.46875 273.59375 146.082031 C 271.957031 147.207031 266.964844 147.875 268.484375 149.148438 C 275.164062 154.757812 299.835938 152.078125 313.730469 171.082031 C 317.566406 176.328125 319.527344 182.347656 318.820312 188.84375 C 317.683594 199.347656 309.148438 203.613281 306.175781 212.515625 C 301.925781 225.242188 328.792969 267.617188 276.613281 285.808594 C 228.277344 302.664062 202.792969 230.976562 201.925781 233.007812 C 198.65625 240.640625 199.140625 251.554688 189.304688 272.941406 C 172.867188 308.6875 140.804688 315.015625 114.710938 307.730469 C 103.523438 304.609375 93.847656 294.945312 89.128906 284.542969 C 87.023438 279.898438 85.03125 275.210938 82.335938 270.863281 C 70.21875 251.320312 23.253906 253.488281 53.789062 204.023438 C 65.347656 185.300781 84.175781 172.957031 105.109375 167.054688 C 105.5 166.945312 111.144531 166.09375 111.175781 165.976562 C 111.367188 165.289062 102.339844 163.925781 101.710938 163.8125 C 80.03125 159.867188 29.582031 148.214844 42.328125 115.320312 C 48.738281 98.78125 64.34375 93.625 75.261719 81.367188 C 85.695312 69.652344 89.121094 54.382812 102.132812 44.277344 C 134.773438 18.917969 168.984375 63.351562 174.304688 92.828125 Z M 174.304688 92.828125 " fill-opacity="1" fill-rule="evenodd"/></g></g></g></g><g clip-path="url(#4453051ca4)"><g clip-path="url(#3be73bfbea)"><g clip-path="url(#5807712f8e)"><g clip-path="url(#5d0511c529)"><path fill="#7e4021" d="M 103.894531 165.765625 C 82.898438 171.859375 64.070312 184.371094 52.449219 203.195312 C 42.96875 218.554688 40.847656 229.148438 42.664062 236.9375 C 44.519531 244.875 50.449219 250.066406 57.417969 254.46875 C 61.820312 257.25 66.625 259.722656 70.933594 262.480469 C 75.035156 265.105469 78.691406 267.972656 80.996094 271.691406 C 83.660156 275.980469 85.621094 280.609375 87.695312 285.191406 C 92.59375 295.996094 102.671875 306.003906 114.289062 309.25 C 141.027344 316.714844 173.890625 310.230469 190.734375 273.597656 C 199.328125 254.914062 200.058594 244.21875 202.277344 236.71875 C 202.773438 237.679688 203.363281 238.832031 203.980469 240.050781 C 208.292969 248.542969 216.550781 263.714844 228.613281 275.066406 C 240.925781 286.648438 257.144531 294.265625 277.132812 287.296875 C 293.289062 281.664062 302.058594 273.71875 306.597656 265.09375 C 311.15625 256.441406 311.464844 247.046875 310.527344 238.40625 C 309.800781 231.707031 308.328125 225.480469 307.632812 220.464844 C 307.210938 217.421875 307.050781 214.871094 307.667969 213.015625 C 309.097656 208.734375 311.894531 205.589844 314.441406 202.230469 C 317.25 198.523438 319.78125 194.589844 320.386719 189.015625 C 321.136719 182.117188 319.074219 175.722656 315 170.152344 C 306.402344 158.390625 293.839844 154.621094 283.648438 152.285156 C 279.742188 151.390625 276.207031 150.710938 273.433594 149.828125 C 272.5 149.53125 271.664062 149.21875 270.941406 148.859375 C 271.160156 148.777344 271.375 148.699219 271.566406 148.632812 C 272.691406 148.253906 273.820312 147.835938 274.484375 147.378906 C 296.265625 132.402344 315.601562 108.945312 307.699219 80.707031 C 304.40625 68.929688 297.136719 59.007812 286.757812 52.535156 C 279.992188 48.316406 272.78125 47.480469 265.636719 47.007812 C 258.9375 46.5625 252.304688 46.457031 246.25 43.691406 C 245.078125 43.15625 244.09375 42.167969 243.121094 40.96875 C 242 39.589844 240.921875 37.941406 239.734375 36.242188 C 235.847656 30.691406 230.847656 24.730469 220.484375 24.722656 C 213.390625 24.71875 206.925781 27.59375 201.269531 32.070312 C 193.023438 38.597656 186.503906 48.546875 182.242188 57.566406 C 178.234375 66.050781 175.796875 76.890625 174.113281 85.453125 C 169.988281 71.933594 161 56.855469 149.5 46.804688 C 135.628906 34.679688 118.1875 29.808594 101.164062 43.03125 C 94.492188 48.21875 90.253906 54.714844 86.367188 61.429688 C 82.632812 67.882812 79.230469 74.546875 74.085938 80.320312 C 68.6875 86.382812 62.117188 90.675781 56.117188 95.511719 C 49.84375 100.566406 44.175781 106.199219 40.863281 114.75 C 35.457031 128.691406 40.722656 139.046875 50.511719 146.703125 C 64.5625 157.695312 88.238281 162.960938 101.429688 165.359375 C 101.621094 165.394531 102.621094 165.550781 103.894531 165.765625 Z M 172.753906 93.105469 C 172.886719 93.851562 173.535156 94.394531 174.292969 94.402344 C 175.050781 94.40625 175.703125 93.871094 175.847656 93.125 C 177.511719 84.523438 179.96875 69.75 185.089844 58.910156 C 189.15625 50.300781 195.351562 40.769531 203.222656 34.539062 C 208.308594 30.511719 214.101562 27.867188 220.484375 27.871094 C 229.503906 27.878906 233.769531 33.214844 237.15625 38.046875 C 239.765625 41.773438 241.988281 45.203125 244.941406 46.554688 C 251.34375 49.480469 258.34375 49.675781 265.429688 50.148438 C 272.074219 50.589844 278.800781 51.28125 285.09375 55.207031 C 294.796875 61.257812 301.585938 70.542969 304.667969 81.554688 C 312.183594 108.414062 293.417969 130.539062 272.699219 144.785156 C 272.21875 145.117188 271.378906 145.375 270.5625 145.648438 C 269.4375 146.027344 268.339844 146.421875 267.730469 146.832031 C 267.070312 147.277344 266.753906 147.828125 266.660156 148.320312 C 266.546875 148.929688 266.648438 149.660156 267.472656 150.355469 C 268.671875 151.363281 270.375 152.160156 272.476562 152.828125 C 275.320312 153.734375 278.941406 154.4375 282.945312 155.355469 C 292.515625 157.546875 304.386719 160.964844 312.460938 172.011719 C 316.058594 176.933594 317.917969 182.578125 317.257812 188.675781 C 316.722656 193.605469 314.417969 197.050781 311.933594 200.328125 C 309.183594 203.957031 306.226562 207.394531 304.683594 212.015625 C 304.117188 213.710938 304.015625 215.878906 304.230469 218.417969 C 304.527344 221.890625 305.40625 226.121094 306.226562 230.792969 C 308.0625 241.242188 309.660156 254.011719 302.921875 265.210938 C 298.433594 272.671875 290.246094 279.390625 276.09375 284.324219 C 255.042969 291.664062 238.503906 281.550781 226.566406 268.496094 C 214.351562 255.140625 206.890625 238.664062 204.320312 233.71875 C 203.867188 232.851562 203.515625 232.28125 203.308594 232.039062 C 203.066406 231.761719 202.832031 231.621094 202.664062 231.542969 C 202.160156 231.3125 201.71875 231.363281 201.347656 231.519531 C 201.019531 231.65625 200.683594 231.902344 200.476562 232.386719 C 197.214844 240.015625 197.703125 250.917969 187.875 272.285156 C 171.84375 307.140625 140.578125 313.320312 115.132812 306.214844 C 104.378906 303.214844 95.097656 293.894531 90.5625 283.894531 C 88.429688 279.1875 86.40625 274.4375 83.671875 270.03125 C 81.132812 265.933594 77.152344 262.722656 72.628906 259.828125 C 68.316406 257.070312 63.503906 254.589844 59.097656 251.808594 C 52.855469 247.863281 47.390625 243.335938 45.730469 236.222656 C 44.039062 228.960938 46.289062 219.167969 55.128906 204.847656 C 66.476562 186.464844 84.980469 174.363281 105.535156 168.570312 C 105.886719 168.472656 110.441406 167.785156 111.375 167.5625 C 112.421875 167.316406 112.664062 166.511719 112.695312 166.394531 C 112.835938 165.882812 112.824219 164.96875 111.726562 164.371094 C 110.328125 163.609375 102.589844 162.371094 101.992188 162.261719 C 89.167969 159.929688 66.113281 154.910156 52.449219 144.222656 C 43.761719 137.425781 39 128.261719 43.796875 115.886719 C 46.890625 107.902344 52.234375 102.683594 58.09375 97.964844 C 64.226562 93.023438 70.917969 88.609375 76.4375 82.414062 C 81.726562 76.476562 85.253906 69.644531 89.09375 63.007812 C 92.78125 56.632812 96.761719 50.441406 103.097656 45.519531 C 118.714844 33.386719 134.703125 38.050781 147.425781 49.171875 C 160.457031 60.5625 170.148438 78.664062 172.753906 93.105469 Z M 172.753906 93.105469 " fill-opacity="1" fill-rule="evenodd"/></g></g></g></g><g clip-path="url(#c1b7c49fe5)"><g clip-path="url(#e73ad482d7)"><g clip-path="url(#1142113a00)"><g clip-path="url(#02ca11c8a6)"><path fill="#84b68e" d="M 204.949219 226.46875 C 204.890625 226.140625 204.457031 226.867188 203.285156 230.984375 C 202.464844 233.878906 200.195312 237.519531 200.1875 240.5 C 200.15625 249.945312 201.851562 259.359375 201.761719 268.84375 C 201.636719 282.5 200.222656 296.117188 198.023438 309.585938 C 196.4375 319.296875 187.671875 350.332031 190.414062 359.265625 C 191.125 361.574219 193.847656 361.886719 195.925781 362.003906 C 199.925781 362.230469 209.074219 361.289062 211.933594 357.964844 C 222.847656 345.296875 220.167969 264.011719 215.285156 243.773438 C 213.96875 238.328125 208.09375 231.019531 204.949219 226.46875 Z M 204.949219 226.46875 " fill-opacity="1" fill-rule="evenodd"/></g></g></g></g><g clip-path="url(#ce4f027d28)"><g clip-path="url(#59d9b845c4)"><g clip-path="url(#451ccf409d)"><g clip-path="url(#948afa9e62)"><path fill="#7e4021" d="M 206.367188 225.753906 C 206.125 225.203125 205.667969 224.980469 205.339844 224.886719 C 204.949219 224.777344 204.417969 224.738281 203.855469 225.210938 C 203.734375 225.3125 203.527344 225.515625 203.320312 225.917969 C 203.066406 226.417969 202.570312 227.742188 201.773438 230.554688 C 201.289062 232.253906 200.289062 234.214844 199.570312 236.144531 C 199.011719 237.644531 198.617188 239.132812 198.613281 240.496094 C 198.582031 249.9375 200.277344 259.347656 200.1875 268.832031 C 200.0625 282.40625 198.65625 295.941406 196.472656 309.332031 C 195.359375 316.136719 190.726562 333.402344 188.988281 346.21875 C 188.207031 351.992188 188.042969 356.90625 188.910156 359.726562 C 189.421875 361.394531 190.625 362.382812 192.109375 362.933594 C 193.285156 363.371094 194.652344 363.511719 195.835938 363.578125 C 198.351562 363.71875 202.808594 363.421875 206.621094 362.410156 C 209.394531 361.671875 211.816406 360.515625 213.128906 358.992188 C 214.546875 357.34375 215.792969 354.644531 216.808594 351.097656 C 218.238281 346.113281 219.269531 339.386719 219.960938 331.679688 C 222.625 301.988281 220.253906 257.65625 216.8125 243.40625 C 215.480469 237.875 209.628906 230.445312 206.367188 225.753906 Z M 205.316406 229.695312 C 208.453125 234.019531 212.683594 239.707031 213.753906 244.144531 C 217.152344 258.226562 219.457031 302.050781 216.828125 331.398438 C 216.15625 338.871094 215.167969 345.398438 213.78125 350.230469 C 212.921875 353.230469 211.941406 355.546875 210.742188 356.9375 C 209.761719 358.078125 207.886719 358.816406 205.808594 359.367188 C 202.347656 360.289062 198.296875 360.5625 196.011719 360.433594 C 195.121094 360.382812 194.089844 360.308594 193.203125 359.980469 C 192.632812 359.769531 192.117188 359.445312 191.921875 358.804688 C 191.140625 356.265625 191.402344 351.839844 192.109375 346.640625 C 193.84375 333.855469 198.46875 316.628906 199.578125 309.835938 C 201.789062 296.292969 203.210938 282.59375 203.335938 268.859375 C 203.425781 259.371094 201.730469 249.953125 201.761719 240.507812 C 201.765625 239.195312 202.300781 237.75 202.890625 236.304688 C 203.585938 234.601562 204.375 232.910156 204.800781 231.414062 C 204.984375 230.769531 205.15625 230.195312 205.316406 229.695312 Z M 203.703125 227.4375 L 203.652344 227.367188 C 203.523438 227.175781 203.4375 226.964844 203.398438 226.738281 C 203.449219 227.042969 203.5625 227.269531 203.703125 227.4375 Z M 203.703125 227.4375 " fill-opacity="1" fill-rule="evenodd"/></g></g></g></g><g clip-path="url(#421a9a0eed)"><g clip-path="url(#20f048fe9f)"><g clip-path="url(#890ae6f215)"><g clip-path="url(#943af6f774)"><path fill="#a8c289" d="M 176.957031 84.328125 C 178.636719 75.632812 181.140625 60.699219 186.316406 49.742188 C 193.257812 35.050781 206.289062 17.789062 223.136719 17.800781 C 239.289062 17.8125 241.386719 33.488281 248.246094 36.625 C 260.703125 42.316406 275.515625 37.226562 288.578125 45.375 C 298.617188 51.632812 305.648438 61.238281 308.835938 72.632812 C 316.542969 100.179688 297.496094 122.972656 276.246094 137.585938 C 274.609375 138.710938 269.617188 139.375 271.136719 140.652344 C 277.816406 146.261719 302.488281 143.578125 316.382812 162.582031 C 320.21875 167.832031 322.179688 173.851562 321.472656 180.347656 C 320.335938 190.851562 311.800781 195.113281 308.828125 204.019531 C 304.578125 216.746094 331.445312 259.117188 279.265625 277.3125 C 230.929688 294.164062 205.445312 222.476562 204.578125 224.507812 C 201.308594 232.144531 201.792969 243.054688 191.957031 264.445312 C 175.519531 300.1875 143.457031 306.519531 117.363281 299.234375 C 106.175781 296.113281 96.496094 286.445312 91.78125 276.046875 C 89.675781 271.402344 87.683594 266.710938 84.988281 262.363281 C 72.871094 242.820312 25.90625 244.988281 56.441406 195.523438 C 68 176.804688 86.828125 164.457031 107.761719 158.558594 C 108.152344 158.449219 113.796875 157.597656 113.828125 157.480469 C 114.019531 156.792969 104.992188 155.429688 104.363281 155.3125 C 82.683594 151.367188 32.234375 139.71875 44.980469 106.820312 C 51.390625 90.28125 66.996094 85.125 77.914062 72.871094 C 88.347656 61.15625 91.773438 45.882812 104.785156 35.777344 C 137.425781 10.417969 171.636719 54.851562 176.957031 84.328125 Z M 176.957031 84.328125 " fill-opacity="1" fill-rule="evenodd"/></g></g></g></g><g clip-path="url(#c241077ba3)"><g clip-path="url(#411eab3516)"><g clip-path="url(#1c14b98d57)"><g clip-path="url(#a1578af942)"><path fill="#7e4021" d="M 106.546875 157.269531 C 85.550781 163.359375 66.722656 175.871094 55.101562 194.699219 C 45.621094 210.058594 43.5 220.648438 45.316406 228.441406 C 47.171875 236.378906 53.101562 241.570312 60.070312 245.96875 C 64.46875 248.75 69.277344 251.226562 73.585938 253.984375 C 77.6875 256.605469 81.34375 259.472656 83.648438 263.191406 C 86.3125 267.484375 88.273438 272.113281 90.347656 276.695312 C 95.246094 287.496094 105.324219 297.507812 116.941406 300.75 C 143.679688 308.214844 176.542969 301.734375 193.386719 265.101562 C 201.980469 246.417969 202.707031 235.722656 204.929688 228.222656 C 205.425781 229.183594 206.015625 230.335938 206.632812 231.550781 C 210.945312 240.042969 219.203125 255.214844 231.265625 266.566406 C 243.574219 278.152344 259.796875 285.765625 279.78125 278.796875 C 295.941406 273.164062 304.710938 265.222656 309.25 256.597656 C 313.808594 247.945312 314.117188 238.550781 313.179688 229.90625 C 312.453125 223.210938 310.980469 216.980469 310.285156 211.96875 C 309.863281 208.925781 309.703125 206.375 310.320312 204.515625 C 311.75 200.234375 314.546875 197.089844 317.09375 193.734375 C 319.902344 190.027344 322.433594 186.089844 323.039062 180.515625 C 323.789062 173.621094 321.726562 167.226562 317.652344 161.652344 C 309.054688 149.894531 296.492188 146.121094 286.300781 143.789062 C 282.394531 142.894531 278.859375 142.214844 276.085938 141.332031 C 275.152344 141.035156 274.316406 140.722656 273.59375 140.363281 C 273.8125 140.277344 274.027344 140.199219 274.21875 140.136719 C 275.34375 139.757812 276.472656 139.339844 277.136719 138.882812 C 298.917969 123.902344 318.253906 100.445312 310.351562 72.207031 C 307.058594 60.429688 299.789062 50.507812 289.410156 44.039062 C 282.644531 39.816406 275.433594 38.980469 268.289062 38.507812 C 261.589844 38.0625 254.957031 37.957031 248.902344 35.191406 C 247.730469 34.65625 246.746094 33.667969 245.773438 32.472656 C 244.652344 31.09375 243.574219 29.441406 242.386719 27.746094 C 238.5 22.191406 233.5 16.234375 223.136719 16.226562 C 216.042969 16.222656 209.578125 19.09375 203.921875 23.574219 C 195.675781 30.097656 189.15625 40.050781 184.894531 49.066406 C 180.886719 57.554688 178.449219 68.394531 176.765625 76.953125 C 172.640625 63.433594 163.652344 48.355469 152.152344 38.304688 C 138.28125 26.183594 120.839844 21.308594 103.816406 34.535156 C 97.140625 39.71875 92.90625 46.214844 89.019531 52.933594 C 85.285156 59.386719 81.882812 66.046875 76.738281 71.824219 C 71.339844 77.886719 64.769531 82.179688 58.769531 87.015625 C 52.496094 92.070312 46.828125 97.699219 43.515625 106.253906 C 38.109375 120.195312 43.375 130.546875 53.164062 138.203125 C 67.214844 149.195312 90.890625 154.460938 104.082031 156.863281 C 104.273438 156.898438 105.273438 157.050781 106.546875 157.269531 Z M 175.40625 84.609375 C 175.539062 85.355469 176.1875 85.898438 176.945312 85.902344 C 177.703125 85.90625 178.355469 85.371094 178.5 84.628906 C 180.164062 76.023438 182.621094 61.25 187.742188 50.414062 C 191.808594 41.800781 198.003906 32.273438 205.875 26.042969 C 210.960938 22.011719 216.753906 19.371094 223.132812 19.375 C 232.15625 19.378906 236.421875 24.714844 239.808594 29.550781 C 242.417969 33.277344 244.640625 36.707031 247.59375 38.054688 C 253.996094 40.980469 260.996094 41.179688 268.082031 41.648438 C 274.722656 42.089844 281.453125 42.785156 287.746094 46.707031 C 297.449219 52.761719 304.238281 62.042969 307.320312 73.054688 C 314.835938 99.917969 296.070312 122.039062 275.351562 136.289062 C 274.871094 136.621094 274.03125 136.875 273.214844 137.152344 C 272.089844 137.53125 270.992188 137.925781 270.382812 138.332031 C 269.722656 138.777344 269.40625 139.328125 269.3125 139.824219 C 269.199219 140.429688 269.300781 141.164062 270.125 141.859375 C 271.324219 142.863281 273.027344 143.660156 275.128906 144.332031 C 277.972656 145.234375 281.59375 145.9375 285.597656 146.855469 C 295.167969 149.046875 307.035156 152.46875 315.113281 163.511719 C 318.710938 168.4375 320.570312 174.082031 319.910156 180.175781 C 319.375 185.105469 317.070312 188.554688 314.585938 191.832031 C 311.835938 195.457031 308.878906 198.894531 307.335938 203.519531 C 306.769531 205.214844 306.667969 207.382812 306.882812 209.921875 C 307.179688 213.390625 308.058594 217.625 308.878906 222.296875 C 310.714844 232.746094 312.3125 245.511719 305.574219 256.710938 C 301.085938 264.175781 292.898438 270.890625 278.746094 275.824219 C 257.695312 283.164062 241.15625 273.054688 229.21875 260 C 217.003906 246.640625 209.542969 230.164062 206.96875 225.222656 C 206.515625 224.351562 206.167969 223.78125 205.960938 223.542969 C 205.71875 223.265625 205.484375 223.121094 205.316406 223.042969 C 204.8125 222.8125 204.371094 222.863281 204 223.019531 C 203.671875 223.15625 203.335938 223.402344 203.128906 223.890625 C 199.867188 231.515625 200.355469 242.417969 190.527344 263.785156 C 174.496094 298.644531 143.230469 304.820312 117.785156 297.71875 C 107.03125 294.714844 97.75 285.394531 93.214844 275.394531 C 91.082031 270.6875 89.058594 265.941406 86.324219 261.535156 C 83.785156 257.4375 79.804688 254.222656 75.28125 251.332031 C 70.96875 248.570312 66.15625 246.09375 61.75 243.308594 C 55.507812 239.363281 50.042969 234.835938 48.382812 227.722656 C 46.691406 220.460938 48.941406 210.667969 57.78125 196.351562 C 69.128906 177.96875 87.632812 165.867188 108.1875 160.074219 C 108.539062 159.972656 113.09375 159.289062 114.027344 159.066406 C 115.074219 158.816406 115.316406 158.015625 115.347656 157.898438 C 115.488281 157.386719 115.476562 156.46875 114.378906 155.871094 C 112.980469 155.109375 105.242188 153.875 104.644531 153.765625 C 91.820312 151.429688 68.765625 146.414062 55.101562 135.726562 C 46.414062 128.929688 41.652344 119.765625 46.449219 107.390625 C 49.542969 99.402344 54.886719 94.1875 60.746094 89.464844 C 66.878906 84.523438 73.570312 80.113281 79.089844 73.917969 C 84.378906 67.976562 87.90625 61.144531 91.746094 54.507812 C 95.433594 48.136719 99.414062 41.941406 105.75 37.019531 C 121.367188 24.886719 137.351562 29.550781 150.078125 40.675781 C 163.109375 52.066406 172.800781 70.167969 175.40625 84.609375 Z M 175.40625 84.609375 " fill-opacity="1" fill-rule="evenodd"/></g></g></g></g><g clip-path="url(#a63259ddeb)"><g clip-path="url(#af602d6e5d)"><g clip-path="url(#e914d0b855)"><g clip-path="url(#63c6ba32fb)"><path fill="#7d3f21" d="M 236.621094 65.945312 C 236.589844 65.957031 236.554688 65.945312 236.5625 65.90625 C 236.726562 65.222656 237.300781 64.441406 237.636719 63.828125 C 237.871094 63.402344 239.601562 60.117188 240.03125 60.066406 C 241.113281 59.9375 240.882812 65.261719 241.421875 65.914062 C 242.105469 66.738281 246.84375 67.792969 246.847656 68.382812 C 246.851562 69.273438 242.925781 69.382812 241.90625 70.207031 C 240.363281 71.460938 239.90625 73.214844 238.859375 74.871094 C 238.6875 75.148438 238.519531 75.625 238.25 75.570312 C 238.140625 75.550781 238.058594 75.125 238.035156 75.054688 C 237.6875 73.917969 237.566406 71.171875 236.621094 70.367188 C 235.566406 69.472656 230.796875 68.765625 230.824219 68.15625 C 230.832031 68.03125 231.066406 67.972656 231.152344 67.945312 C 232.914062 67.429688 234.839844 66.394531 236.621094 65.945312 Z M 236.621094 65.945312 " fill-opacity="1" fill-rule="evenodd"/></g></g></g></g><g clip-path="url(#1299812f07)"><g clip-path="url(#d1d762b5cb)"><g clip-path="url(#35b60630ce)"><g clip-path="url(#2bd7d85547)"><path fill="#7e4021" d="M 194.589844 55.808594 C 194.375 55.777344 194.15625 55.785156 193.949219 55.835938 C 193.625 55.902344 193.324219 56.066406 193.078125 56.324219 C 192.433594 57.003906 192.460938 58.078125 193.140625 58.722656 C 193.683594 59.238281 194.117188 59.199219 194.339844 59.199219 C 194.742188 59.191406 195.71875 58.449219 195.742188 58.429688 C 196.238281 57.695312 196.082031 56.695312 195.371094 56.144531 C 195.265625 56.0625 195.152344 55.996094 195.035156 55.941406 C 194.867188 55.859375 194.71875 55.824219 194.589844 55.808594 Z M 195.742188 58.433594 L 195.742188 58.429688 L 195.742188 58.433594 L 195.675781 58.523438 C 195.699219 58.496094 195.71875 58.464844 195.742188 58.433594 Z M 195.035156 55.941406 C 194.890625 55.875 194.742188 55.832031 194.589844 55.808594 L 194.566406 55.804688 C 194.542969 55.804688 194.523438 55.804688 194.503906 55.804688 L 194.457031 55.800781 C 194.796875 55.832031 195.132812 55.964844 195.410156 56.199219 C 195.277344 56.082031 195.152344 56 195.035156 55.941406 Z M 195.035156 55.941406 " fill-opacity="1" fill-rule="evenodd"/></g></g></g></g><g clip-path="url(#8c9f7708d5)"><g clip-path="url(#43b7edec80)"><g clip-path="url(#0691d36029)"><g clip-path="url(#e0dc3457d5)"><path fill="#7e4021" d="M 246.902344 50.917969 C 247.140625 49.894531 246.5 48.875 245.480469 48.640625 C 244.453125 48.40625 243.433594 49.042969 243.195312 50.0625 C 242.960938 51.085938 243.601562 52.105469 244.628906 52.34375 C 245.644531 52.578125 246.667969 51.941406 246.902344 50.917969 Z M 246.902344 50.917969 " fill-opacity="1" fill-rule="evenodd"/></g></g></g></g><g clip-path="url(#cf8b9428b8)"><g clip-path="url(#683b155f92)"><g clip-path="url(#8c93fba46b)"><g clip-path="url(#e637edae7c)"><path fill="#ffffff" d="M 252.601562 59.558594 C 252.835938 58.535156 252.195312 57.515625 251.179688 57.28125 C 250.152344 57.042969 249.128906 57.679688 248.894531 58.703125 C 248.65625 59.726562 249.296875 60.746094 250.324219 60.980469 C 251.34375 61.214844 252.363281 60.578125 252.601562 59.558594 Z M 252.601562 59.558594 " fill-opacity="1" fill-rule="evenodd"/></g></g></g></g><g clip-path="url(#6c43f4233b)"><g clip-path="url(#3ff93dd795)"><g clip-path="url(#bf0aded6a2)"><g clip-path="url(#d5769e7fc2)"><path fill="#7e4021" d="M 215.714844 47.921875 C 215.714844 47.933594 215.710938 47.941406 215.707031 47.949219 C 215.6875 47.996094 213.371094 46.199219 213.167969 46.03125 C 212.484375 45.472656 208.378906 42.117188 208.613281 41.277344 C 208.824219 40.546875 216.113281 39.777344 217.074219 39.199219 C 218.195312 38.53125 217.855469 31.628906 219.273438 30.679688 C 220.507812 29.851562 223.441406 36.925781 224.347656 37.34375 C 225.925781 38.070312 234.402344 37.089844 234.757812 37.753906 C 235.773438 39.660156 229.109375 44.578125 228.335938 46.207031 C 228.136719 46.625 231.5 53.179688 231.773438 54.429688 C 231.796875 54.542969 231.949219 55.015625 231.804688 55.097656 C 230.6875 55.753906 224.410156 50.699219 222.574219 50.632812 C 219.875 50.535156 217.125 62.5625 215.941406 54.332031 C 215.820312 53.484375 215.675781 52.628906 215.65625 51.769531 C 215.628906 50.699219 215.644531 48.996094 215.714844 47.921875 Z M 215.714844 47.921875 " fill-opacity="1" fill-rule="evenodd"/></g></g></g></g><g clip-path="url(#7064c157a2)"><g clip-path="url(#9b9f3350bd)"><g clip-path="url(#f18a8a45b9)"><g clip-path="url(#c8d30c8129)"><path fill="#7d3f21" d="M 302.46875 55.0625 C 305.375 55.097656 311.128906 58.136719 313.851562 59.304688 C 314.269531 59.484375 317.457031 60.90625 317.453125 61.359375 C 317.445312 61.71875 315.171875 61.308594 314.125 61.109375 C 310.605469 60.429688 305.347656 59.496094 301.953125 58.359375 C 301.117188 58.078125 302.554688 59.578125 302.800781 59.835938 C 305.035156 62.195312 307.019531 64.757812 308.464844 67.683594 C 308.65625 68.070312 310.089844 71.144531 309.726562 71.410156 C 309.195312 71.792969 307.289062 69.398438 307.03125 69.117188 C 304.847656 66.730469 302.820312 64.171875 300.871094 61.589844 C 300.65625 61.308594 299.992188 60.265625 299.597656 60.285156 C 299.480469 60.292969 298.402344 62.179688 297.804688 63.679688 C 296.8125 66.152344 294.695312 69.804688 292.25 72.75 C 292.03125 73.015625 290.3125 75.441406 289.867188 75.195312 C 289.28125 74.871094 290.335938 72.496094 290.457031 72.128906 C 291.605469 68.664062 293.695312 62.90625 295.570312 59.777344 C 296.039062 59 293.863281 60.308594 293.539062 60.453125 C 290.59375 61.761719 287.53125 62.738281 284.332031 63.167969 C 283.832031 63.234375 280.675781 63.898438 280.449219 63.167969 C 280.195312 62.351562 282.347656 61.390625 282.832031 61.132812 C 285.691406 59.617188 288.667969 58.519531 291.722656 57.488281 C 294.289062 56.621094 294.550781 56.109375 294.53125 56.078125 C 294.523438 56.066406 291.171875 55.257812 290.855469 55.183594 C 286.324219 54.078125 281.816406 52.722656 277.539062 50.839844 C 276.964844 50.585938 272.882812 48.703125 272.957031 48.046875 C 273.03125 47.40625 276.367188 47.808594 276.765625 47.867188 C 281.160156 48.492188 285.496094 49.675781 289.621094 51.304688 C 290.925781 51.824219 292.214844 52.382812 293.515625 52.914062 C 293.625 52.960938 294.714844 53.488281 294.808594 53.292969 C 294.863281 53.167969 292.757812 50.488281 292.542969 50.214844 C 290.398438 47.46875 288.417969 44.335938 287.105469 41.09375 C 286.902344 40.589844 285.679688 38.300781 286.082031 37.785156 C 286.535156 37.203125 288.515625 39.363281 288.738281 39.59375 C 291.0625 42.027344 293.175781 44.808594 294.941406 47.667969 C 295.550781 48.652344 296.097656 49.664062 296.667969 50.671875 C 296.691406 50.714844 296.878906 51.117188 296.96875 51.082031 C 297.035156 51.054688 297.71875 47.386719 297.800781 47.035156 C 298.582031 43.601562 300.003906 40.308594 301.476562 37.117188 C 301.707031 36.613281 302.625 34.230469 303.328125 34.167969 C 303.808594 34.125 303.324219 36.746094 302.855469 38.695312 C 302.035156 42.113281 301.8125 44.878906 300.832031 48.25 C 300.644531 48.890625 300.183594 50.996094 299.964844 51.695312 C 299.859375 52.046875 301.410156 51.28125 302.09375 50.84375 C 304.792969 49.117188 307.441406 47.351562 310.253906 45.804688 C 310.597656 45.617188 312.46875 44.339844 312.867188 44.875 C 313.339844 45.507812 310.933594 47.457031 310.589844 47.777344 C 307.648438 50.53125 305.855469 52.941406 302.46875 55.0625 Z M 302.46875 55.0625 " fill-opacity="1" fill-rule="evenodd"/></g></g></g></g><g clip-path="url(#6f7badc003)"><g clip-path="url(#dd43a340e6)"><g clip-path="url(#a86ded18db)"><g clip-path="url(#b033730cbb)"><path fill="#fdfdfe" d="M 130.449219 140.828125 C 130.449219 140.828125 112.480469 146.195312 110.015625 164.777344 C 107.554688 183.359375 130.398438 211.242188 155.601562 189.535156 C 180.808594 167.828125 152.238281 130.691406 130.449219 140.828125 Z M 130.449219 140.828125 " fill-opacity="1" fill-rule="evenodd"/></g></g></g></g><g clip-path="url(#0fe6f03519)"><g clip-path="url(#cd967f5d7e)"><g clip-path="url(#213086efb7)"><g clip-path="url(#601e6d1484)"><path fill="#7e4021" d="M 129.957031 139.5625 C 128.46875 140.039062 111.140625 145.984375 108.671875 164.597656 C 107.769531 171.402344 110.074219 179.410156 114.632812 185.957031 C 119.203125 192.527344 126.019531 197.609375 134.003906 198.621094 C 140.835938 199.484375 148.5625 197.390625 156.488281 190.566406 C 172.324219 176.925781 167.949219 157.472656 156.9375 146.386719 C 149.535156 138.929688 139.167969 135.324219 129.957031 139.5625 Z M 130.835938 142.132812 C 130.898438 142.113281 130.960938 142.089844 131.019531 142.0625 C 139.222656 138.246094 148.414062 141.65625 155.011719 148.296875 C 165.03125 158.390625 169.128906 176.09375 154.714844 188.507812 C 147.519531 194.703125 140.546875 196.710938 134.34375 195.925781 C 127.121094 195.011719 120.996094 190.351562 116.859375 184.40625 C 112.707031 178.4375 110.539062 171.160156 111.363281 164.957031 C 113.710938 147.246094 130.835938 142.132812 130.835938 142.132812 Z M 130.835938 142.132812 " fill-opacity="1" fill-rule="evenodd"/></g></g></g></g><g clip-path="url(#a7cdd24b3e)"><g clip-path="url(#2645c5f41a)"><g clip-path="url(#77038c5f21)"><g clip-path="url(#2e90ace4a7)"><path fill="#7e4021" d="M 127.875 144.839844 C 127.875 144.839844 116.128906 173.886719 145.25 194.824219 C 145.25 194.824219 172.6875 187.300781 162.410156 157.855469 C 155.097656 136.890625 128.066406 137.332031 127.875 144.839844 Z M 127.875 144.839844 " fill-opacity="1" fill-rule="evenodd"/></g></g></g></g><g clip-path="url(#1b42b748e8)"><g clip-path="url(#5bbc63c7c8)"><g clip-path="url(#c0611098e7)"><g clip-path="url(#c4152e6600)"><path fill="#7e4021" d="M 126.53125 144.550781 C 125.5 147.316406 115.917969 175.40625 144.457031 195.925781 C 144.789062 196.164062 145.214844 196.242188 145.609375 196.132812 C 145.609375 196.132812 159.734375 192.242188 164.511719 179.296875 C 166.542969 173.789062 166.910156 166.628906 163.695312 157.40625 C 158.304688 141.964844 142.734375 137.582031 133.816406 139.039062 C 131.320312 139.445312 129.324219 140.320312 128.09375 141.476562 C 127.160156 142.355469 126.625 143.394531 126.53125 144.550781 Z M 129.136719 145.347656 C 129.195312 145.199219 129.230469 145.039062 129.234375 144.875 C 129.25 144.160156 129.710938 143.582031 130.398438 143.097656 C 131.339844 142.4375 132.675781 141.976562 134.257812 141.71875 C 142.285156 140.40625 156.277344 144.398438 161.128906 158.300781 C 164.078125 166.75 163.824219 173.308594 161.964844 178.355469 C 158.21875 188.503906 148.082031 192.460938 145.496094 193.324219 C 117.988281 173.082031 129.136719 145.347656 129.136719 145.347656 Z M 129.136719 145.347656 " fill-opacity="1" fill-rule="evenodd"/></g></g></g></g><g clip-path="url(#1411d6a01b)"><g clip-path="url(#f3498eecb0)"><g clip-path="url(#ab97a1be58)"><g clip-path="url(#eedc1b08dc)"><path fill="#7e4021" d="M 197.273438 150.632812 C 197.398438 150.339844 198.089844 148.695312 198.273438 148.289062 C 202.75 138.289062 212.859375 129.34375 224.015625 128.011719 C 224.878906 127.910156 225.496094 127.125 225.390625 126.261719 C 225.289062 125.398438 224.503906 124.78125 223.640625 124.886719 C 211.429688 126.34375 200.300781 136.058594 195.402344 147.003906 C 195.167969 147.523438 194.457031 148.792969 194.21875 149.800781 C 194.011719 150.660156 194.117188 151.421875 194.425781 151.941406 C 194.867188 152.691406 195.832031 152.941406 196.582031 152.5 C 197.234375 152.113281 197.507812 151.328125 197.273438 150.632812 Z M 197.273438 150.632812 " fill-opacity="1" fill-rule="evenodd"/></g></g></g></g><g clip-path="url(#c90adfb260)"><g clip-path="url(#048265c46a)"><g clip-path="url(#99a3d5958a)"><g clip-path="url(#f9ae3476b6)"><path fill="#7e4021" d="M 215.308594 145.199219 C 214.847656 144.839844 214.15625 144.554688 213.257812 144.441406 C 212.316406 144.320312 211.078125 144.363281 209.6875 144.546875 C 206.191406 145.019531 201.644531 146.378906 198.664062 147.746094 C 197.207031 148.414062 196.097656 149.121094 195.535156 149.714844 C 194.9375 150.34375 194.960938 151.339844 195.59375 151.9375 C 196.222656 152.535156 197.21875 152.511719 197.816406 151.882812 C 198.199219 151.480469 198.988281 151.0625 199.976562 150.605469 C 202.714844 149.351562 206.894531 148.097656 210.105469 147.667969 C 211.015625 147.546875 211.84375 147.488281 212.523438 147.53125 C 212.890625 147.554688 213.195312 147.542969 213.367188 147.679688 C 214.050781 148.214844 215.042969 148.09375 215.578125 147.410156 C 216.113281 146.726562 215.992188 145.734375 215.308594 145.199219 Z M 215.308594 145.199219 " fill-opacity="1" fill-rule="evenodd"/></g></g></g></g><g clip-path="url(#ad29ebf7c6)"><g clip-path="url(#438273ceaf)"><g clip-path="url(#a60cc22d4b)"><g clip-path="url(#f602e4d25e)"><path fill="#7e4021" d="M 183.316406 195.832031 C 183.378906 195.824219 183.441406 195.816406 183.507812 195.804688 C 186.410156 195.230469 189.265625 194.566406 191.960938 193.300781 C 200.683594 189.214844 209.191406 182.019531 210.9375 171.96875 C 211.085938 171.113281 210.511719 170.296875 209.65625 170.148438 C 208.800781 170 207.984375 170.574219 207.835938 171.429688 C 206.265625 180.460938 198.460938 186.777344 190.625 190.449219 C 188.164062 191.605469 185.550781 192.191406 182.894531 192.714844 C 182.964844 192.699219 183.039062 192.707031 183.039062 192.707031 C 183.039062 192.707031 182.398438 192.78125 182.332031 192.808594 C 181.832031 193 181.59375 193.335938 181.457031 193.644531 C 181.40625 193.757812 180.894531 194.890625 182.109375 195.640625 C 182.484375 195.875 182.917969 195.929688 183.316406 195.832031 Z M 183.84375 193.015625 C 184.050781 193.160156 184.210938 193.347656 184.324219 193.558594 C 184.25 193.398438 184.113281 193.199219 183.84375 193.015625 Z M 183.84375 193.015625 " fill-opacity="1" fill-rule="evenodd"/></g></g></g></g><g clip-path="url(#21b91aff8a)"><g clip-path="url(#e61800841a)"><g clip-path="url(#30784bb6f3)"><g clip-path="url(#21bec97a67)"><path fill="#7e4021" d="M 263.332031 185.289062 C 263.554688 185.4375 264.042969 185.753906 264.128906 185.800781 C 268.71875 188.226562 273.992188 190.035156 278.988281 191.367188 C 279.828125 191.589844 280.691406 191.089844 280.914062 190.253906 C 281.140625 189.414062 280.640625 188.550781 279.800781 188.328125 C 275.042969 187.058594 270.015625 185.34375 265.640625 183.039062 C 265.492188 182.9375 264.628906 182.367188 264.25 182.246094 C 263.535156 182.007812 262.972656 182.214844 262.636719 182.460938 C 261.933594 182.96875 261.777344 183.957031 262.285156 184.660156 C 262.546875 185.015625 262.925781 185.230469 263.332031 185.289062 Z M 263.332031 185.289062 " fill-opacity="1" fill-rule="evenodd"/></g></g></g></g><g clip-path="url(#ed4a6618af)"><g clip-path="url(#8c5861e4a0)"><g clip-path="url(#3da478c6fa)"><g clip-path="url(#2816b16446)"><path fill="#7e4021" d="M 250.957031 192.695312 C 251.324219 194.386719 252.859375 196.164062 254.910156 197.730469 C 257.496094 199.707031 260.847656 201.449219 262.515625 202.554688 C 263.238281 203.035156 264.214844 202.839844 264.695312 202.117188 C 265.179688 201.390625 264.980469 200.414062 264.257812 199.933594 C 262.628906 198.851562 259.347656 197.164062 256.824219 195.230469 C 255.464844 194.191406 254.277344 193.148438 254.035156 192.03125 C 253.851562 191.179688 253.011719 190.640625 252.164062 190.824219 C 251.3125 191.007812 250.773438 191.847656 250.957031 192.695312 Z M 250.957031 192.695312 " fill-opacity="1" fill-rule="evenodd"/></g></g></g></g><g clip-path="url(#92ad9a0fd8)"><g clip-path="url(#6e8dd5d576)"><g clip-path="url(#d089831249)"><g clip-path="url(#124fb849d5)"><path fill="#7e4021" d="M 145.6875 232.074219 L 145.757812 231.949219 C 146.511719 230.582031 150.46875 223.746094 150.894531 223.0625 C 151.347656 222.320312 151.121094 221.351562 150.378906 220.894531 C 149.640625 220.4375 148.671875 220.667969 148.214844 221.40625 C 147.785156 222.101562 143.769531 229.035156 143 230.425781 C 142.835938 230.722656 142.761719 230.914062 142.753906 230.949219 C 142.5625 231.554688 142.757812 231.949219 142.832031 232.101562 C 143.050781 232.566406 143.40625 232.824219 143.832031 232.945312 C 144.589844 233.15625 145.375 232.773438 145.6875 232.074219 Z M 145.6875 232.074219 " fill-opacity="1" fill-rule="evenodd"/></g></g></g></g><g clip-path="url(#71b040dc0a)"><g clip-path="url(#ca0c244e9c)"><g clip-path="url(#8580698edb)"><g clip-path="url(#98c2a9f78e)"><path fill="#7e4021" d="M 117.046875 222.148438 C 118.058594 222.011719 119.882812 221.738281 120.585938 221.5 C 124.433594 220.179688 128.289062 218.46875 131.878906 216.566406 C 132.648438 216.15625 132.941406 215.203125 132.535156 214.4375 C 132.128906 213.667969 131.171875 213.375 130.40625 213.78125 C 126.960938 215.609375 123.261719 217.257812 119.566406 218.519531 C 118.824219 218.773438 117.265625 218.867188 116.253906 219.042969 C 115.390625 219.191406 114.769531 219.484375 114.515625 219.710938 C 113.988281 220.175781 113.859375 220.726562 113.949219 221.273438 C 114.003906 221.621094 114.191406 222.179688 114.953125 222.625 C 115.671875 223.042969 116.585938 222.828125 117.046875 222.148438 Z M 117.046875 222.148438 " fill-opacity="1" fill-rule="evenodd"/></g></g></g></g><g clip-path="url(#cdf76f578d)"><g clip-path="url(#51200311af)"><g clip-path="url(#0be43a7be3)"><g clip-path="url(#c08e9bd39e)"><path fill="#7e4021" d="M 118.773438 86.570312 C 118.777344 86.296875 118.703125 86.015625 118.554688 85.765625 C 118.109375 85.019531 117.144531 84.773438 116.398438 85.214844 C 115.964844 85.472656 115.347656 86.109375 115.664062 87.273438 C 116.074219 88.789062 120.359375 95.074219 120.734375 95.550781 C 123.933594 99.671875 127.777344 103.515625 132.121094 106.414062 C 132.84375 106.894531 133.824219 106.699219 134.304688 105.976562 C 134.789062 105.253906 134.59375 104.277344 133.871094 103.792969 C 129.800781 101.082031 126.214844 97.476562 123.21875 93.621094 C 122.921875 93.234375 119.332031 87.46875 118.773438 86.570312 Z M 118.070312 87.882812 L 118.003906 87.921875 C 118.027344 87.910156 118.046875 87.894531 118.070312 87.882812 Z M 118.140625 87.832031 L 118.078125 87.875 L 118.109375 87.855469 Z M 118.261719 87.730469 L 118.308594 87.683594 C 118.257812 87.738281 118.199219 87.789062 118.140625 87.832031 L 118.203125 87.785156 C 118.222656 87.765625 118.242188 87.75 118.261719 87.730469 Z M 118.347656 87.648438 L 118.34375 87.652344 L 118.34375 87.648438 Z M 118.347656 87.648438 " fill-opacity="1" fill-rule="evenodd"/></g></g></g></g><g clip-path="url(#54603fad35)"><g clip-path="url(#2a7648e2a5)"><g clip-path="url(#b3e98f74da)"><g clip-path="url(#c899e96596)"><path fill="#7e4021" d="M 138.523438 240.011719 C 138.097656 241.324219 137.554688 242.609375 137.082031 243.902344 C 136.78125 244.71875 137.199219 245.625 138.015625 245.921875 C 138.832031 246.222656 139.734375 245.804688 140.035156 244.988281 C 140.527344 243.65625 141.082031 242.332031 141.515625 240.984375 C 141.785156 240.15625 141.332031 239.265625 140.503906 239 C 139.679688 238.730469 138.789062 239.1875 138.523438 240.011719 Z M 138.523438 240.011719 " fill-opacity="1" fill-rule="evenodd"/></g></g></g></g><g clip-path="url(#3c5bb69da3)"><g clip-path="url(#089ec5b5ab)"><g clip-path="url(#e310ad4de8)"><g clip-path="url(#3ab129fc62)"><path fill="#7e4021" d="M 196.238281 355.550781 C 196.789062 354.3125 197.039062 352.707031 197.128906 351 C 197.25 348.789062 197.117188 346.398438 197.304688 344.667969 C 197.398438 343.804688 196.777344 343.027344 195.910156 342.933594 C 195.046875 342.835938 194.269531 343.460938 194.175781 344.324219 C 194.011719 345.824219 194.074219 347.800781 194.027344 349.746094 C 193.988281 351.421875 193.890625 353.078125 193.363281 354.273438 C 193.007812 355.066406 193.367188 356 194.164062 356.351562 C 194.957031 356.703125 195.886719 356.34375 196.238281 355.550781 Z M 196.238281 355.550781 " fill-opacity="1" fill-rule="evenodd"/></g></g></g></g><g clip-path="url(#fe4150d51a)"><g clip-path="url(#254d1281cd)"><g clip-path="url(#3c81e6ba9b)"><g clip-path="url(#a0e0c893fc)"><path fill="#7e4021" d="M 198.121094 338.972656 C 198.433594 338.382812 198.628906 337.5625 198.730469 336.671875 C 198.839844 335.691406 198.839844 334.609375 198.949219 333.875 C 199.074219 333.015625 198.480469 332.214844 197.621094 332.089844 C 196.761719 331.960938 195.960938 332.554688 195.835938 333.414062 C 195.738281 334.066406 195.714844 334.972656 195.644531 335.863281 C 195.59375 336.480469 195.554688 337.09375 195.339844 337.496094 C 194.933594 338.265625 195.222656 339.21875 195.992188 339.625 C 196.757812 340.03125 197.710938 339.742188 198.121094 338.972656 Z M 198.121094 338.972656 " fill-opacity="1" fill-rule="evenodd"/></g></g></g></g><g clip-path="url(#3e3ad610f4)"><g clip-path="url(#7755354bd8)"><g clip-path="url(#825f095faf)"><g clip-path="url(#d302d297a2)"><path fill="#7e4021" d="M 199.828125 339.648438 C 199.949219 339.910156 199.855469 340.351562 199.804688 340.828125 C 199.667969 342.074219 199.347656 343.46875 199.304688 344.214844 C 199.25 345.082031 199.914062 345.828125 200.78125 345.882812 C 201.648438 345.933594 202.394531 345.273438 202.445312 344.40625 C 202.5 343.554688 202.921875 341.832031 202.992188 340.484375 C 203.035156 339.609375 202.925781 338.84375 202.683594 338.324219 C 202.320312 337.535156 201.382812 337.191406 200.59375 337.558594 C 199.804688 337.921875 199.460938 338.859375 199.828125 339.648438 Z M 199.828125 339.648438 " fill-opacity="1" fill-rule="evenodd"/></g></g></g></g><g clip-path="url(#90d12d45ce)"><g clip-path="url(#8ba7c06f49)"><g clip-path="url(#41415ce926)"><g clip-path="url(#e74ed99500)"><path fill="#ffffff" d="M 88.671875 182.632812 C 90.328125 183.699219 92.136719 174.832031 102.359375 178.257812 C 116.941406 183.152344 116.402344 210.738281 105.800781 225.347656 C 98.175781 235.855469 83.902344 234.859375 74.1875 233.921875 C 67.886719 233.316406 49.058594 223.675781 49.03125 215.429688 C 49.015625 210.203125 51.042969 211.101562 52.324219 207.78125 C 52.871094 206.363281 51.828125 203.796875 53.148438 200.765625 C 54.589844 197.464844 59.171875 197.332031 57.667969 196.582031 C 52.621094 194.074219 48.246094 191.976562 38.34375 183.972656 C 32.558594 179.292969 29.625 170.464844 35.914062 166.367188 C 46.152344 159.699219 65.171875 181.796875 69.320312 186.445312 C 69.320312 186.445312 68.136719 183.5625 67.855469 182.875 C 65.890625 178.0625 64.8125 172.675781 63.75 167.765625 C 62.984375 164.207031 62.050781 159.589844 63.0625 156.023438 C 63.996094 152.714844 66.226562 149.359375 69.894531 148.796875 C 82.375 146.886719 86.636719 170.3125 87.789062 179.425781 C 87.789062 179.425781 88.550781 182.550781 88.671875 182.632812 Z M 88.671875 182.632812 " fill-opacity="1" fill-rule="evenodd"/></g></g></g></g><g clip-path="url(#2354021fcc)"><g clip-path="url(#fd61a78a93)"><g clip-path="url(#307dd1567c)"><g clip-path="url(#b7d15f47ab)"><path fill="#7e4021" d="M 64.941406 179.351562 C 60.289062 174.527344 53.734375 168.441406 47.542969 165.464844 C 42.96875 163.265625 38.558594 162.765625 35.054688 165.046875 C 31.308594 167.488281 30.261719 171.324219 31.058594 175.265625 C 31.796875 178.898438 34.171875 182.625 37.355469 185.195312 C 45.972656 192.164062 50.46875 194.71875 54.800781 196.910156 C 53.640625 197.652344 52.3125 198.75 51.707031 200.136719 C 50.9375 201.898438 50.84375 203.523438 50.875 204.914062 C 50.894531 205.863281 51.074219 206.652344 50.855469 207.214844 C 50.296875 208.667969 49.539062 209.175781 48.957031 209.914062 C 48.144531 210.945312 47.449219 212.246094 47.457031 215.433594 C 47.464844 217.019531 48.015625 218.660156 49.023438 220.28125 C 50.367188 222.445312 52.546875 224.601562 55.125 226.578125 C 61.417969 231.390625 70.09375 235.109375 74.035156 235.488281 C 79.011719 235.96875 85.15625 236.449219 91.035156 235.480469 C 97.164062 234.464844 102.996094 231.886719 107.074219 226.273438 C 113.671875 217.179688 116.519531 203.238281 114.46875 192.445312 C 113.035156 184.898438 109.207031 178.898438 102.859375 176.765625 C 95.804688 174.402344 92.25 177.199219 90.109375 179.492188 C 89.945312 179.671875 89.765625 179.867188 89.585938 180.0625 L 89.339844 179.125 C 88.621094 173.492188 86.734375 162.703125 82.625 155.359375 C 79.582031 149.921875 75.304688 146.378906 69.65625 147.242188 C 65.359375 147.898438 62.640625 151.722656 61.546875 155.59375 C 60.46875 159.394531 61.394531 164.308594 62.210938 168.097656 C 62.996094 171.730469 63.796875 175.617188 64.941406 179.351562 Z M 87.820312 183.953125 C 88.714844 184.53125 89.746094 184.472656 90.855469 183.378906 C 91.742188 182.503906 92.957031 180.425781 95.421875 179.488281 C 96.984375 178.894531 99.050781 178.808594 101.859375 179.75 C 107.175781 181.535156 110.175781 186.710938 111.375 193.035156 C 113.277344 203.050781 110.648438 215.984375 104.527344 224.421875 C 100.976562 229.3125 95.859375 231.492188 90.519531 232.375 C 84.925781 233.296875 79.074219 232.8125 74.339844 232.355469 C 70.722656 232.007812 62.8125 228.492188 57.039062 224.078125 C 54.792969 222.355469 52.867188 220.503906 51.695312 218.621094 C 51.027344 217.546875 50.609375 216.476562 50.605469 215.421875 C 50.597656 212.449219 51.398438 211.914062 52.238281 210.9375 C 52.777344 210.308594 53.328125 209.558594 53.792969 208.347656 C 54.074219 207.617188 54.09375 206.65625 54.042969 205.507812 C 53.996094 204.363281 53.917969 202.949219 54.59375 201.394531 C 55.214844 199.964844 56.660156 199.375 57.554688 198.96875 C 58.34375 198.613281 58.894531 198.261719 59.109375 198.015625 C 59.558594 197.492188 59.621094 196.945312 59.480469 196.421875 C 59.390625 196.082031 59.148438 195.5625 58.367188 195.175781 C 53.398438 192.703125 49.089844 190.636719 39.332031 182.75 C 36.730469 180.644531 34.746094 177.613281 34.144531 174.640625 C 33.601562 171.96875 34.234375 169.339844 36.773438 167.6875 C 38.464844 166.585938 40.449219 166.488281 42.5625 166.980469 C 44.964844 167.539062 47.503906 168.847656 50.03125 170.527344 C 57.988281 175.808594 65.695312 184.746094 68.144531 187.492188 C 68.65625 188.0625 69.503906 188.183594 70.152344 187.777344 C 70.804688 187.371094 71.066406 186.554688 70.773438 185.847656 C 70.773438 185.847656 69.59375 182.96875 69.3125 182.28125 C 67.382812 177.550781 66.332031 172.257812 65.289062 167.433594 C 64.570312 164.105469 63.628906 159.789062 64.574219 156.449219 C 65.351562 153.707031 67.089844 150.820312 70.128906 150.355469 C 74.464844 149.691406 77.542969 152.722656 79.878906 156.898438 C 83.8125 163.929688 85.554688 174.292969 86.230469 179.625 C 86.234375 179.683594 86.246094 179.742188 86.261719 179.796875 C 86.261719 179.796875 86.921875 182.480469 87.144531 183.078125 C 87.359375 183.644531 87.707031 183.882812 87.820312 183.953125 Z M 87.820312 183.953125 " fill-opacity="1" fill-rule="evenodd"/></g></g></g></g><g clip-path="url(#8de14151f1)"><g clip-path="url(#c707493c7d)"><g clip-path="url(#84658bfece)"><g clip-path="url(#217c767f86)"><path fill="#7e4021" d="M 91.046875 183.054688 C 91.703125 182.5625 91.875 181.636719 91.417969 180.9375 C 90.945312 180.210938 89.96875 180.003906 89.242188 180.480469 C 88.804688 180.761719 88.089844 181.6875 87.425781 182.976562 C 86.199219 185.351562 84.808594 189.015625 84.648438 189.851562 C 83.460938 196.050781 82.601562 204.433594 86.113281 210.097656 C 91.738281 219.175781 101.628906 212.457031 104.148438 205.074219 C 104.429688 204.253906 103.992188 203.359375 103.167969 203.078125 C 102.347656 202.796875 101.453125 203.238281 101.171875 204.058594 C 100.414062 206.277344 98.785156 208.472656 96.839844 209.878906 C 95.28125 211.003906 93.507812 211.640625 91.835938 211.117188 C 90.722656 210.765625 89.691406 209.898438 88.789062 208.441406 C 85.667969 203.410156 86.683594 195.949219 87.742188 190.445312 C 87.882812 189.707031 89.144531 186.507812 90.222656 184.421875 C 90.519531 183.847656 90.996094 183.132812 91.046875 183.054688 Z M 91.046875 183.054688 " fill-opacity="1" fill-rule="evenodd"/></g></g></g></g><g clip-path="url(#a2ddf3d918)"><g clip-path="url(#86f6783327)"><g clip-path="url(#1f251b1c94)"><g clip-path="url(#eaad1b02e7)"><path fill="#7e4021" d="M 71.871094 234.898438 C 73.851562 234.855469 76.558594 234.039062 78.472656 233.484375 C 83.464844 232.035156 86.460938 226.46875 85.429688 221.46875 C 84.613281 217.503906 80.621094 214.363281 75.386719 212.144531 C 68.226562 209.113281 58.824219 207.625 54.015625 207 C 53.152344 206.890625 52.363281 207.5 52.253906 208.359375 C 52.140625 209.222656 52.75 210.011719 53.609375 210.125 C 58.230469 210.722656 67.277344 212.128906 74.160156 215.042969 C 76.34375 215.96875 78.300781 217.042969 79.796875 218.304688 C 81.105469 219.414062 82.046875 220.65625 82.347656 222.105469 C 83.0625 225.566406 81.050781 229.457031 77.59375 230.460938 C 75.910156 230.949219 73.539062 231.710938 71.796875 231.75 C 70.929688 231.773438 70.238281 232.492188 70.257812 233.363281 C 70.28125 234.230469 71 234.917969 71.871094 234.898438 Z M 71.871094 234.898438 " fill-opacity="1" fill-rule="evenodd"/></g></g></g></g><g clip-path="url(#707af1b64c)"><g clip-path="url(#e3bfd687be)"><g clip-path="url(#19cb69ce5c)"><g clip-path="url(#66a9972bcb)"><path fill="#7e4021" d="M 79.730469 216.941406 C 80.585938 216.832031 81.445312 216.613281 82.261719 216.335938 C 84.714844 215.503906 86.773438 213.753906 87.074219 211.035156 C 87.445312 207.746094 85.496094 204.890625 82.140625 202.632812 C 75.390625 198.085938 62.824219 195.863281 58.007812 195.652344 C 57.140625 195.613281 56.40625 196.289062 56.367188 197.15625 C 56.328125 198.023438 57.003906 198.757812 57.871094 198.796875 C 61.738281 198.964844 70.949219 200.5 77.484375 203.613281 C 79.53125 204.589844 81.308594 205.710938 82.515625 207.023438 C 83.511719 208.109375 84.101562 209.3125 83.945312 210.6875 C 83.785156 212.125 82.550781 212.914062 81.25 213.355469 C 80.632812 213.5625 79.980469 213.738281 79.332031 213.820312 C 78.472656 213.929688 77.859375 214.71875 77.96875 215.578125 C 78.078125 216.441406 78.867188 217.050781 79.730469 216.941406 Z M 79.730469 216.941406 " fill-opacity="1" fill-rule="evenodd"/></g></g></g></g></svg>