<svg xmlns="http://www.w3.org/2000/svg" xmlns:xlink="http://www.w3.org/1999/xlink" width="500" zoomAndPan="magnify" viewBox="0 0 375 374.999991" height="500" preserveAspectRatio="xMidYMid meet" version="1.0"><defs><filter x="0%" y="0%" width="100%" height="100%" id="3681d1bf54"><feColorMatrix values="0 0 0 0 1 0 0 0 0 1 0 0 0 0 1 0 0 0 1 0" color-interpolation-filters="sRGB"/></filter><g/><clipPath id="2b90301f7c"><path d="M 90 34 L 308 34 L 308 257 L 90 257 Z M 90 34 " clip-rule="nonzero"/></clipPath><clipPath id="b13c0e7064"><path d="M 81.96875 20.609375 L 321.902344 26.316406 L 315.394531 299.988281 L 75.464844 294.28125 Z M 81.96875 20.609375 " clip-rule="nonzero"/></clipPath><clipPath id="41376ec15d"><path d="M 81.96875 20.609375 L 321.902344 26.316406 L 315.394531 299.988281 L 75.464844 294.28125 Z M 81.96875 20.609375 " clip-rule="nonzero"/></clipPath><clipPath id="fbcf45dffd"><path d="M 81.96875 20.609375 L 321.902344 26.316406 L 315.394531 299.988281 L 75.464844 294.28125 Z M 81.96875 20.609375 " clip-rule="nonzero"/></clipPath><clipPath id="5bacb25f2a"><path d="M 89 33 L 309 33 L 309 258 L 89 258 Z M 89 33 " clip-rule="nonzero"/></clipPath><clipPath id="4374d75a4a"><path d="M 81.96875 20.609375 L 321.902344 26.316406 L 315.394531 299.988281 L 75.464844 294.28125 Z M 81.96875 20.609375 " clip-rule="nonzero"/></clipPath><clipPath id="a1a68f57fe"><path d="M 81.96875 20.609375 L 321.902344 26.316406 L 315.394531 299.988281 L 75.464844 294.28125 Z M 81.96875 20.609375 " clip-rule="nonzero"/></clipPath><clipPath id="9b282e3e96"><path d="M 81.96875 20.609375 L 321.902344 26.316406 L 315.394531 299.988281 L 75.464844 294.28125 Z M 81.96875 20.609375 " clip-rule="nonzero"/></clipPath><clipPath id="278decc054"><path d="M 207 190 L 231 190 L 231 297 L 207 297 Z M 207 190 " clip-rule="nonzero"/></clipPath><clipPath id="71cb4d9b5c"><path d="M 81.96875 20.609375 L 321.902344 26.316406 L 315.394531 299.988281 L 75.464844 294.28125 Z M 81.96875 20.609375 " clip-rule="nonzero"/></clipPath><clipPath id="81e4ac8b17"><path d="M 81.96875 20.609375 L 321.902344 26.316406 L 315.394531 299.988281 L 75.464844 294.28125 Z M 81.96875 20.609375 " clip-rule="nonzero"/></clipPath><clipPath id="bc5feed791"><path d="M 81.96875 20.609375 L 321.902344 26.316406 L 315.394531 299.988281 L 75.464844 294.28125 Z M 81.96875 20.609375 " clip-rule="nonzero"/></clipPath><clipPath id="f80becb8a5"><path d="M 205 189 L 232 189 L 232 298 L 205 298 Z M 205 189 " clip-rule="nonzero"/></clipPath><clipPath id="13e1fcf37f"><path d="M 81.96875 20.609375 L 321.902344 26.316406 L 315.394531 299.988281 L 75.464844 294.28125 Z M 81.96875 20.609375 " clip-rule="nonzero"/></clipPath><clipPath id="92b48d1e0c"><path d="M 81.96875 20.609375 L 321.902344 26.316406 L 315.394531 299.988281 L 75.464844 294.28125 Z M 81.96875 20.609375 " clip-rule="nonzero"/></clipPath><clipPath id="4a081cbcc3"><path d="M 81.96875 20.609375 L 321.902344 26.316406 L 315.394531 299.988281 L 75.464844 294.28125 Z M 81.96875 20.609375 " clip-rule="nonzero"/></clipPath><clipPath id="7c4db8c646"><path d="M 92 28 L 310 28 L 310 250 L 92 250 Z M 92 28 " clip-rule="nonzero"/></clipPath><clipPath id="8a780711d8"><path d="M 81.96875 20.609375 L 321.902344 26.316406 L 315.394531 299.988281 L 75.464844 294.28125 Z M 81.96875 20.609375 " clip-rule="nonzero"/></clipPath><clipPath id="3468edc93e"><path d="M 81.96875 20.609375 L 321.902344 26.316406 L 315.394531 299.988281 L 75.464844 294.28125 Z M 81.96875 20.609375 " clip-rule="nonzero"/></clipPath><clipPath id="abf944235e"><path d="M 81.96875 20.609375 L 321.902344 26.316406 L 315.394531 299.988281 L 75.464844 294.28125 Z M 81.96875 20.609375 " clip-rule="nonzero"/></clipPath><clipPath id="a4fe8c0a21"><path d="M 91 27 L 311 27 L 311 251 L 91 251 Z M 91 27 " clip-rule="nonzero"/></clipPath><clipPath id="ede83f2361"><path d="M 81.96875 20.609375 L 321.902344 26.316406 L 315.394531 299.988281 L 75.464844 294.28125 Z M 81.96875 20.609375 " clip-rule="nonzero"/></clipPath><clipPath id="b0000e91b7"><path d="M 81.96875 20.609375 L 321.902344 26.316406 L 315.394531 299.988281 L 75.464844 294.28125 Z M 81.96875 20.609375 " clip-rule="nonzero"/></clipPath><clipPath id="c01376b207"><path d="M 81.96875 20.609375 L 321.902344 26.316406 L 315.394531 299.988281 L 75.464844 294.28125 Z M 81.96875 20.609375 " clip-rule="nonzero"/></clipPath><clipPath id="71f781c780"><path d="M 239 61 L 252 61 L 252 74 L 239 74 Z M 239 61 " clip-rule="nonzero"/></clipPath><clipPath id="1bdf80595f"><path d="M 81.96875 20.609375 L 321.902344 26.316406 L 315.394531 299.988281 L 75.464844 294.28125 Z M 81.96875 20.609375 " clip-rule="nonzero"/></clipPath><clipPath id="8418794a31"><path d="M 81.96875 20.609375 L 321.902344 26.316406 L 315.394531 299.988281 L 75.464844 294.28125 Z M 81.96875 20.609375 " clip-rule="nonzero"/></clipPath><clipPath id="b0d873cdbd"><path d="M 81.96875 20.609375 L 321.902344 26.316406 L 315.394531 299.988281 L 75.464844 294.28125 Z M 81.96875 20.609375 " clip-rule="nonzero"/></clipPath><clipPath id="e45bea4a7a"><path d="M 209 57 L 212 57 L 212 61 L 209 61 Z M 209 57 " clip-rule="nonzero"/></clipPath><clipPath id="d13796e070"><path d="M 81.96875 20.609375 L 321.902344 26.316406 L 315.394531 299.988281 L 75.464844 294.28125 Z M 81.96875 20.609375 " clip-rule="nonzero"/></clipPath><clipPath id="9d1222ff44"><path d="M 81.96875 20.609375 L 321.902344 26.316406 L 315.394531 299.988281 L 75.464844 294.28125 Z M 81.96875 20.609375 " clip-rule="nonzero"/></clipPath><clipPath id="0134c7c073"><path d="M 81.96875 20.609375 L 321.902344 26.316406 L 315.394531 299.988281 L 75.464844 294.28125 Z M 81.96875 20.609375 " clip-rule="nonzero"/></clipPath><clipPath id="0710fbcd82"><path d="M 248 52 L 252 52 L 252 56 L 248 56 Z M 248 52 " clip-rule="nonzero"/></clipPath><clipPath id="c757b00f71"><path d="M 81.96875 20.609375 L 321.902344 26.316406 L 315.394531 299.988281 L 75.464844 294.28125 Z M 81.96875 20.609375 " clip-rule="nonzero"/></clipPath><clipPath id="949550cb9e"><path d="M 81.96875 20.609375 L 321.902344 26.316406 L 315.394531 299.988281 L 75.464844 294.28125 Z M 81.96875 20.609375 " clip-rule="nonzero"/></clipPath><clipPath id="1a664a6cfb"><path d="M 81.96875 20.609375 L 321.902344 26.316406 L 315.394531 299.988281 L 75.464844 294.28125 Z M 81.96875 20.609375 " clip-rule="nonzero"/></clipPath><clipPath id="f6f3690a59"><path d="M 253 59 L 257 59 L 257 62 L 253 62 Z M 253 59 " clip-rule="nonzero"/></clipPath><clipPath id="3c39319d68"><path d="M 81.96875 20.609375 L 321.902344 26.316406 L 315.394531 299.988281 L 75.464844 294.28125 Z M 81.96875 20.609375 " clip-rule="nonzero"/></clipPath><clipPath id="5578cf079a"><path d="M 81.96875 20.609375 L 321.902344 26.316406 L 315.394531 299.988281 L 75.464844 294.28125 Z M 81.96875 20.609375 " clip-rule="nonzero"/></clipPath><clipPath id="ffb9d96aa9"><path d="M 81.96875 20.609375 L 321.902344 26.316406 L 315.394531 299.988281 L 75.464844 294.28125 Z M 81.96875 20.609375 " clip-rule="nonzero"/></clipPath><clipPath id="1e1c1f227f"><path d="M 221 38 L 243 38 L 243 60 L 221 60 Z M 221 38 " clip-rule="nonzero"/></clipPath><clipPath id="ce9a78e38b"><path d="M 81.96875 20.609375 L 321.902344 26.316406 L 315.394531 299.988281 L 75.464844 294.28125 Z M 81.96875 20.609375 " clip-rule="nonzero"/></clipPath><clipPath id="597ac31333"><path d="M 81.96875 20.609375 L 321.902344 26.316406 L 315.394531 299.988281 L 75.464844 294.28125 Z M 81.96875 20.609375 " clip-rule="nonzero"/></clipPath><clipPath id="7db51f05fa"><path d="M 81.96875 20.609375 L 321.902344 26.316406 L 315.394531 299.988281 L 75.464844 294.28125 Z M 81.96875 20.609375 " clip-rule="nonzero"/></clipPath><clipPath id="55269210bd"><path d="M 271 41 L 307 41 L 307 74 L 271 74 Z M 271 41 " clip-rule="nonzero"/></clipPath><clipPath id="ea7f507ddd"><path d="M 81.96875 20.609375 L 321.902344 26.316406 L 315.394531 299.988281 L 75.464844 294.28125 Z M 81.96875 20.609375 " clip-rule="nonzero"/></clipPath><clipPath id="f67493caff"><path d="M 81.96875 20.609375 L 321.902344 26.316406 L 315.394531 299.988281 L 75.464844 294.28125 Z M 81.96875 20.609375 " clip-rule="nonzero"/></clipPath><clipPath id="c9c0ad863e"><path d="M 81.96875 20.609375 L 321.902344 26.316406 L 315.394531 299.988281 L 75.464844 294.28125 Z M 81.96875 20.609375 " clip-rule="nonzero"/></clipPath><clipPath id="051cc475c3"><path d="M 144 122 L 189 122 L 189 169 L 144 169 Z M 144 122 " clip-rule="nonzero"/></clipPath><clipPath id="c659ea9c40"><path d="M 81.96875 20.609375 L 321.902344 26.316406 L 315.394531 299.988281 L 75.464844 294.28125 Z M 81.96875 20.609375 " clip-rule="nonzero"/></clipPath><clipPath id="92b76702ac"><path d="M 81.96875 20.609375 L 321.902344 26.316406 L 315.394531 299.988281 L 75.464844 294.28125 Z M 81.96875 20.609375 " clip-rule="nonzero"/></clipPath><clipPath id="2a19083538"><path d="M 81.96875 20.609375 L 321.902344 26.316406 L 315.394531 299.988281 L 75.464844 294.28125 Z M 81.96875 20.609375 " clip-rule="nonzero"/></clipPath><clipPath id="8a3a5a8854"><path d="M 143 121 L 190 121 L 190 170 L 143 170 Z M 143 121 " clip-rule="nonzero"/></clipPath><clipPath id="7b33dda51f"><path d="M 81.96875 20.609375 L 321.902344 26.316406 L 315.394531 299.988281 L 75.464844 294.28125 Z M 81.96875 20.609375 " clip-rule="nonzero"/></clipPath><clipPath id="8417ebf59e"><path d="M 81.96875 20.609375 L 321.902344 26.316406 L 315.394531 299.988281 L 75.464844 294.28125 Z M 81.96875 20.609375 " clip-rule="nonzero"/></clipPath><clipPath id="4eab7e4f0d"><path d="M 81.96875 20.609375 L 321.902344 26.316406 L 315.394531 299.988281 L 75.464844 294.28125 Z M 81.96875 20.609375 " clip-rule="nonzero"/></clipPath><clipPath id="73541d3f74"><path d="M 157 123 L 188 123 L 188 167 L 157 167 Z M 157 123 " clip-rule="nonzero"/></clipPath><clipPath id="149974f7b8"><path d="M 81.96875 20.609375 L 321.902344 26.316406 L 315.394531 299.988281 L 75.464844 294.28125 Z M 81.96875 20.609375 " clip-rule="nonzero"/></clipPath><clipPath id="bc092beb99"><path d="M 81.96875 20.609375 L 321.902344 26.316406 L 315.394531 299.988281 L 75.464844 294.28125 Z M 81.96875 20.609375 " clip-rule="nonzero"/></clipPath><clipPath id="43a137f613"><path d="M 81.96875 20.609375 L 321.902344 26.316406 L 315.394531 299.988281 L 75.464844 294.28125 Z M 81.96875 20.609375 " clip-rule="nonzero"/></clipPath><clipPath id="0fa944951a"><path d="M 155 122 L 189 122 L 189 168 L 155 168 Z M 155 122 " clip-rule="nonzero"/></clipPath><clipPath id="b26410acf2"><path d="M 81.96875 20.609375 L 321.902344 26.316406 L 315.394531 299.988281 L 75.464844 294.28125 Z M 81.96875 20.609375 " clip-rule="nonzero"/></clipPath><clipPath id="2339a164e6"><path d="M 81.96875 20.609375 L 321.902344 26.316406 L 315.394531 299.988281 L 75.464844 294.28125 Z M 81.96875 20.609375 " clip-rule="nonzero"/></clipPath><clipPath id="97b644dfb3"><path d="M 81.96875 20.609375 L 321.902344 26.316406 L 315.394531 299.988281 L 75.464844 294.28125 Z M 81.96875 20.609375 " clip-rule="nonzero"/></clipPath><clipPath id="f68bbee99d"><path d="M 210 111 L 235 111 L 235 134 L 210 134 Z M 210 111 " clip-rule="nonzero"/></clipPath><clipPath id="131cb7bb1b"><path d="M 81.96875 20.609375 L 321.902344 26.316406 L 315.394531 299.988281 L 75.464844 294.28125 Z M 81.96875 20.609375 " clip-rule="nonzero"/></clipPath><clipPath id="492908603f"><path d="M 81.96875 20.609375 L 321.902344 26.316406 L 315.394531 299.988281 L 75.464844 294.28125 Z M 81.96875 20.609375 " clip-rule="nonzero"/></clipPath><clipPath id="564bf667ef"><path d="M 81.96875 20.609375 L 321.902344 26.316406 L 315.394531 299.988281 L 75.464844 294.28125 Z M 81.96875 20.609375 " clip-rule="nonzero"/></clipPath><clipPath id="d165e2ea3a"><path d="M 211 126 L 228 126 L 228 134 L 211 134 Z M 211 126 " clip-rule="nonzero"/></clipPath><clipPath id="e7c0a8f00f"><path d="M 81.96875 20.609375 L 321.902344 26.316406 L 315.394531 299.988281 L 75.464844 294.28125 Z M 81.96875 20.609375 " clip-rule="nonzero"/></clipPath><clipPath id="de480884ab"><path d="M 81.96875 20.609375 L 321.902344 26.316406 L 315.394531 299.988281 L 75.464844 294.28125 Z M 81.96875 20.609375 " clip-rule="nonzero"/></clipPath><clipPath id="9497e7fd30"><path d="M 81.96875 20.609375 L 321.902344 26.316406 L 315.394531 299.988281 L 75.464844 294.28125 Z M 81.96875 20.609375 " clip-rule="nonzero"/></clipPath><clipPath id="6c86226375"><path d="M 200 146 L 224 146 L 224 167 L 200 167 Z M 200 146 " clip-rule="nonzero"/></clipPath><clipPath id="f959113ef5"><path d="M 81.96875 20.609375 L 321.902344 26.316406 L 315.394531 299.988281 L 75.464844 294.28125 Z M 81.96875 20.609375 " clip-rule="nonzero"/></clipPath><clipPath id="215f022dc3"><path d="M 81.96875 20.609375 L 321.902344 26.316406 L 315.394531 299.988281 L 75.464844 294.28125 Z M 81.96875 20.609375 " clip-rule="nonzero"/></clipPath><clipPath id="1820b8d72d"><path d="M 81.96875 20.609375 L 321.902344 26.316406 L 315.394531 299.988281 L 75.464844 294.28125 Z M 81.96875 20.609375 " clip-rule="nonzero"/></clipPath><clipPath id="c26b239d62"><path d="M 263 156 L 279 156 L 279 164 L 263 164 Z M 263 156 " clip-rule="nonzero"/></clipPath><clipPath id="51f97280ae"><path d="M 81.96875 20.609375 L 321.902344 26.316406 L 315.394531 299.988281 L 75.464844 294.28125 Z M 81.96875 20.609375 " clip-rule="nonzero"/></clipPath><clipPath id="8116c29b8e"><path d="M 81.96875 20.609375 L 321.902344 26.316406 L 315.394531 299.988281 L 75.464844 294.28125 Z M 81.96875 20.609375 " clip-rule="nonzero"/></clipPath><clipPath id="2ae605c41b"><path d="M 81.96875 20.609375 L 321.902344 26.316406 L 315.394531 299.988281 L 75.464844 294.28125 Z M 81.96875 20.609375 " clip-rule="nonzero"/></clipPath><clipPath id="d9ed554dcf"><path d="M 254 162 L 266 162 L 266 173 L 254 173 Z M 254 162 " clip-rule="nonzero"/></clipPath><clipPath id="d0cde4fb95"><path d="M 81.96875 20.609375 L 321.902344 26.316406 L 315.394531 299.988281 L 75.464844 294.28125 Z M 81.96875 20.609375 " clip-rule="nonzero"/></clipPath><clipPath id="d518495d30"><path d="M 81.96875 20.609375 L 321.902344 26.316406 L 315.394531 299.988281 L 75.464844 294.28125 Z M 81.96875 20.609375 " clip-rule="nonzero"/></clipPath><clipPath id="797c578f6b"><path d="M 81.96875 20.609375 L 321.902344 26.316406 L 315.394531 299.988281 L 75.464844 294.28125 Z M 81.96875 20.609375 " clip-rule="nonzero"/></clipPath><clipPath id="b946e16a17"><path d="M 170 186 L 177 186 L 177 196 L 170 196 Z M 170 186 " clip-rule="nonzero"/></clipPath><clipPath id="d76cc1544e"><path d="M 81.96875 20.609375 L 321.902344 26.316406 L 315.394531 299.988281 L 75.464844 294.28125 Z M 81.96875 20.609375 " clip-rule="nonzero"/></clipPath><clipPath id="009a7e6079"><path d="M 81.96875 20.609375 L 321.902344 26.316406 L 315.394531 299.988281 L 75.464844 294.28125 Z M 81.96875 20.609375 " clip-rule="nonzero"/></clipPath><clipPath id="0e045557da"><path d="M 81.96875 20.609375 L 321.902344 26.316406 L 315.394531 299.988281 L 75.464844 294.28125 Z M 81.96875 20.609375 " clip-rule="nonzero"/></clipPath><clipPath id="af659b0549"><path d="M 148 180 L 163 180 L 163 188 L 148 188 Z M 148 180 " clip-rule="nonzero"/></clipPath><clipPath id="cf2c811b9b"><path d="M 81.96875 20.609375 L 321.902344 26.316406 L 315.394531 299.988281 L 75.464844 294.28125 Z M 81.96875 20.609375 " clip-rule="nonzero"/></clipPath><clipPath id="243777b273"><path d="M 81.96875 20.609375 L 321.902344 26.316406 L 315.394531 299.988281 L 75.464844 294.28125 Z M 81.96875 20.609375 " clip-rule="nonzero"/></clipPath><clipPath id="d7770d631c"><path d="M 81.96875 20.609375 L 321.902344 26.316406 L 315.394531 299.988281 L 75.464844 294.28125 Z M 81.96875 20.609375 " clip-rule="nonzero"/></clipPath><clipPath id="73313b54aa"><path d="M 149 80 L 165 80 L 165 98 L 149 98 Z M 149 80 " clip-rule="nonzero"/></clipPath><clipPath id="84b9ff15a8"><path d="M 81.96875 20.609375 L 321.902344 26.316406 L 315.394531 299.988281 L 75.464844 294.28125 Z M 81.96875 20.609375 " clip-rule="nonzero"/></clipPath><clipPath id="255d0cc938"><path d="M 81.96875 20.609375 L 321.902344 26.316406 L 315.394531 299.988281 L 75.464844 294.28125 Z M 81.96875 20.609375 " clip-rule="nonzero"/></clipPath><clipPath id="1666ab4abc"><path d="M 81.96875 20.609375 L 321.902344 26.316406 L 315.394531 299.988281 L 75.464844 294.28125 Z M 81.96875 20.609375 " clip-rule="nonzero"/></clipPath><clipPath id="58de115866"><path d="M 165 200 L 170 200 L 170 206 L 165 206 Z M 165 200 " clip-rule="nonzero"/></clipPath><clipPath id="3379f36445"><path d="M 81.96875 20.609375 L 321.902344 26.316406 L 315.394531 299.988281 L 75.464844 294.28125 Z M 81.96875 20.609375 " clip-rule="nonzero"/></clipPath><clipPath id="7586572638"><path d="M 81.96875 20.609375 L 321.902344 26.316406 L 315.394531 299.988281 L 75.464844 294.28125 Z M 81.96875 20.609375 " clip-rule="nonzero"/></clipPath><clipPath id="0ab3d05d0a"><path d="M 81.96875 20.609375 L 321.902344 26.316406 L 315.394531 299.988281 L 75.464844 294.28125 Z M 81.96875 20.609375 " clip-rule="nonzero"/></clipPath><clipPath id="acf1c43012"><path d="M 209 281 L 213 281 L 213 292 L 209 292 Z M 209 281 " clip-rule="nonzero"/></clipPath><clipPath id="7ac34c9590"><path d="M 81.96875 20.609375 L 321.902344 26.316406 L 315.394531 299.988281 L 75.464844 294.28125 Z M 81.96875 20.609375 " clip-rule="nonzero"/></clipPath><clipPath id="03527d60a4"><path d="M 81.96875 20.609375 L 321.902344 26.316406 L 315.394531 299.988281 L 75.464844 294.28125 Z M 81.96875 20.609375 " clip-rule="nonzero"/></clipPath><clipPath id="e05c1c880f"><path d="M 81.96875 20.609375 L 321.902344 26.316406 L 315.394531 299.988281 L 75.464844 294.28125 Z M 81.96875 20.609375 " clip-rule="nonzero"/></clipPath><clipPath id="7f4570b4bd"><path d="M 211 272 L 215 272 L 215 279 L 211 279 Z M 211 272 " clip-rule="nonzero"/></clipPath><clipPath id="c59c3dc891"><path d="M 81.96875 20.609375 L 321.902344 26.316406 L 315.394531 299.988281 L 75.464844 294.28125 Z M 81.96875 20.609375 " clip-rule="nonzero"/></clipPath><clipPath id="2840e8163a"><path d="M 81.96875 20.609375 L 321.902344 26.316406 L 315.394531 299.988281 L 75.464844 294.28125 Z M 81.96875 20.609375 " clip-rule="nonzero"/></clipPath><clipPath id="92697e76e3"><path d="M 81.96875 20.609375 L 321.902344 26.316406 L 315.394531 299.988281 L 75.464844 294.28125 Z M 81.96875 20.609375 " clip-rule="nonzero"/></clipPath><clipPath id="588fb23b9a"><path d="M 214 277 L 218 277 L 218 284 L 214 284 Z M 214 277 " clip-rule="nonzero"/></clipPath><clipPath id="cb3f0f058c"><path d="M 81.96875 20.609375 L 321.902344 26.316406 L 315.394531 299.988281 L 75.464844 294.28125 Z M 81.96875 20.609375 " clip-rule="nonzero"/></clipPath><clipPath id="4cf020c6ff"><path d="M 81.96875 20.609375 L 321.902344 26.316406 L 315.394531 299.988281 L 75.464844 294.28125 Z M 81.96875 20.609375 " clip-rule="nonzero"/></clipPath><clipPath id="8fcfe0ffc1"><path d="M 81.96875 20.609375 L 321.902344 26.316406 L 315.394531 299.988281 L 75.464844 294.28125 Z M 81.96875 20.609375 " clip-rule="nonzero"/></clipPath><clipPath id="9fad112bac"><path d="M 84 130 L 148 130 L 148 197 L 84 197 Z M 84 130 " clip-rule="nonzero"/></clipPath><clipPath id="f336acb65f"><path d="M 81.96875 20.609375 L 321.902344 26.316406 L 315.394531 299.988281 L 75.464844 294.28125 Z M 81.96875 20.609375 " clip-rule="nonzero"/></clipPath><clipPath id="c5e382f445"><path d="M 81.96875 20.609375 L 321.902344 26.316406 L 315.394531 299.988281 L 75.464844 294.28125 Z M 81.96875 20.609375 " clip-rule="nonzero"/></clipPath><clipPath id="98b6265d28"><path d="M 81.96875 20.609375 L 321.902344 26.316406 L 315.394531 299.988281 L 75.464844 294.28125 Z M 81.96875 20.609375 " clip-rule="nonzero"/></clipPath><clipPath id="4568810809"><path d="M 83 128 L 149 128 L 149 199 L 83 199 Z M 83 128 " clip-rule="nonzero"/></clipPath><clipPath id="6ae27995ca"><path d="M 81.96875 20.609375 L 321.902344 26.316406 L 315.394531 299.988281 L 75.464844 294.28125 Z M 81.96875 20.609375 " clip-rule="nonzero"/></clipPath><clipPath id="147f8b9ad9"><path d="M 81.96875 20.609375 L 321.902344 26.316406 L 315.394531 299.988281 L 75.464844 294.28125 Z M 81.96875 20.609375 " clip-rule="nonzero"/></clipPath><clipPath id="a9d39f3c4b"><path d="M 81.96875 20.609375 L 321.902344 26.316406 L 315.394531 299.988281 L 75.464844 294.28125 Z M 81.96875 20.609375 " clip-rule="nonzero"/></clipPath><clipPath id="2f4d06d506"><path d="M 124 154 L 141 154 L 141 182 L 124 182 Z M 124 154 " clip-rule="nonzero"/></clipPath><clipPath id="03d5d7a026"><path d="M 81.96875 20.609375 L 321.902344 26.316406 L 315.394531 299.988281 L 75.464844 294.28125 Z M 81.96875 20.609375 " clip-rule="nonzero"/></clipPath><clipPath id="486f2e610d"><path d="M 81.96875 20.609375 L 321.902344 26.316406 L 315.394531 299.988281 L 75.464844 294.28125 Z M 81.96875 20.609375 " clip-rule="nonzero"/></clipPath><clipPath id="f50c535ba2"><path d="M 81.96875 20.609375 L 321.902344 26.316406 L 315.394531 299.988281 L 75.464844 294.28125 Z M 81.96875 20.609375 " clip-rule="nonzero"/></clipPath><clipPath id="bc4e6ad6bc"><path d="M 99 175 L 126 175 L 126 198 L 99 198 Z M 99 175 " clip-rule="nonzero"/></clipPath><clipPath id="0ec4f7eff2"><path d="M 81.96875 20.609375 L 321.902344 26.316406 L 315.394531 299.988281 L 75.464844 294.28125 Z M 81.96875 20.609375 " clip-rule="nonzero"/></clipPath><clipPath id="1179769bae"><path d="M 81.96875 20.609375 L 321.902344 26.316406 L 315.394531 299.988281 L 75.464844 294.28125 Z M 81.96875 20.609375 " clip-rule="nonzero"/></clipPath><clipPath id="fa28fbc023"><path d="M 81.96875 20.609375 L 321.902344 26.316406 L 315.394531 299.988281 L 75.464844 294.28125 Z M 81.96875 20.609375 " clip-rule="nonzero"/></clipPath><clipPath id="9977c92e37"><path d="M 103 166 L 128 166 L 128 184 L 103 184 Z M 103 166 " clip-rule="nonzero"/></clipPath><clipPath id="68e94eaefa"><path d="M 81.96875 20.609375 L 321.902344 26.316406 L 315.394531 299.988281 L 75.464844 294.28125 Z M 81.96875 20.609375 " clip-rule="nonzero"/></clipPath><clipPath id="640d8953d0"><path d="M 81.96875 20.609375 L 321.902344 26.316406 L 315.394531 299.988281 L 75.464844 294.28125 Z M 81.96875 20.609375 " clip-rule="nonzero"/></clipPath><clipPath id="279b575e20"><path d="M 81.96875 20.609375 L 321.902344 26.316406 L 315.394531 299.988281 L 75.464844 294.28125 Z M 81.96875 20.609375 " clip-rule="nonzero"/></clipPath><mask id="8de6185fd8"><g filter="url(#3681d1bf54)"><rect x="-37.5" width="450" fill="#000000" y="-37.499999" height="449.999989" fill-opacity="0.75"/></g></mask><clipPath id="490db7d25c"><rect x="0" width="219" y="0" height="172"/></clipPath></defs><rect x="-37.5" width="450" fill="#ffffff" y="-37.499999" height="449.999989" fill-opacity="1"/><rect x="-37.5" width="450" fill="#91b2ca" y="-37.499999" height="449.999989" fill-opacity="1"/><g clip-path="url(#2b90301f7c)"><g clip-path="url(#b13c0e7064)"><g clip-path="url(#41376ec15d)"><g clip-path="url(#fbcf45dffd)"><path fill="#84b68e" d="M 195.03125 86.742188 C 196.339844 79.972656 198.289062 68.351562 202.320312 59.824219 C 207.726562 48.390625 217.871094 34.957031 230.988281 34.96875 C 243.566406 34.976562 245.195312 47.175781 250.539062 49.617188 C 260.238281 54.046875 271.769531 50.085938 281.941406 56.425781 C 289.757812 61.300781 295.230469 68.773438 297.714844 77.640625 C 303.714844 99.082031 288.882812 116.816406 272.339844 128.191406 C 271.066406 129.066406 267.179688 129.585938 268.363281 130.578125 C 273.5625 134.941406 292.773438 132.855469 303.589844 147.644531 C 306.578125 151.730469 308.101562 156.414062 307.554688 161.46875 C 306.667969 169.644531 300.023438 172.964844 297.710938 179.890625 C 294.398438 189.796875 315.320312 222.773438 274.691406 236.933594 C 237.058594 250.050781 217.214844 194.257812 216.539062 195.839844 C 213.996094 201.78125 214.371094 210.273438 206.714844 226.917969 C 193.914062 254.734375 168.949219 259.660156 148.632812 253.992188 C 139.925781 251.5625 132.386719 244.039062 128.71875 235.945312 C 127.078125 232.332031 125.527344 228.683594 123.425781 225.296875 C 113.992188 210.089844 77.425781 211.777344 101.199219 173.28125 C 110.199219 158.710938 124.859375 149.101562 141.15625 144.511719 C 141.460938 144.425781 145.855469 143.761719 145.882812 143.671875 C 146.027344 143.136719 139.003906 142.074219 138.511719 141.984375 C 121.628906 138.914062 82.351562 129.847656 92.277344 104.246094 C 97.265625 91.375 109.417969 87.363281 117.917969 77.824219 C 126.042969 68.707031 128.707031 56.824219 138.835938 48.957031 C 164.253906 29.222656 190.886719 63.804688 195.03125 86.742188 Z M 195.03125 86.742188 " fill-opacity="1" fill-rule="evenodd"/></g></g></g></g><g clip-path="url(#5bacb25f2a)"><g clip-path="url(#4374d75a4a)"><g clip-path="url(#a1a68f57fe)"><g clip-path="url(#9b282e3e96)"><path fill="#7e4021" d="M 140.210938 143.507812 C 123.863281 148.25 109.203125 157.984375 100.15625 172.636719 C 92.773438 184.589844 91.125 192.832031 92.539062 198.894531 C 93.980469 205.074219 98.601562 209.113281 104.023438 212.539062 C 107.453125 214.703125 111.191406 216.628906 114.546875 218.777344 C 117.742188 220.816406 120.589844 223.050781 122.386719 225.945312 C 124.457031 229.285156 125.984375 232.886719 127.601562 236.453125 C 131.414062 244.859375 139.257812 252.648438 148.304688 255.171875 C 169.125 260.984375 194.710938 255.9375 207.828125 227.429688 C 214.515625 212.890625 215.085938 204.566406 216.8125 198.726562 C 217.199219 199.476562 217.660156 200.371094 218.140625 201.320312 C 221.5 207.929688 227.929688 219.738281 237.320312 228.570312 C 246.902344 237.585938 259.535156 243.511719 275.09375 238.089844 C 287.675781 233.707031 294.503906 227.523438 298.039062 220.8125 C 301.585938 214.078125 301.824219 206.765625 301.097656 200.039062 C 300.53125 194.828125 299.382812 189.980469 298.84375 186.078125 C 298.515625 183.710938 298.386719 181.726562 298.871094 180.28125 C 299.984375 176.949219 302.160156 174.5 304.144531 171.890625 C 306.332031 169.003906 308.300781 165.941406 308.773438 161.601562 C 309.355469 156.234375 307.75 151.257812 304.578125 146.921875 C 297.886719 137.769531 288.101562 134.835938 280.167969 133.019531 C 277.128906 132.320312 274.375 131.792969 272.214844 131.105469 C 271.488281 130.875 270.835938 130.632812 270.273438 130.351562 C 270.445312 130.289062 270.613281 130.226562 270.761719 130.175781 C 271.636719 129.878906 272.515625 129.554688 273.035156 129.199219 C 289.992188 117.542969 305.046875 99.289062 298.894531 77.308594 C 296.328125 68.144531 290.667969 60.421875 282.589844 55.386719 C 277.320312 52.101562 271.707031 51.453125 266.144531 51.082031 C 260.925781 50.738281 255.761719 50.65625 251.046875 48.503906 C 250.136719 48.085938 249.371094 47.316406 248.613281 46.386719 C 247.742188 45.3125 246.902344 44.027344 245.976562 42.707031 C 242.949219 38.386719 239.054688 33.75 230.988281 33.742188 C 225.464844 33.738281 220.429688 35.976562 216.027344 39.460938 C 209.605469 44.539062 204.53125 52.285156 201.210938 59.300781 C 198.089844 65.90625 196.195312 74.339844 194.882812 81.003906 C 191.671875 70.484375 184.671875 58.746094 175.71875 50.925781 C 164.917969 41.488281 151.339844 37.699219 138.085938 47.988281 C 132.886719 52.027344 129.589844 57.082031 126.566406 62.308594 C 123.65625 67.332031 121.007812 72.515625 117 77.007812 C 112.796875 81.726562 107.683594 85.070312 103.011719 88.832031 C 98.125 92.765625 93.714844 97.148438 91.132812 103.804688 C 86.925781 114.652344 91.023438 122.710938 98.644531 128.671875 C 109.585938 137.226562 128.019531 141.324219 138.292969 143.191406 C 138.441406 143.21875 139.21875 143.339844 140.210938 143.507812 Z M 193.824219 86.960938 C 193.929688 87.542969 194.433594 87.964844 195.023438 87.96875 C 195.613281 87.972656 196.121094 87.554688 196.234375 86.976562 C 197.527344 80.28125 199.441406 68.78125 203.429688 60.347656 C 206.597656 53.644531 211.417969 46.230469 217.546875 41.382812 C 221.507812 38.246094 226.015625 36.1875 230.984375 36.191406 C 238.011719 36.199219 241.332031 40.347656 243.96875 44.113281 C 246 47.011719 247.730469 49.679688 250.027344 50.730469 C 255.015625 53.007812 260.464844 53.160156 265.980469 53.527344 C 271.152344 53.871094 276.390625 54.410156 281.292969 57.464844 C 288.847656 62.175781 294.132812 69.402344 296.53125 77.96875 C 302.382812 98.875 287.773438 116.09375 271.644531 127.183594 C 271.269531 127.441406 270.617188 127.640625 269.980469 127.855469 C 269.105469 128.148438 268.246094 128.457031 267.773438 128.773438 C 267.257812 129.117188 267.015625 129.546875 266.941406 129.933594 C 266.851562 130.40625 266.929688 130.976562 267.574219 131.515625 C 268.507812 132.300781 269.835938 132.917969 271.472656 133.441406 C 273.683594 134.144531 276.503906 134.691406 279.621094 135.40625 C 287.074219 137.113281 296.3125 139.773438 302.601562 148.367188 C 305.402344 152.203125 306.851562 156.59375 306.335938 161.339844 C 305.917969 165.175781 304.125 167.859375 302.191406 170.410156 C 300.050781 173.230469 297.75 175.90625 296.546875 179.503906 C 296.105469 180.824219 296.027344 182.511719 296.195312 184.488281 C 296.425781 187.1875 297.109375 190.480469 297.75 194.117188 C 299.175781 202.25 300.421875 212.1875 295.175781 220.902344 C 291.679688 226.710938 285.304688 231.9375 274.289062 235.777344 C 257.898438 241.488281 245.019531 233.621094 235.722656 223.460938 C 226.214844 213.0625 220.40625 200.238281 218.402344 196.394531 C 218.050781 195.714844 217.777344 195.273438 217.613281 195.085938 C 217.429688 194.871094 217.246094 194.757812 217.113281 194.699219 C 216.722656 194.519531 216.378906 194.558594 216.089844 194.679688 C 215.835938 194.785156 215.574219 194.976562 215.410156 195.355469 C 212.871094 201.292969 213.25 209.777344 205.601562 226.40625 C 193.117188 253.535156 168.773438 258.339844 148.964844 252.8125 C 140.589844 250.476562 133.363281 243.222656 129.832031 235.441406 C 128.171875 231.777344 126.597656 228.082031 124.46875 224.652344 C 122.488281 221.464844 119.390625 218.964844 115.871094 216.710938 C 112.511719 214.5625 108.765625 212.636719 105.332031 210.46875 C 100.472656 207.398438 96.21875 203.875 94.925781 198.339844 C 93.605469 192.6875 95.359375 185.066406 102.242188 173.921875 C 111.078125 159.617188 125.484375 150.199219 141.488281 145.691406 C 141.761719 145.613281 145.308594 145.078125 146.035156 144.90625 C 146.851562 144.714844 147.039062 144.089844 147.0625 143.996094 C 147.171875 143.601562 147.164062 142.886719 146.308594 142.421875 C 145.21875 141.828125 139.195312 140.867188 138.730469 140.78125 C 128.746094 138.964844 110.792969 135.058594 100.15625 126.742188 C 93.390625 121.453125 89.683594 114.320312 93.417969 104.691406 C 95.828125 98.472656 99.988281 94.414062 104.550781 90.738281 C 109.324219 86.894531 114.535156 83.460938 118.832031 78.640625 C 122.953125 74.015625 125.695312 68.699219 128.6875 63.535156 C 131.558594 58.574219 134.65625 53.753906 139.589844 49.925781 C 151.75 40.480469 164.195312 44.113281 174.105469 52.769531 C 184.25 61.632812 191.796875 75.722656 193.824219 86.960938 Z M 193.824219 86.960938 " fill-opacity="1" fill-rule="evenodd"/></g></g></g></g><g clip-path="url(#278decc054)"><g clip-path="url(#71cb4d9b5c)"><g clip-path="url(#81e4ac8b17)"><g clip-path="url(#bc5feed791)"><path fill="#84b68e" d="M 218.890625 190.75 C 218.847656 190.496094 218.507812 191.0625 217.597656 194.265625 C 216.960938 196.515625 215.191406 199.351562 215.183594 201.671875 C 215.160156 209.023438 216.480469 216.347656 216.414062 223.730469 C 216.316406 234.355469 215.214844 244.953125 213.503906 255.433594 C 212.269531 262.992188 205.441406 287.144531 207.578125 294.101562 C 208.128906 295.898438 210.25 296.140625 211.867188 296.230469 C 214.980469 296.40625 222.105469 295.675781 224.332031 293.089844 C 232.828125 283.226562 230.742188 219.96875 226.941406 204.21875 C 225.917969 199.980469 221.34375 194.292969 218.890625 190.75 Z M 218.890625 190.75 " fill-opacity="1" fill-rule="evenodd"/></g></g></g></g><g clip-path="url(#f80becb8a5)"><g clip-path="url(#13e1fcf37f)"><g clip-path="url(#92b48d1e0c)"><g clip-path="url(#4a081cbcc3)"><path fill="#7e4021" d="M 219.996094 190.195312 C 219.808594 189.765625 219.453125 189.589844 219.195312 189.519531 C 218.894531 189.433594 218.480469 189.40625 218.042969 189.769531 C 217.949219 189.851562 217.785156 190.007812 217.625 190.320312 C 217.425781 190.710938 217.042969 191.742188 216.417969 193.929688 C 216.042969 195.253906 215.265625 196.78125 214.707031 198.28125 C 214.269531 199.449219 213.964844 200.605469 213.960938 201.667969 C 213.933594 209.015625 215.253906 216.335938 215.1875 223.71875 C 215.089844 234.285156 213.996094 244.816406 212.292969 255.238281 C 211.429688 260.535156 207.820312 273.972656 206.46875 283.945312 C 205.859375 288.4375 205.730469 292.265625 206.40625 294.460938 C 206.804688 295.757812 207.742188 296.527344 208.898438 296.953125 C 209.8125 297.292969 210.875 297.402344 211.800781 297.453125 C 213.757812 297.566406 217.226562 297.335938 220.195312 296.546875 C 222.355469 295.972656 224.242188 295.070312 225.261719 293.886719 C 226.367188 292.605469 227.335938 290.503906 228.128906 287.742188 C 229.242188 283.863281 230.046875 278.628906 230.582031 272.628906 C 232.65625 249.523438 230.808594 215.019531 228.132812 203.929688 C 227.09375 199.628906 222.535156 193.84375 219.996094 190.195312 Z M 219.179688 193.261719 C 221.621094 196.628906 224.914062 201.050781 225.75 204.507812 C 228.394531 215.46875 230.191406 249.574219 228.140625 272.410156 C 227.621094 278.226562 226.851562 283.308594 225.773438 287.070312 C 225.101562 289.402344 224.339844 291.203125 223.40625 292.289062 C 222.640625 293.175781 221.179688 293.75 219.566406 294.179688 C 216.867188 294.894531 213.714844 295.109375 211.9375 295.007812 C 211.242188 294.96875 210.4375 294.914062 209.75 294.65625 C 209.304688 294.492188 208.902344 294.238281 208.75 293.742188 C 208.140625 291.765625 208.347656 288.320312 208.898438 284.273438 C 210.246094 274.324219 213.847656 260.917969 214.710938 255.632812 C 216.433594 245.089844 217.539062 234.429688 217.640625 223.742188 C 217.707031 216.355469 216.386719 209.027344 216.410156 201.675781 C 216.414062 200.65625 216.832031 199.53125 217.289062 198.40625 C 217.832031 197.082031 218.449219 195.765625 218.777344 194.601562 C 218.921875 194.097656 219.054688 193.648438 219.179688 193.261719 Z M 217.925781 191.503906 L 217.882812 191.449219 C 217.78125 191.300781 217.714844 191.136719 217.683594 190.960938 C 217.726562 191.195312 217.8125 191.371094 217.925781 191.503906 Z M 217.925781 191.503906 " fill-opacity="1" fill-rule="evenodd"/></g></g></g></g><g clip-path="url(#7c4db8c646)"><g clip-path="url(#8a780711d8)"><g clip-path="url(#3468edc93e)"><g clip-path="url(#abf944235e)"><path fill="#a8c289" d="M 197.097656 80.128906 C 198.40625 73.359375 200.355469 61.738281 204.386719 53.210938 C 209.789062 41.777344 219.933594 28.34375 233.050781 28.355469 C 245.628906 28.363281 247.261719 40.5625 252.601562 43.003906 C 262.300781 47.433594 273.835938 43.472656 284.003906 49.8125 C 291.820312 54.6875 297.296875 62.160156 299.777344 71.027344 C 305.78125 92.46875 290.949219 110.203125 274.402344 121.578125 C 273.128906 122.453125 269.242188 122.96875 270.425781 123.964844 C 275.628906 128.328125 294.835938 126.242188 305.65625 141.03125 C 308.640625 145.117188 310.167969 149.800781 309.621094 154.855469 C 308.730469 163.03125 302.089844 166.351562 299.773438 173.277344 C 296.464844 183.183594 317.382812 216.160156 276.757812 230.320312 C 239.125 243.433594 219.28125 187.644531 218.601562 189.226562 C 216.058594 195.167969 216.4375 203.660156 208.777344 220.304688 C 195.980469 248.121094 171.015625 253.046875 150.699219 247.378906 C 141.988281 244.949219 134.453125 237.425781 130.78125 229.332031 C 129.144531 225.71875 127.589844 222.070312 125.492188 218.683594 C 116.054688 203.476562 79.488281 205.160156 103.265625 166.667969 C 112.261719 152.097656 126.921875 142.488281 143.222656 137.898438 C 143.527344 137.8125 147.921875 137.148438 147.945312 137.058594 C 148.09375 136.523438 141.066406 135.460938 140.574219 135.371094 C 123.695312 132.300781 84.414062 123.234375 94.339844 97.632812 C 99.332031 84.761719 111.480469 80.75 119.980469 71.210938 C 128.105469 62.09375 130.773438 50.210938 140.902344 42.34375 C 166.316406 22.609375 192.953125 57.1875 197.097656 80.128906 Z M 197.097656 80.128906 " fill-opacity="1" fill-rule="evenodd"/></g></g></g></g><g clip-path="url(#a4fe8c0a21)"><g clip-path="url(#ede83f2361)"><g clip-path="url(#b0000e91b7)"><g clip-path="url(#c01376b207)"><path fill="#7e4021" d="M 142.277344 136.894531 C 125.929688 141.636719 111.269531 151.371094 102.222656 166.023438 C 94.839844 177.976562 93.1875 186.21875 94.605469 192.28125 C 96.046875 198.460938 100.664062 202.5 106.089844 205.925781 C 109.515625 208.089844 113.257812 210.015625 116.613281 212.160156 C 119.808594 214.203125 122.652344 216.4375 124.449219 219.332031 C 126.519531 222.667969 128.046875 226.273438 129.664062 229.839844 C 133.480469 238.246094 141.324219 246.035156 150.371094 248.558594 C 171.1875 254.371094 196.777344 249.324219 209.890625 220.816406 C 216.582031 206.277344 217.148438 197.953125 218.878906 192.113281 C 219.265625 192.863281 219.722656 193.757812 220.207031 194.707031 C 223.5625 201.316406 229.992188 213.125 239.382812 221.957031 C 248.96875 230.972656 261.597656 236.898438 277.160156 231.476562 C 289.742188 227.09375 296.566406 220.910156 300.105469 214.199219 C 303.648438 207.464844 303.890625 200.152344 303.160156 193.425781 C 302.597656 188.214844 301.449219 183.367188 300.910156 179.464844 C 300.582031 177.097656 300.453125 175.113281 300.9375 173.667969 C 302.050781 170.335938 304.226562 167.886719 306.207031 165.273438 C 308.398438 162.390625 310.367188 159.328125 310.835938 154.988281 C 311.421875 149.621094 309.816406 144.644531 306.644531 140.308594 C 299.949219 131.15625 290.167969 128.222656 282.230469 126.402344 C 279.191406 125.707031 276.4375 125.179688 274.277344 124.492188 C 273.554688 124.261719 272.902344 124.019531 272.335938 123.738281 C 272.507812 123.671875 272.675781 123.613281 272.828125 123.5625 C 273.703125 123.265625 274.582031 122.941406 275.097656 122.585938 C 292.058594 110.929688 307.109375 92.675781 300.957031 70.695312 C 298.394531 61.53125 292.734375 53.808594 284.652344 48.773438 C 279.386719 45.488281 273.769531 44.839844 268.207031 44.46875 C 262.992188 44.125 257.828125 44.042969 253.113281 41.890625 C 252.203125 41.472656 251.433594 40.703125 250.675781 39.773438 C 249.804688 38.699219 248.964844 37.414062 248.039062 36.09375 C 245.011719 31.773438 241.121094 27.132812 233.050781 27.128906 C 227.527344 27.125 222.496094 29.363281 218.089844 32.847656 C 211.671875 37.925781 206.59375 45.667969 203.277344 52.6875 C 200.15625 59.292969 198.261719 67.726562 196.949219 74.390625 C 193.738281 63.871094 186.738281 52.132812 177.78125 44.3125 C 166.984375 34.875 153.40625 31.085938 140.148438 41.375 C 134.953125 45.414062 131.65625 50.46875 128.628906 55.695312 C 125.722656 60.71875 123.070312 65.902344 119.066406 70.394531 C 114.863281 75.113281 109.75 78.457031 105.078125 82.21875 C 100.191406 86.152344 95.777344 90.535156 93.199219 97.191406 C 88.992188 108.039062 93.089844 116.097656 100.710938 122.058594 C 111.652344 130.613281 130.085938 134.710938 140.355469 136.578125 C 140.507812 136.605469 141.285156 136.726562 142.277344 136.894531 Z M 195.890625 80.347656 C 195.996094 80.925781 196.5 81.351562 197.089844 81.355469 C 197.679688 81.359375 198.1875 80.941406 198.300781 80.363281 C 199.59375 73.667969 201.507812 62.167969 205.492188 53.734375 C 208.660156 47.03125 213.484375 39.617188 219.613281 34.765625 C 223.574219 31.632812 228.082031 29.574219 233.050781 29.578125 C 240.078125 29.585938 243.394531 33.734375 246.03125 37.5 C 248.0625 40.398438 249.792969 43.066406 252.09375 44.117188 C 257.078125 46.394531 262.53125 46.546875 268.046875 46.914062 C 273.21875 47.257812 278.457031 47.796875 283.355469 50.851562 C 290.910156 55.5625 296.199219 62.785156 298.597656 71.355469 C 304.449219 92.261719 289.839844 109.480469 273.710938 120.566406 C 273.332031 120.824219 272.679688 121.027344 272.042969 121.238281 C 271.167969 121.535156 270.3125 121.839844 269.839844 122.160156 C 269.324219 122.503906 269.078125 122.933594 269.007812 123.320312 C 268.917969 123.792969 268.996094 124.363281 269.640625 124.902344 C 270.574219 125.6875 271.898438 126.304688 273.535156 126.828125 C 275.75 127.53125 278.570312 128.078125 281.683594 128.792969 C 289.136719 130.5 298.378906 133.160156 304.664062 141.753906 C 307.46875 145.589844 308.914062 149.980469 308.402344 154.726562 C 307.984375 158.5625 306.191406 161.246094 304.253906 163.796875 C 302.113281 166.617188 299.8125 169.292969 298.609375 172.890625 C 298.171875 174.210938 298.089844 175.898438 298.257812 177.875 C 298.492188 180.574219 299.175781 183.867188 299.8125 187.503906 C 301.242188 195.636719 302.484375 205.570312 297.238281 214.289062 C 293.746094 220.097656 287.371094 225.324219 276.351562 229.164062 C 259.964844 234.875 247.085938 227.003906 237.789062 216.847656 C 228.277344 206.449219 222.46875 193.625 220.46875 189.78125 C 220.113281 189.101562 219.839844 188.660156 219.679688 188.472656 C 219.492188 188.257812 219.308594 188.144531 219.179688 188.085938 C 218.785156 187.90625 218.441406 187.945312 218.152344 188.066406 C 217.898438 188.171875 217.636719 188.363281 217.476562 188.742188 C 214.933594 194.679688 215.316406 203.164062 207.664062 219.792969 C 195.183594 246.921875 170.839844 251.726562 151.027344 246.199219 C 142.65625 243.863281 135.429688 236.609375 131.898438 228.828125 C 130.238281 225.164062 128.660156 221.46875 126.53125 218.039062 C 124.554688 214.847656 121.457031 212.347656 117.933594 210.097656 C 114.574219 207.949219 110.828125 206.019531 107.398438 203.855469 C 102.535156 200.785156 98.285156 197.261719 96.992188 191.726562 C 95.671875 186.074219 97.425781 178.453125 104.308594 167.308594 C 113.144531 153.003906 127.550781 143.585938 143.554688 139.078125 C 143.828125 139 147.375 138.464844 148.097656 138.292969 C 148.914062 138.101562 149.101562 137.476562 149.128906 137.382812 C 149.238281 136.984375 149.230469 136.273438 148.375 135.808594 C 147.285156 135.214844 141.261719 134.25 140.796875 134.167969 C 130.808594 132.351562 112.859375 128.445312 102.222656 120.128906 C 95.457031 114.839844 91.75 107.707031 95.484375 98.074219 C 97.894531 91.859375 102.050781 87.800781 106.613281 84.125 C 111.390625 80.28125 116.601562 76.847656 120.898438 72.027344 C 125.015625 67.402344 127.761719 62.085938 130.75 56.921875 C 133.621094 51.960938 136.722656 47.140625 141.652344 43.3125 C 153.816406 33.867188 166.261719 37.5 176.167969 46.15625 C 186.316406 55.019531 193.859375 69.109375 195.890625 80.347656 Z M 195.890625 80.347656 " fill-opacity="1" fill-rule="evenodd"/></g></g></g></g><g clip-path="url(#71f781c780)"><g clip-path="url(#1bdf80595f)"><g clip-path="url(#8418794a31)"><g clip-path="url(#b0d873cdbd)"><path fill="#7d3f21" d="M 243.550781 65.824219 C 243.527344 65.832031 243.5 65.824219 243.507812 65.792969 C 243.632812 65.257812 244.078125 64.652344 244.34375 64.175781 C 244.523438 63.84375 245.871094 61.289062 246.207031 61.25 C 247.050781 61.148438 246.867188 65.289062 247.289062 65.796875 C 247.820312 66.441406 251.511719 67.261719 251.511719 67.71875 C 251.515625 68.414062 248.460938 68.5 247.667969 69.140625 C 246.464844 70.113281 246.109375 71.480469 245.296875 72.769531 C 245.160156 72.984375 245.027344 73.355469 244.820312 73.316406 C 244.734375 73.300781 244.671875 72.96875 244.652344 72.910156 C 244.382812 72.027344 244.285156 69.890625 243.550781 69.265625 C 242.730469 68.566406 239.015625 68.015625 239.039062 67.542969 C 239.042969 67.449219 239.226562 67.398438 239.292969 67.378906 C 240.664062 66.976562 242.164062 66.171875 243.550781 65.824219 Z M 243.550781 65.824219 " fill-opacity="1" fill-rule="evenodd"/></g></g></g></g><g clip-path="url(#e45bea4a7a)"><g clip-path="url(#d13796e070)"><g clip-path="url(#9d1222ff44)"><g clip-path="url(#0134c7c073)"><path fill="#7e4021" d="M 210.828125 57.933594 C 210.660156 57.910156 210.488281 57.914062 210.324219 57.953125 C 210.074219 58.007812 209.839844 58.136719 209.648438 58.335938 C 209.148438 58.863281 209.167969 59.699219 209.699219 60.203125 C 210.121094 60.601562 210.457031 60.574219 210.632812 60.570312 C 210.945312 60.566406 211.703125 59.988281 211.722656 59.972656 C 212.109375 59.402344 211.988281 58.621094 211.433594 58.195312 C 211.351562 58.132812 211.265625 58.078125 211.171875 58.039062 C 211.042969 57.972656 210.925781 57.945312 210.828125 57.933594 Z M 211.722656 59.976562 L 211.722656 59.972656 L 211.722656 59.976562 L 211.671875 60.046875 C 211.6875 60.023438 211.707031 60 211.722656 59.976562 Z M 211.171875 58.039062 C 211.0625 57.988281 210.945312 57.953125 210.828125 57.933594 L 210.808594 57.933594 C 210.789062 57.929688 210.773438 57.929688 210.757812 57.929688 L 210.722656 57.929688 C 210.988281 57.953125 211.25 58.054688 211.464844 58.238281 C 211.363281 58.148438 211.265625 58.082031 211.171875 58.039062 Z M 211.171875 58.039062 " fill-opacity="1" fill-rule="evenodd"/></g></g></g></g><g clip-path="url(#0710fbcd82)"><g clip-path="url(#c757b00f71)"><g clip-path="url(#949550cb9e)"><g clip-path="url(#1a664a6cfb)"><path fill="#7e4021" d="M 251.558594 54.128906 C 251.742188 53.332031 251.242188 52.539062 250.449219 52.355469 C 249.652344 52.171875 248.855469 52.667969 248.671875 53.464844 C 248.488281 54.257812 248.984375 55.054688 249.785156 55.238281 C 250.578125 55.417969 251.375 54.925781 251.558594 54.128906 Z M 251.558594 54.128906 " fill-opacity="1" fill-rule="evenodd"/></g></g></g></g><g clip-path="url(#f6f3690a59)"><g clip-path="url(#3c39319d68)"><g clip-path="url(#5578cf079a)"><g clip-path="url(#ffb9d96aa9)"><path fill="#ffffff" d="M 255.992188 60.851562 C 256.175781 60.054688 255.679688 59.261719 254.886719 59.078125 C 254.085938 58.894531 253.289062 59.390625 253.105469 60.1875 C 252.921875 60.980469 253.421875 61.777344 254.222656 61.960938 C 255.011719 62.144531 255.808594 61.648438 255.992188 60.851562 Z M 255.992188 60.851562 " fill-opacity="1" fill-rule="evenodd"/></g></g></g></g><g clip-path="url(#1e1c1f227f)"><g clip-path="url(#ce9a78e38b)"><g clip-path="url(#597ac31333)"><g clip-path="url(#7db51f05fa)"><path fill="#7e4021" d="M 227.273438 51.796875 C 227.273438 51.804688 227.269531 51.808594 227.269531 51.820312 C 227.253906 51.855469 225.449219 50.457031 225.289062 50.324219 C 224.757812 49.890625 221.5625 47.277344 221.746094 46.625 C 221.90625 46.058594 227.582031 45.457031 228.332031 45.007812 C 229.203125 44.488281 228.9375 39.117188 230.042969 38.378906 C 231.003906 37.734375 233.289062 43.238281 233.996094 43.5625 C 235.222656 44.128906 241.824219 43.367188 242.097656 43.882812 C 242.890625 45.367188 237.703125 49.195312 237.101562 50.460938 C 236.945312 50.785156 239.5625 55.886719 239.777344 56.859375 C 239.796875 56.949219 239.914062 57.316406 239.800781 57.382812 C 238.929688 57.890625 234.046875 53.957031 232.613281 53.90625 C 230.515625 53.828125 228.371094 63.191406 227.449219 56.785156 C 227.355469 56.125 227.242188 55.460938 227.226562 54.789062 C 227.207031 53.957031 227.21875 52.632812 227.273438 51.796875 Z M 227.273438 51.796875 " fill-opacity="1" fill-rule="evenodd"/></g></g></g></g><g clip-path="url(#55269210bd)"><g clip-path="url(#ea7f507ddd)"><g clip-path="url(#f67493caff)"><g clip-path="url(#c9c0ad863e)"><path fill="#7d3f21" d="M 294.820312 57.355469 C 297.085938 57.378906 301.5625 59.746094 303.683594 60.65625 C 304.007812 60.796875 306.492188 61.902344 306.488281 62.253906 C 306.484375 62.535156 304.710938 62.214844 303.894531 62.058594 C 301.15625 61.53125 297.0625 60.804688 294.421875 59.917969 C 293.765625 59.699219 294.890625 60.867188 295.078125 61.066406 C 296.820312 62.90625 298.363281 64.898438 299.488281 67.175781 C 299.636719 67.476562 300.753906 69.871094 300.472656 70.074219 C 300.058594 70.375 298.574219 68.511719 298.371094 68.292969 C 296.675781 66.433594 295.09375 64.445312 293.578125 62.433594 C 293.410156 62.214844 292.894531 61.402344 292.585938 61.417969 C 292.492188 61.421875 291.65625 62.894531 291.1875 64.0625 C 290.417969 65.984375 288.765625 68.824219 286.863281 71.121094 C 286.695312 71.324219 285.355469 73.214844 285.007812 73.023438 C 284.550781 72.769531 285.375 70.921875 285.46875 70.636719 C 286.363281 67.9375 287.988281 63.457031 289.449219 61.023438 C 289.8125 60.417969 288.117188 61.4375 287.867188 61.550781 C 285.574219 62.570312 283.191406 63.328125 280.699219 63.664062 C 280.308594 63.714844 277.851562 64.230469 277.675781 63.660156 C 277.480469 63.027344 279.152344 62.277344 279.53125 62.078125 C 281.757812 60.898438 284.074219 60.042969 286.453125 59.242188 C 288.453125 58.566406 288.65625 58.167969 288.640625 58.144531 C 288.632812 58.132812 286.023438 57.507812 285.777344 57.445312 C 282.25 56.589844 278.738281 55.535156 275.410156 54.070312 C 274.960938 53.871094 271.785156 52.402344 271.84375 51.890625 C 271.902344 51.394531 274.5 51.710938 274.808594 51.753906 C 278.230469 52.242188 281.605469 53.160156 284.816406 54.429688 C 285.832031 54.832031 286.835938 55.269531 287.851562 55.683594 C 287.9375 55.71875 288.785156 56.128906 288.855469 55.976562 C 288.898438 55.878906 287.257812 53.796875 287.09375 53.582031 C 285.421875 51.445312 283.878906 49.003906 282.859375 46.484375 C 282.699219 46.089844 281.746094 44.308594 282.0625 43.910156 C 282.414062 43.453125 283.957031 45.136719 284.132812 45.316406 C 285.9375 47.210938 287.585938 49.375 288.960938 51.597656 C 289.433594 52.367188 289.863281 53.152344 290.304688 53.9375 C 290.324219 53.96875 290.46875 54.285156 290.535156 54.257812 C 290.589844 54.234375 291.125 51.378906 291.183594 51.105469 C 291.792969 48.433594 292.902344 45.871094 294.046875 43.390625 C 294.226562 42.996094 294.945312 41.140625 295.488281 41.09375 C 295.863281 41.0625 295.484375 43.101562 295.121094 44.617188 C 294.484375 47.277344 294.308594 49.429688 293.546875 52.050781 C 293.402344 52.550781 293.039062 54.1875 292.871094 54.734375 C 292.789062 55.007812 293.996094 54.414062 294.527344 54.070312 C 296.628906 52.726562 298.695312 51.351562 300.882812 50.148438 C 301.152344 50.003906 302.605469 49.011719 302.917969 49.425781 C 303.285156 49.917969 301.410156 51.433594 301.144531 51.683594 C 298.855469 53.828125 297.460938 55.703125 294.820312 57.355469 Z M 294.820312 57.355469 " fill-opacity="1" fill-rule="evenodd"/></g></g></g></g><g clip-path="url(#051cc475c3)"><g clip-path="url(#c659ea9c40)"><g clip-path="url(#92b76702ac)"><g clip-path="url(#2a19083538)"><path fill="#fdfdfe" d="M 160.886719 124.101562 C 160.886719 124.101562 146.898438 128.277344 144.976562 142.738281 C 143.058594 157.199219 160.847656 178.898438 180.472656 162.007812 C 200.097656 145.113281 177.851562 116.210938 160.886719 124.101562 Z M 160.886719 124.101562 " fill-opacity="1" fill-rule="evenodd"/></g></g></g></g><g clip-path="url(#8a3a5a8854)"><g clip-path="url(#7b33dda51f)"><g clip-path="url(#8417ebf59e)"><g clip-path="url(#4eab7e4f0d)"><path fill="#7e4021" d="M 160.503906 123.113281 C 159.34375 123.484375 145.851562 128.113281 143.929688 142.597656 C 143.226562 147.894531 145.023438 154.125 148.570312 159.222656 C 152.132812 164.335938 157.4375 168.289062 163.65625 169.078125 C 168.976562 169.75 174.988281 168.121094 181.160156 162.808594 C 193.492188 152.195312 190.085938 137.054688 181.511719 128.425781 C 175.75 122.621094 167.675781 119.816406 160.503906 123.113281 Z M 161.1875 125.113281 C 161.238281 125.097656 161.285156 125.082031 161.332031 125.058594 C 167.71875 122.089844 174.875 124.746094 180.011719 129.914062 C 187.8125 137.765625 191.003906 151.546875 179.78125 161.207031 C 174.179688 166.027344 168.75 167.589844 163.921875 166.980469 C 158.296875 166.269531 153.527344 162.640625 150.308594 158.015625 C 147.074219 153.371094 145.386719 147.703125 146.027344 142.875 C 147.855469 129.09375 161.1875 125.113281 161.1875 125.113281 Z M 161.1875 125.113281 " fill-opacity="1" fill-rule="evenodd"/></g></g></g></g><g clip-path="url(#73541d3f74)"><g clip-path="url(#149974f7b8)"><g clip-path="url(#bc092beb99)"><g clip-path="url(#43a137f613)"><path fill="#7e4021" d="M 158.882812 127.222656 C 158.882812 127.222656 149.734375 149.828125 172.410156 166.121094 C 172.410156 166.121094 193.773438 160.269531 185.773438 137.351562 C 180.078125 121.035156 159.03125 121.378906 158.882812 127.222656 Z M 158.882812 127.222656 " fill-opacity="1" fill-rule="evenodd"/></g></g></g></g><g clip-path="url(#0fa944951a)"><g clip-path="url(#b26410acf2)"><g clip-path="url(#2339a164e6)"><g clip-path="url(#97b644dfb3)"><path fill="#7e4021" d="M 157.835938 127 C 157.035156 129.148438 149.574219 151.011719 171.792969 166.980469 C 172.054688 167.164062 172.382812 167.226562 172.691406 167.140625 C 172.691406 167.140625 183.6875 164.113281 187.40625 154.039062 C 188.988281 149.753906 189.277344 144.179688 186.769531 137.003906 C 182.574219 124.984375 170.453125 121.574219 163.511719 122.707031 C 161.566406 123.023438 160.007812 123.707031 159.050781 124.605469 C 158.328125 125.289062 157.910156 126.097656 157.835938 127 Z M 159.863281 127.617188 C 159.910156 127.5 159.9375 127.375 159.941406 127.25 C 159.953125 126.691406 160.3125 126.242188 160.847656 125.867188 C 161.578125 125.351562 162.621094 124.992188 163.851562 124.792969 C 170.101562 123.773438 180.996094 126.878906 184.773438 137.699219 C 187.070312 144.273438 186.871094 149.378906 185.421875 153.304688 C 182.507812 161.207031 174.617188 164.285156 172.605469 164.953125 C 151.183594 149.199219 159.863281 127.617188 159.863281 127.617188 Z M 159.863281 127.617188 " fill-opacity="1" fill-rule="evenodd"/></g></g></g></g><g clip-path="url(#f68bbee99d)"><g clip-path="url(#131cb7bb1b)"><g clip-path="url(#492908603f)"><g clip-path="url(#564bf667ef)"><path fill="#7e4021" d="M 212.914062 131.730469 C 213.011719 131.503906 213.554688 130.222656 213.695312 129.90625 C 217.179688 122.125 225.050781 115.164062 233.738281 114.125 C 234.410156 114.046875 234.890625 113.4375 234.808594 112.765625 C 234.726562 112.09375 234.117188 111.613281 233.445312 111.695312 C 223.9375 112.828125 215.273438 120.386719 211.457031 128.90625 C 211.277344 129.3125 210.722656 130.296875 210.535156 131.082031 C 210.375 131.753906 210.460938 132.34375 210.699219 132.75 C 211.042969 133.332031 211.792969 133.527344 212.375 133.183594 C 212.886719 132.882812 213.101562 132.269531 212.914062 131.730469 Z M 212.914062 131.730469 " fill-opacity="1" fill-rule="evenodd"/></g></g></g></g><g clip-path="url(#d165e2ea3a)"><g clip-path="url(#e7c0a8f00f)"><g clip-path="url(#de480884ab)"><g clip-path="url(#9497e7fd30)"><path fill="#7e4021" d="M 226.960938 127.503906 C 226.597656 127.222656 226.0625 127 225.363281 126.910156 C 224.628906 126.816406 223.664062 126.851562 222.582031 126.996094 C 219.859375 127.359375 216.320312 128.417969 214 129.484375 C 212.863281 130.003906 212 130.554688 211.5625 131.015625 C 211.097656 131.503906 211.117188 132.28125 211.609375 132.746094 C 212.097656 133.210938 212.875 133.191406 213.339844 132.703125 C 213.636719 132.390625 214.25 132.0625 215.023438 131.710938 C 217.152344 130.734375 220.40625 129.757812 222.90625 129.425781 C 223.617188 129.328125 224.261719 129.285156 224.789062 129.316406 C 225.074219 129.335938 225.3125 129.328125 225.445312 129.429688 C 225.980469 129.847656 226.75 129.753906 227.167969 129.222656 C 227.585938 128.691406 227.492188 127.921875 226.960938 127.503906 Z M 226.960938 127.503906 " fill-opacity="1" fill-rule="evenodd"/></g></g></g></g><g clip-path="url(#6c86226375)"><g clip-path="url(#f959113ef5)"><g clip-path="url(#215f022dc3)"><g clip-path="url(#1820b8d72d)"><path fill="#7e4021" d="M 202.050781 166.90625 C 202.097656 166.902344 202.148438 166.894531 202.199219 166.882812 C 204.457031 166.4375 206.683594 165.921875 208.78125 164.9375 C 215.570312 161.757812 222.195312 156.15625 223.554688 148.335938 C 223.671875 147.667969 223.222656 147.035156 222.558594 146.917969 C 221.890625 146.800781 221.253906 147.25 221.140625 147.914062 C 219.917969 154.945312 213.839844 159.863281 207.738281 162.71875 C 205.824219 163.617188 203.789062 164.074219 201.722656 164.480469 C 201.777344 164.46875 201.835938 164.476562 201.835938 164.476562 C 201.835938 164.476562 201.335938 164.535156 201.28125 164.554688 C 200.894531 164.703125 200.707031 164.964844 200.601562 165.203125 C 200.5625 165.292969 200.164062 166.175781 201.109375 166.757812 C 201.402344 166.941406 201.742188 166.984375 202.050781 166.90625 Z M 202.460938 164.714844 C 202.621094 164.828125 202.746094 164.972656 202.832031 165.136719 C 202.777344 165.011719 202.667969 164.859375 202.460938 164.714844 Z M 202.460938 164.714844 " fill-opacity="1" fill-rule="evenodd"/></g></g></g></g><g clip-path="url(#c26b239d62)"><g clip-path="url(#51f97280ae)"><g clip-path="url(#8116c29b8e)"><g clip-path="url(#2ae605c41b)"><path fill="#7e4021" d="M 264.347656 158.703125 C 264.523438 158.820312 264.902344 159.066406 264.96875 159.101562 C 268.542969 160.988281 272.648438 162.398438 276.539062 163.433594 C 277.195312 163.609375 277.867188 163.21875 278.039062 162.566406 C 278.214844 161.914062 277.824219 161.242188 277.171875 161.066406 C 273.46875 160.078125 269.554688 158.746094 266.148438 156.953125 C 266.03125 156.875 265.359375 156.429688 265.066406 156.332031 C 264.507812 156.148438 264.070312 156.3125 263.808594 156.5 C 263.261719 156.898438 263.140625 157.664062 263.535156 158.210938 C 263.738281 158.488281 264.035156 158.65625 264.347656 158.703125 Z M 264.347656 158.703125 " fill-opacity="1" fill-rule="evenodd"/></g></g></g></g><g clip-path="url(#d9ed554dcf)"><g clip-path="url(#d0cde4fb95)"><g clip-path="url(#d518495d30)"><g clip-path="url(#797c578f6b)"><path fill="#7e4021" d="M 254.714844 164.46875 C 255 165.78125 256.199219 167.164062 257.792969 168.386719 C 259.804688 169.925781 262.414062 171.277344 263.714844 172.140625 C 264.277344 172.515625 265.039062 172.359375 265.414062 171.796875 C 265.789062 171.234375 265.632812 170.472656 265.070312 170.101562 C 263.800781 169.257812 261.246094 167.945312 259.28125 166.441406 C 258.222656 165.628906 257.300781 164.820312 257.109375 163.949219 C 256.96875 163.289062 256.3125 162.867188 255.652344 163.011719 C 254.992188 163.152344 254.570312 163.804688 254.714844 164.46875 Z M 254.714844 164.46875 " fill-opacity="1" fill-rule="evenodd"/></g></g></g></g><g clip-path="url(#b946e16a17)"><g clip-path="url(#d76cc1544e)"><g clip-path="url(#009a7e6079)"><g clip-path="url(#0e045557da)"><path fill="#7e4021" d="M 172.753906 195.113281 L 172.804688 195.015625 C 173.394531 193.949219 176.476562 188.628906 176.804688 188.097656 C 177.160156 187.523438 176.980469 186.765625 176.40625 186.410156 C 175.832031 186.054688 175.074219 186.234375 174.71875 186.808594 C 174.386719 187.351562 171.257812 192.75 170.660156 193.828125 C 170.53125 194.0625 170.476562 194.210938 170.46875 194.238281 C 170.316406 194.707031 170.472656 195.015625 170.527344 195.132812 C 170.699219 195.496094 170.976562 195.695312 171.304688 195.789062 C 171.898438 195.953125 172.507812 195.65625 172.753906 195.113281 Z M 172.753906 195.113281 " fill-opacity="1" fill-rule="evenodd"/></g></g></g></g><g clip-path="url(#af659b0549)"><g clip-path="url(#cf2c811b9b)"><g clip-path="url(#243777b273)"><g clip-path="url(#d7770d631c)"><path fill="#7e4021" d="M 150.449219 187.386719 C 151.242188 187.28125 152.660156 187.070312 153.207031 186.882812 C 156.203125 185.855469 159.207031 184.523438 162 183.042969 C 162.597656 182.726562 162.828125 181.984375 162.511719 181.386719 C 162.195312 180.789062 161.449219 180.558594 160.855469 180.878906 C 158.171875 182.296875 155.289062 183.578125 152.414062 184.5625 C 151.835938 184.761719 150.625 184.832031 149.835938 184.96875 C 149.164062 185.085938 148.679688 185.316406 148.480469 185.488281 C 148.070312 185.851562 147.96875 186.28125 148.039062 186.707031 C 148.082031 186.976562 148.226562 187.410156 148.820312 187.757812 C 149.382812 188.082031 150.09375 187.914062 150.449219 187.386719 Z M 150.449219 187.386719 " fill-opacity="1" fill-rule="evenodd"/></g></g></g></g><g clip-path="url(#73313b54aa)"><g clip-path="url(#84b9ff15a8)"><g clip-path="url(#255d0cc938)"><g clip-path="url(#1666ab4abc)"><path fill="#7e4021" d="M 151.796875 81.871094 C 151.796875 81.660156 151.742188 81.441406 151.625 81.246094 C 151.277344 80.664062 150.527344 80.472656 149.945312 80.820312 C 149.609375 81.019531 149.128906 81.515625 149.375 82.421875 C 149.691406 83.601562 153.03125 88.492188 153.320312 88.863281 C 155.8125 92.070312 158.804688 95.058594 162.191406 97.316406 C 162.753906 97.691406 163.515625 97.539062 163.890625 96.976562 C 164.265625 96.414062 164.113281 95.652344 163.550781 95.277344 C 160.382812 93.167969 157.589844 90.363281 155.257812 87.359375 C 155.023438 87.0625 152.230469 82.570312 151.796875 81.871094 Z M 151.246094 82.894531 L 151.199219 82.925781 C 151.214844 82.914062 151.230469 82.90625 151.246094 82.894531 Z M 151.300781 82.855469 L 151.253906 82.886719 Z M 151.398438 82.777344 L 151.433594 82.742188 C 151.394531 82.78125 151.347656 82.820312 151.300781 82.855469 L 151.351562 82.816406 C 151.367188 82.804688 151.382812 82.789062 151.398438 82.777344 Z M 151.464844 82.710938 L 151.460938 82.714844 Z M 151.464844 82.710938 " fill-opacity="1" fill-rule="evenodd"/></g></g></g></g><g clip-path="url(#58de115866)"><g clip-path="url(#3379f36445)"><g clip-path="url(#7586572638)"><g clip-path="url(#0ab3d05d0a)"><path fill="#7e4021" d="M 167.171875 201.289062 C 166.84375 202.308594 166.421875 203.3125 166.050781 204.316406 C 165.816406 204.953125 166.144531 205.65625 166.777344 205.890625 C 167.414062 206.125 168.117188 205.796875 168.351562 205.164062 C 168.734375 204.125 169.164062 203.09375 169.503906 202.046875 C 169.714844 201.402344 169.359375 200.710938 168.714844 200.503906 C 168.074219 200.292969 167.382812 200.648438 167.171875 201.289062 Z M 167.171875 201.289062 " fill-opacity="1" fill-rule="evenodd"/></g></g></g></g><g clip-path="url(#acf1c43012)"><g clip-path="url(#7ac34c9590)"><g clip-path="url(#03527d60a4)"><g clip-path="url(#e05c1c880f)"><path fill="#7e4021" d="M 212.113281 291.207031 C 212.539062 290.246094 212.734375 288.992188 212.808594 287.667969 C 212.902344 285.945312 212.792969 284.085938 212.941406 282.738281 C 213.015625 282.066406 212.53125 281.460938 211.859375 281.386719 C 211.1875 281.316406 210.578125 281.800781 210.507812 282.472656 C 210.378906 283.640625 210.425781 285.175781 210.390625 286.691406 C 210.359375 287.996094 210.285156 289.285156 209.871094 290.214844 C 209.597656 290.832031 209.878906 291.558594 210.496094 291.832031 C 211.113281 292.105469 211.839844 291.824219 212.113281 291.207031 Z M 212.113281 291.207031 " fill-opacity="1" fill-rule="evenodd"/></g></g></g></g><g clip-path="url(#7f4570b4bd)"><g clip-path="url(#c59c3dc891)"><g clip-path="url(#2840e8163a)"><g clip-path="url(#92697e76e3)"><path fill="#7e4021" d="M 213.578125 278.308594 C 213.820312 277.847656 213.972656 277.210938 214.050781 276.519531 C 214.136719 275.753906 214.136719 274.910156 214.222656 274.339844 C 214.320312 273.671875 213.859375 273.046875 213.191406 272.949219 C 212.519531 272.851562 211.898438 273.3125 211.796875 273.980469 C 211.722656 274.488281 211.703125 275.195312 211.648438 275.886719 C 211.609375 276.367188 211.578125 276.84375 211.414062 277.160156 C 211.09375 277.753906 211.320312 278.496094 211.917969 278.816406 C 212.515625 279.132812 213.257812 278.90625 213.578125 278.308594 Z M 213.578125 278.308594 " fill-opacity="1" fill-rule="evenodd"/></g></g></g></g><g clip-path="url(#588fb23b9a)"><g clip-path="url(#cb3f0f058c)"><g clip-path="url(#4cf020c6ff)"><g clip-path="url(#8fcfe0ffc1)"><path fill="#7e4021" d="M 214.90625 278.832031 C 215.003906 279.039062 214.929688 279.378906 214.890625 279.75 C 214.78125 280.722656 214.535156 281.804688 214.5 282.386719 C 214.457031 283.0625 214.972656 283.644531 215.648438 283.683594 C 216.324219 283.726562 216.90625 283.210938 216.945312 282.535156 C 216.984375 281.871094 217.316406 280.53125 217.371094 279.484375 C 217.40625 278.800781 217.316406 278.207031 217.132812 277.800781 C 216.847656 277.1875 216.117188 276.921875 215.503906 277.203125 C 214.890625 277.488281 214.621094 278.21875 214.90625 278.832031 Z M 214.90625 278.832031 " fill-opacity="1" fill-rule="evenodd"/></g></g></g></g><g clip-path="url(#9fad112bac)"><g clip-path="url(#f336acb65f)"><g clip-path="url(#c5e382f445)"><g clip-path="url(#98b6265d28)"><path fill="#ffffff" d="M 128.359375 156.632812 C 129.648438 157.464844 131.058594 150.5625 139.015625 153.230469 C 150.367188 157.039062 149.949219 178.507812 141.695312 189.878906 C 135.757812 198.054688 124.644531 197.28125 117.082031 196.550781 C 112.175781 196.078125 97.515625 188.574219 97.496094 182.15625 C 97.484375 178.089844 99.0625 178.789062 100.058594 176.207031 C 100.484375 175.101562 99.671875 173.105469 100.703125 170.746094 C 101.820312 168.175781 105.390625 168.074219 104.21875 167.492188 C 100.292969 165.539062 96.882812 163.90625 89.175781 157.675781 C 84.667969 154.035156 82.386719 147.164062 87.28125 143.976562 C 95.253906 138.785156 110.0625 155.984375 113.289062 159.601562 C 113.289062 159.601562 112.371094 157.355469 112.152344 156.824219 C 110.621094 153.078125 109.78125 148.886719 108.957031 145.066406 C 108.359375 142.292969 107.632812 138.703125 108.417969 135.921875 C 109.144531 133.351562 110.882812 130.738281 113.738281 130.300781 C 123.453125 128.816406 126.773438 147.046875 127.671875 154.136719 C 127.671875 154.136719 128.265625 156.570312 128.359375 156.632812 Z M 128.359375 156.632812 " fill-opacity="1" fill-rule="evenodd"/></g></g></g></g><g clip-path="url(#4568810809)"><g clip-path="url(#6ae27995ca)"><g clip-path="url(#147f8b9ad9)"><g clip-path="url(#a9d39f3c4b)"><path fill="#7e4021" d="M 109.882812 154.078125 C 106.257812 150.328125 101.15625 145.589844 96.335938 143.273438 C 92.773438 141.5625 89.339844 141.171875 86.613281 142.949219 C 83.695312 144.847656 82.878906 147.832031 83.5 150.898438 C 84.074219 153.726562 85.925781 156.628906 88.402344 158.628906 C 95.113281 164.050781 98.613281 166.039062 101.988281 167.746094 C 101.085938 168.324219 100.050781 169.175781 99.578125 170.253906 C 98.980469 171.628906 98.90625 172.890625 98.929688 173.972656 C 98.945312 174.710938 99.085938 175.328125 98.917969 175.765625 C 98.480469 176.894531 97.890625 177.292969 97.4375 177.867188 C 96.804688 178.667969 96.261719 179.679688 96.269531 182.160156 C 96.273438 183.394531 96.703125 184.671875 97.488281 185.933594 C 98.535156 187.617188 100.234375 189.296875 102.242188 190.832031 C 107.140625 194.578125 113.894531 197.472656 116.964844 197.769531 C 120.839844 198.144531 125.621094 198.519531 130.199219 197.761719 C 134.972656 196.972656 139.511719 194.96875 142.6875 190.597656 C 147.824219 183.519531 150.042969 172.671875 148.445312 164.273438 C 147.328125 158.394531 144.347656 153.726562 139.40625 152.070312 C 133.914062 150.226562 131.144531 152.40625 129.480469 154.191406 C 129.347656 154.328125 129.210938 154.480469 129.070312 154.632812 L 128.878906 153.90625 C 128.320312 149.523438 126.851562 141.125 123.652344 135.410156 C 121.28125 131.175781 117.953125 128.417969 113.550781 129.089844 C 110.207031 129.601562 108.089844 132.578125 107.238281 135.589844 C 106.402344 138.546875 107.121094 142.375 107.757812 145.324219 C 108.367188 148.148438 108.992188 151.175781 109.882812 154.078125 Z M 127.695312 157.664062 C 128.394531 158.113281 129.195312 158.066406 130.058594 157.214844 C 130.75 156.53125 131.695312 154.917969 133.613281 154.1875 C 134.828125 153.722656 136.441406 153.660156 138.625 154.390625 C 142.765625 155.78125 145.101562 159.808594 146.035156 164.730469 C 147.519531 172.523438 145.472656 182.589844 140.703125 189.15625 C 137.941406 192.964844 133.957031 194.660156 129.796875 195.34375 C 125.441406 196.0625 120.886719 195.6875 117.199219 195.332031 C 114.382812 195.058594 108.226562 192.324219 103.730469 188.886719 C 101.980469 187.550781 100.484375 186.105469 99.570312 184.640625 C 99.050781 183.804688 98.722656 182.972656 98.722656 182.152344 C 98.714844 179.839844 99.339844 179.421875 99.992188 178.660156 C 100.414062 178.171875 100.839844 177.589844 101.203125 176.648438 C 101.421875 176.078125 101.433594 175.328125 101.398438 174.4375 C 101.363281 173.546875 101.296875 172.445312 101.824219 171.234375 C 102.3125 170.121094 103.4375 169.664062 104.132812 169.347656 C 104.746094 169.070312 105.175781 168.796875 105.339844 168.605469 C 105.691406 168.195312 105.742188 167.773438 105.632812 167.367188 C 105.558594 167.101562 105.375 166.695312 104.765625 166.394531 C 100.894531 164.46875 97.539062 162.863281 89.945312 156.722656 C 87.917969 155.085938 86.375 152.726562 85.902344 150.414062 C 85.484375 148.335938 85.972656 146.289062 87.953125 145 C 89.265625 144.144531 90.8125 144.070312 92.460938 144.453125 C 94.328125 144.886719 96.308594 145.90625 98.273438 147.210938 C 104.46875 151.324219 110.46875 158.28125 112.375 160.414062 C 112.773438 160.859375 113.433594 160.953125 113.941406 160.636719 C 114.445312 160.320312 114.652344 159.6875 114.425781 159.132812 C 114.425781 159.132812 113.503906 156.894531 113.285156 156.359375 C 111.78125 152.679688 110.964844 148.558594 110.152344 144.804688 C 109.59375 142.214844 108.863281 138.855469 109.597656 136.257812 C 110.203125 134.121094 111.554688 131.875 113.921875 131.511719 C 117.296875 130.996094 119.695312 133.359375 121.511719 136.605469 C 124.574219 142.078125 125.929688 150.140625 126.457031 154.292969 C 126.460938 154.339844 126.472656 154.382812 126.480469 154.429688 C 126.480469 154.429688 126.996094 156.515625 127.171875 156.980469 C 127.339844 157.421875 127.609375 157.605469 127.695312 157.664062 Z M 127.695312 157.664062 " fill-opacity="1" fill-rule="evenodd"/></g></g></g></g><g clip-path="url(#2f4d06d506)"><g clip-path="url(#03d5d7a026)"><g clip-path="url(#486f2e610d)"><g clip-path="url(#f50c535ba2)"><path fill="#7e4021" d="M 130.207031 156.964844 C 130.71875 156.578125 130.851562 155.859375 130.5 155.316406 C 130.128906 154.75 129.367188 154.589844 128.800781 154.957031 C 128.464844 155.179688 127.90625 155.898438 127.386719 156.902344 C 126.433594 158.75 125.351562 161.601562 125.226562 162.25 C 124.300781 167.078125 123.632812 173.601562 126.367188 178.007812 C 130.746094 185.070312 138.449219 179.84375 140.410156 174.101562 C 140.628906 173.460938 140.285156 172.765625 139.648438 172.546875 C 139.007812 172.328125 138.308594 172.667969 138.089844 173.308594 C 137.5 175.035156 136.234375 176.746094 134.71875 177.839844 C 133.503906 178.710938 132.125 179.210938 130.824219 178.800781 C 129.953125 178.53125 129.152344 177.851562 128.449219 176.71875 C 126.023438 172.804688 126.8125 166.996094 127.636719 162.710938 C 127.746094 162.140625 128.726562 159.648438 129.566406 158.023438 C 129.796875 157.578125 130.167969 157.023438 130.207031 156.964844 Z M 130.207031 156.964844 " fill-opacity="1" fill-rule="evenodd"/></g></g></g></g><g clip-path="url(#bc4e6ad6bc)"><g clip-path="url(#0ec4f7eff2)"><g clip-path="url(#1179769bae)"><g clip-path="url(#fa28fbc023)"><path fill="#7e4021" d="M 115.277344 197.308594 C 116.820312 197.273438 118.929688 196.640625 120.417969 196.207031 C 124.304688 195.082031 126.640625 190.75 125.835938 186.859375 C 125.199219 183.773438 122.09375 181.328125 118.015625 179.601562 C 112.441406 177.242188 105.117188 176.085938 101.375 175.597656 C 100.703125 175.511719 100.089844 175.984375 100.003906 176.65625 C 99.914062 177.328125 100.390625 177.941406 101.058594 178.027344 C 104.660156 178.496094 111.703125 179.589844 117.0625 181.859375 C 118.757812 182.578125 120.285156 183.414062 121.449219 184.398438 C 122.46875 185.261719 123.203125 186.226562 123.433594 187.355469 C 123.992188 190.046875 122.425781 193.074219 119.734375 193.855469 C 118.425781 194.234375 116.578125 194.828125 115.222656 194.859375 C 114.542969 194.875 114.007812 195.4375 114.023438 196.113281 C 114.039062 196.789062 114.601562 197.324219 115.277344 197.308594 Z M 115.277344 197.308594 " fill-opacity="1" fill-rule="evenodd"/></g></g></g></g><g clip-path="url(#9977c92e37)"><g clip-path="url(#68e94eaefa)"><g clip-path="url(#640d8953d0)"><g clip-path="url(#279b575e20)"><path fill="#7e4021" d="M 121.398438 183.335938 C 122.0625 183.25 122.734375 183.078125 123.371094 182.863281 C 125.277344 182.214844 126.878906 180.855469 127.117188 178.738281 C 127.402344 176.175781 125.886719 173.957031 123.273438 172.199219 C 118.019531 168.660156 108.234375 166.929688 104.484375 166.765625 C 103.808594 166.738281 103.238281 167.261719 103.207031 167.9375 C 103.175781 168.613281 103.703125 169.183594 104.378906 169.214844 C 107.386719 169.34375 114.558594 170.539062 119.648438 172.964844 C 121.242188 173.722656 122.625 174.59375 123.566406 175.617188 C 124.34375 176.460938 124.800781 177.398438 124.679688 178.464844 C 124.554688 179.585938 123.59375 180.199219 122.582031 180.542969 C 122.101562 180.707031 121.59375 180.839844 121.089844 180.90625 C 120.417969 180.992188 119.941406 181.605469 120.027344 182.273438 C 120.113281 182.945312 120.726562 183.421875 121.398438 183.335938 Z M 121.398438 183.335938 " fill-opacity="1" fill-rule="evenodd"/></g></g></g></g><g fill="#a6c189" fill-opacity="1"><g transform="translate(33.99565, 249.4676)"><g><path d="M 35.28125 13.71875 C 35.84375 13.5 36.269531 13.503906 36.5625 13.734375 C 36.851562 13.960938 36.984375 14.265625 36.953125 14.640625 C 36.921875 15.015625 36.679688 15.3125 36.234375 15.53125 C 34.109375 16.695312 31.828125 17.222656 29.390625 17.109375 C 26.960938 16.992188 24.640625 16.335938 22.421875 15.140625 C 20.203125 13.941406 18.347656 12.285156 16.859375 10.171875 C 15.429688 8.160156 14.453125 6.003906 13.921875 3.703125 C 13.398438 1.398438 13.300781 -0.875 13.625 -3.125 C 13.945312 -5.382812 14.675781 -7.488281 15.8125 -9.4375 C 16.945312 -11.382812 18.484375 -13.046875 20.421875 -14.421875 C 22.347656 -15.785156 24.421875 -16.675781 26.640625 -17.09375 C 28.867188 -17.519531 31.085938 -17.5 33.296875 -17.03125 C 35.515625 -16.5625 37.617188 -15.691406 39.609375 -14.421875 C 41.597656 -13.148438 43.304688 -11.507812 44.734375 -9.5 C 45.992188 -7.71875 46.863281 -5.742188 47.34375 -3.578125 C 47.832031 -1.410156 47.910156 0.648438 47.578125 2.609375 C 47.242188 4.578125 46.476562 6.203125 45.28125 7.484375 C 44.082031 8.765625 42.421875 9.421875 40.296875 9.453125 C 39.078125 9.429688 37.8125 9.128906 36.5 8.546875 C 35.195312 7.972656 34.019531 7.234375 32.96875 6.328125 C 31.925781 5.429688 31.160156 4.457031 30.671875 3.40625 C 30.179688 2.363281 30.140625 1.378906 30.546875 0.453125 C 30.960938 -0.472656 31.972656 -1.226562 33.578125 -1.8125 C 36.453125 -2.863281 38.5 -3.9375 39.71875 -5.03125 C 40.9375 -6.132812 41.519531 -7.203125 41.46875 -8.234375 C 41.414062 -9.273438 40.890625 -10.203125 39.890625 -11.015625 C 38.847656 -11.867188 37.472656 -12.128906 35.765625 -11.796875 C 34.054688 -11.460938 32.269531 -10.640625 30.40625 -9.328125 C 28.550781 -8.015625 26.816406 -6.289062 25.203125 -4.15625 C 23.703125 -2.1875 22.84375 -0.210938 22.625 1.765625 C 22.414062 3.753906 22.644531 5.59375 23.3125 7.28125 C 23.988281 8.976562 24.96875 10.410156 26.25 11.578125 C 27.539062 12.742188 28.984375 13.539062 30.578125 13.96875 C 32.171875 14.40625 33.738281 14.320312 35.28125 13.71875 Z M 35.28125 13.71875 "/></g></g></g><g fill="#a6c189" fill-opacity="1"><g transform="translate(56.514597, 280.915142)"><g><path d="M 53.390625 -4.53125 C 52.597656 -4.613281 51.644531 -4.351562 50.53125 -3.75 C 49.414062 -3.144531 48.257812 -2.351562 47.0625 -1.375 C 45.863281 -0.40625 44.703125 0.625 43.578125 1.71875 C 42.460938 2.820312 41.5 3.789062 40.6875 4.625 C 39.875 5.457031 38.941406 6.445312 37.890625 7.59375 C 36.835938 8.75 35.832031 9.953125 34.875 11.203125 C 33.914062 12.453125 33.160156 13.628906 32.609375 14.734375 C 32.054688 15.847656 31.832031 16.804688 31.9375 17.609375 C 32.007812 18.046875 31.867188 18.394531 31.515625 18.65625 C 31.171875 18.914062 30.742188 18.796875 30.234375 18.296875 L 20.21875 8.59375 C 20 8.375 19.972656 8.113281 20.140625 7.8125 C 20.304688 7.507812 20.597656 7.367188 21.015625 7.390625 C 22.472656 7.554688 23.613281 7.460938 24.4375 7.109375 C 25.269531 6.765625 26.125 6.144531 27 5.25 L 32.828125 -0.765625 L 25.28125 -8.078125 C 24.1875 -6.890625 23.007812 -5.550781 21.75 -4.0625 C 20.488281 -2.570312 19.460938 -1.125 18.671875 0.28125 C 17.878906 1.6875 17.535156 2.847656 17.640625 3.765625 C 17.710938 4.191406 17.582031 4.546875 17.25 4.828125 C 16.925781 5.109375 16.503906 5 15.984375 4.5 L 5.984375 -5.203125 C 5.753906 -5.421875 5.722656 -5.679688 5.890625 -5.984375 C 6.066406 -6.285156 6.363281 -6.425781 6.78125 -6.40625 C 8.226562 -6.25 9.359375 -6.347656 10.171875 -6.703125 C 10.992188 -7.054688 11.84375 -7.679688 12.71875 -8.578125 L 26.609375 -22.921875 C 27.453125 -23.785156 28.050781 -24.648438 28.40625 -25.515625 C 28.769531 -26.378906 28.832031 -27.515625 28.59375 -28.921875 C 28.550781 -29.335938 28.671875 -29.625 28.953125 -29.78125 C 29.234375 -29.945312 29.488281 -29.921875 29.71875 -29.703125 L 39.71875 -20 C 40.238281 -19.5 40.375 -19.09375 40.125 -18.78125 C 39.882812 -18.46875 39.539062 -18.332031 39.09375 -18.375 C 38.363281 -18.457031 37.453125 -18.207031 36.359375 -17.625 C 35.265625 -17.039062 34.117188 -16.265625 32.921875 -15.296875 C 31.734375 -14.335938 30.585938 -13.335938 29.484375 -12.296875 C 28.390625 -11.253906 27.421875 -10.296875 26.578125 -9.421875 L 34.125 -2.109375 L 40.890625 -9.09375 C 41.734375 -9.957031 42.328125 -10.820312 42.671875 -11.6875 C 43.023438 -12.5625 43.078125 -13.707031 42.828125 -15.125 C 42.785156 -15.539062 42.90625 -15.828125 43.1875 -15.984375 C 43.476562 -16.148438 43.734375 -16.125 43.953125 -15.90625 L 53.96875 -6.203125 C 54.476562 -5.703125 54.617188 -5.285156 54.390625 -4.953125 C 54.171875 -4.617188 53.835938 -4.476562 53.390625 -4.53125 Z M 53.390625 -4.53125 "/></g></g></g><g fill="#a6c189" fill-opacity="1"><g transform="translate(85.954378, 308.927037)"><g><path d="M 34.421875 11.375 C 34.648438 11.851562 34.632812 12.203125 34.375 12.421875 C 34.125 12.648438 33.851562 12.671875 33.5625 12.484375 L 21.09375 4.328125 C 20.832031 4.160156 20.722656 3.90625 20.765625 3.5625 C 20.804688 3.21875 20.988281 2.960938 21.3125 2.796875 C 22.269531 2.472656 23.203125 1.632812 24.109375 0.28125 C 25.015625 -1.070312 25.890625 -2.675781 26.734375 -4.53125 L 16.984375 -10.90625 C 16.484375 -10.488281 15.96875 -9.90625 15.4375 -9.15625 C 14.90625 -8.414062 14.515625 -7.429688 14.265625 -6.203125 C 14.023438 -4.972656 14.109375 -3.453125 14.515625 -1.640625 C 14.585938 -1.265625 14.492188 -0.960938 14.234375 -0.734375 C 13.984375 -0.503906 13.710938 -0.488281 13.421875 -0.6875 L 4.9375 -6.21875 C 4.675781 -6.394531 4.570312 -6.660156 4.625 -7.015625 C 4.675781 -7.378906 4.960938 -7.554688 5.484375 -7.546875 C 6.671875 -7.460938 7.816406 -7.550781 8.921875 -7.8125 C 10.035156 -8.082031 11.222656 -8.703125 12.484375 -9.671875 L 28.09375 -22.625 C 29.0625 -23.488281 29.835938 -24.367188 30.421875 -25.265625 C 31.015625 -26.160156 31.171875 -27.203125 30.890625 -28.390625 C 30.816406 -28.773438 30.9375 -29.046875 31.25 -29.203125 C 31.570312 -29.367188 31.878906 -29.351562 32.171875 -29.15625 L 37.625 -25.609375 C 38.78125 -24.847656 39.582031 -23.867188 40.03125 -22.671875 C 40.476562 -21.472656 40.703125 -20.257812 40.703125 -19.03125 C 40.703125 -17.8125 40.582031 -16.769531 40.34375 -15.90625 C 40.320312 -15.863281 40.171875 -15.347656 39.890625 -14.359375 C 39.617188 -13.367188 39.25 -12.101562 38.78125 -10.5625 C 38.3125 -9.03125 37.832031 -7.40625 37.34375 -5.6875 C 36.863281 -3.976562 36.394531 -2.347656 35.9375 -0.796875 C 35.488281 0.742188 35.128906 2.007812 34.859375 3 C 34.585938 4 34.441406 4.519531 34.421875 4.5625 C 34.023438 5.800781 33.757812 6.867188 33.625 7.765625 C 33.488281 8.660156 33.753906 9.863281 34.421875 11.375 Z M 18.515625 -12.15625 L 27.484375 -6.296875 C 28.398438 -8.515625 29.1875 -10.796875 29.84375 -13.140625 C 30.507812 -15.492188 31.003906 -17.578125 31.328125 -19.390625 C 31.660156 -21.203125 31.734375 -22.410156 31.546875 -23.015625 Z M 18.515625 -12.15625 "/></g></g></g><g fill="#a6c189" fill-opacity="1"><g transform="translate(119.913497, 330.58847)"><g><path d="M 33.4375 3.578125 C 33.738281 3.984375 33.804688 4.382812 33.640625 4.78125 C 33.484375 5.175781 33.078125 5.238281 32.421875 4.96875 L 20.421875 -0.046875 C 20.097656 -0.179688 19.945312 -0.421875 19.96875 -0.765625 C 19.988281 -1.117188 20.175781 -1.367188 20.53125 -1.515625 C 21.707031 -1.992188 22.460938 -2.613281 22.796875 -3.375 C 23.128906 -4.132812 23.375 -5.160156 23.53125 -6.453125 C 23.695312 -7.441406 23.84375 -8.488281 23.96875 -9.59375 C 24.09375 -10.707031 24.003906 -11.738281 23.703125 -12.6875 C 23.398438 -13.632812 22.691406 -14.34375 21.578125 -14.8125 C 21.160156 -14.976562 20.597656 -15.085938 19.890625 -15.140625 C 19.335938 -13.691406 18.773438 -12.175781 18.203125 -10.59375 C 17.640625 -9.007812 17.257812 -7.546875 17.0625 -6.203125 C 16.875 -4.859375 16.972656 -3.835938 17.359375 -3.140625 C 17.578125 -2.765625 17.585938 -2.382812 17.390625 -2 C 17.191406 -1.625 16.757812 -1.570312 16.09375 -1.84375 L 3.671875 -7.03125 C 3.378906 -7.15625 3.253906 -7.390625 3.296875 -7.734375 C 3.347656 -8.078125 3.570312 -8.3125 3.96875 -8.4375 C 5.375 -8.8125 6.390625 -9.316406 7.015625 -9.953125 C 7.648438 -10.585938 8.207031 -11.484375 8.6875 -12.640625 L 16.375 -31.0625 C 16.84375 -32.175781 17.085938 -33.195312 17.109375 -34.125 C 17.128906 -35.0625 16.773438 -36.144531 16.046875 -37.375 C 15.859375 -37.75 15.863281 -38.0625 16.0625 -38.3125 C 16.269531 -38.570312 16.519531 -38.640625 16.8125 -38.515625 L 32.078125 -32.15625 C 34.015625 -31.34375 35.613281 -30.1875 36.875 -28.6875 C 38.144531 -27.195312 38.957031 -25.550781 39.3125 -23.75 C 39.675781 -21.945312 39.507812 -20.203125 38.8125 -18.515625 C 37.945312 -16.453125 36.46875 -14.910156 34.375 -13.890625 C 32.28125 -12.878906 30.019531 -12.546875 27.59375 -12.890625 C 28.320312 -11.859375 28.859375 -10.675781 29.203125 -9.34375 C 29.546875 -8.019531 29.851562 -6.632812 30.125 -5.1875 C 30.394531 -3.738281 30.773438 -2.269531 31.265625 -0.78125 C 31.753906 0.707031 32.476562 2.160156 33.4375 3.578125 Z M 29.96875 -22.203125 C 30.632812 -23.804688 30.796875 -25.421875 30.453125 -27.046875 C 30.117188 -28.671875 29.398438 -30.019531 28.296875 -31.09375 C 27.398438 -30.457031 26.503906 -29.359375 25.609375 -27.796875 C 24.722656 -26.242188 23.898438 -24.59375 23.140625 -22.84375 C 22.390625 -21.09375 21.738281 -19.5625 21.1875 -18.25 L 20.828125 -17.375 C 22.628906 -16.90625 24.40625 -17.128906 26.15625 -18.046875 C 27.914062 -18.960938 29.1875 -20.347656 29.96875 -22.203125 Z M 29.96875 -22.203125 "/></g></g></g><g fill="#a6c189" fill-opacity="1"><g transform="translate(155.028584, 345.226869)"><g><path d="M 43.234375 -26.96875 L 39.296875 -7.390625 C 39.046875 -6.160156 39.015625 -5.109375 39.203125 -4.234375 C 39.390625 -3.359375 39.945312 -2.363281 40.875 -1.25 C 41.164062 -0.925781 41.242188 -0.601562 41.109375 -0.28125 C 40.972656 0.03125 40.734375 0.148438 40.390625 0.078125 L 26.734375 -2.671875 C 26.023438 -2.816406 25.6875 -3.101562 25.71875 -3.53125 C 25.757812 -3.957031 25.96875 -4.269531 26.34375 -4.46875 C 27.050781 -4.832031 27.691406 -5.554688 28.265625 -6.640625 C 28.847656 -7.722656 29.378906 -9.015625 29.859375 -10.515625 C 30.347656 -12.023438 30.78125 -13.535156 31.15625 -15.046875 C 31.53125 -16.566406 31.832031 -17.894531 32.0625 -19.03125 C 32.351562 -20.476562 32.65625 -22.21875 32.96875 -24.25 C 33.289062 -26.28125 33.445312 -28.164062 33.4375 -29.90625 L 24.359375 -14.71875 L 19.125 -6 C 18.457031 -4.9375 17.816406 -4.46875 17.203125 -4.59375 C 16.585938 -4.71875 16.203125 -5.414062 16.046875 -6.6875 L 12.0625 -34.328125 L 7.59375 -12.140625 C 7.425781 -11.359375 7.367188 -10.765625 7.421875 -10.359375 C 7.472656 -9.960938 7.671875 -9.582031 8.015625 -9.21875 C 8.359375 -8.851562 8.84375 -8.3125 9.46875 -7.59375 C 9.769531 -7.257812 9.851562 -6.929688 9.71875 -6.609375 C 9.582031 -6.296875 9.335938 -6.175781 8.984375 -6.25 L 2.21875 -7.625 C 1.914062 -7.675781 1.753906 -7.875 1.734375 -8.21875 C 1.710938 -8.570312 1.878906 -8.847656 2.234375 -9.046875 C 3.140625 -9.460938 3.804688 -9.773438 4.234375 -9.984375 C 4.671875 -10.191406 4.988281 -10.46875 5.1875 -10.8125 C 5.394531 -11.164062 5.582031 -11.734375 5.75 -12.515625 L 10.328125 -35.25 C 10.492188 -36.070312 10.546875 -36.671875 10.484375 -37.046875 C 10.421875 -37.429688 10.234375 -37.804688 9.921875 -38.171875 C 9.609375 -38.535156 9.109375 -39.078125 8.421875 -39.796875 C 8.179688 -40.117188 8.132812 -40.421875 8.28125 -40.703125 C 8.425781 -40.992188 8.648438 -41.113281 8.953125 -41.0625 L 17.03125 -39.421875 C 18.4375 -39.140625 19.472656 -38.671875 20.140625 -38.015625 C 20.804688 -37.359375 21.226562 -36.347656 21.40625 -34.984375 L 23.9375 -17.65625 L 32.890625 -32.609375 C 33.628906 -33.828125 34.390625 -34.617188 35.171875 -34.984375 C 35.953125 -35.347656 36.914062 -35.414062 38.0625 -35.1875 L 47.125 -33.359375 C 47.46875 -33.285156 47.644531 -33.085938 47.65625 -32.765625 C 47.664062 -32.453125 47.46875 -32.195312 47.0625 -32 C 45.789062 -31.394531 44.894531 -30.703125 44.375 -29.921875 C 43.851562 -29.140625 43.472656 -28.15625 43.234375 -26.96875 Z M 43.234375 -26.96875 "/></g></g></g><g mask="url(#8de6185fd8)"><g transform="matrix(1, 0, 0, 1, 9, 203)"><g clip-path="url(#490db7d25c)"><path stroke-linecap="butt" transform="matrix(0.567982, 0.834673, -0.834673, 0.567982, 75.055384, 11.50315)" fill="none" stroke-linejoin="miter" d="M 31.260927 38.289818 C 31.402662 37.71703 31.644144 37.375917 31.990749 37.265458 C 32.347082 37.14758 32.66624 37.215002 32.9472 37.462352 C 33.240066 37.699082 33.339642 38.06168 33.256678 38.548102 C 32.996725 40.945195 32.122042 43.097132 30.628406 44.99636 C 29.149742 46.901097 27.291752 48.407309 25.055458 49.52037 C 22.81712 50.622681 20.42091 51.172966 17.861453 51.172245 C 15.427544 51.172718 13.126624 50.730171 10.955495 49.842427 C 8.782188 48.957882 6.877109 47.741063 5.235903 46.198369 C 3.603403 44.64288 2.320879 42.848186 1.394726 40.81864 C 0.46333 38.776167 0.00128533 36.580402 0.00103892 34.235566 C -0.0013842 31.893929 0.464803 29.702695 1.39307 27.671461 C 2.322491 25.631652 3.601467 23.848429 5.236395 22.326146 C 6.876698 20.802841 8.783348 19.596501 10.95417 18.710325 C 13.128191 17.826325 15.427868 17.383511 17.858579 17.380862 C 20.028466 17.383245 22.133201 17.804611 24.162033 18.647003 C 26.194195 19.477622 27.908106 20.597113 29.300566 22.003298 C 30.693158 23.395534 31.570198 24.947061 31.925286 26.653526 C 32.283706 28.348218 31.860678 30.063384 30.662732 31.789426 C 29.959164 32.761451 28.999164 33.615138 27.777358 34.35151 C 26.569635 35.074064 25.297218 35.602836 23.968682 35.938981 C 22.640279 36.261177 21.407689 36.325653 20.274112 36.134589 C 19.151419 35.92753 18.33547 35.400369 17.827421 34.544531 C 17.320525 33.680119 17.288434 32.427448 17.727948 30.78434 C 18.518674 27.868595 18.809554 25.604867 18.603785 23.995332 C 18.409921 22.375178 17.880447 21.289483 17.015362 20.738246 C 16.162183 20.17639 15.114708 20.071995 13.873958 20.430438 C 12.588161 20.786306 11.58845 21.753369 10.874827 23.331629 C 10.16991 24.897093 9.820149 26.807195 9.821191 29.068333 C 9.821211 31.324095 10.222402 33.712448 11.021565 36.231217 C 11.77625 38.574639 12.895334 40.403193 14.374597 41.709328 C 15.85386 43.015462 17.469311 43.880754 19.219928 44.299826 C 20.971567 44.724274 22.685202 44.743783 24.356481 44.364751 C 26.044908 43.988028 27.514344 43.279766 28.767989 42.242142 C 30.030208 41.205673 30.862639 39.886099 31.260927 38.289818 Z M 31.260927 38.289818 " stroke="#54260f" stroke-width="2.489512" stroke-opacity="1" stroke-miterlimit="4"/><path stroke-linecap="butt" transform="matrix(0.712793, 0.714989, -0.714989, 0.712793, 89.966225, 34.791264)" fill="none" stroke-linejoin="miter" d="M 34.843555 18.971202 C 34.228727 19.4564 33.732092 20.299816 33.350912 21.498721 C 32.975186 22.686673 32.698221 24.049571 32.525481 25.581933 C 32.352732 27.108823 32.240189 28.646564 32.18513 30.203368 C 32.143728 31.746472 32.118439 33.092567 32.120198 34.236165 C 32.119241 35.393447 32.143207 36.744938 32.183882 38.287915 C 32.23824 39.833607 32.352797 41.384679 32.524811 42.938398 C 32.699548 44.483905 32.975231 45.845953 33.35186 47.024541 C 33.731204 48.189445 34.227673 49.017655 34.841259 49.5037 C 35.200076 49.774001 35.345612 50.121234 35.280598 50.542661 C 35.215585 50.964087 34.82741 51.172612 34.113341 51.170974 L 20.305325 51.173055 C 20.004378 51.173518 19.804402 51.006936 19.708129 50.67057 C 19.620067 50.336928 19.73178 50.038544 20.046006 49.778152 C 21.190981 48.8927 21.94204 48.040684 22.299174 47.216633 C 22.656316 46.398054 22.835294 45.363614 22.833384 44.121524 L 22.834304 35.823579 L 12.413316 35.825924 C 12.456815 37.42635 12.544332 39.185391 12.670404 41.108525 C 12.812892 43.031634 13.078212 44.77125 13.466365 46.327373 C 13.865444 47.872535 14.422456 48.930467 15.134668 49.503908 C 15.493485 49.774209 15.644493 50.121434 15.590423 50.542844 C 15.547297 50.964237 15.175537 51.172736 14.472411 51.171081 L 0.664395 51.173162 C 0.352505 51.173642 0.149789 51.004329 0.0644592 50.667946 C -0.0208622 50.337035 0.0908504 50.038651 0.405077 49.778259 C 1.550052 48.892807 2.290167 48.040808 2.625414 47.216791 C 2.960669 46.398245 3.128704 45.363822 3.126794 44.121732 L 3.129225 24.352212 C 3.127382 23.153897 2.961648 22.125458 2.626558 21.272377 C 2.291451 20.408352 1.551451 19.555893 0.403817 18.712269 C 0.094246 18.441892 -0.0210985 18.157537 0.0632468 17.853724 C 0.153047 17.538959 0.352526 17.382707 0.664417 17.382227 L 14.469701 17.382886 C 15.175558 17.381801 15.547949 17.583684 15.592338 17.983055 C 15.642198 18.382418 15.492233 18.713691 15.136965 18.97141 C 14.563111 19.415506 14.088313 20.226059 13.709831 21.400336 C 13.33134 22.569142 13.051601 23.90742 12.867892 25.423384 C 12.695101 26.922915 12.574296 28.425103 12.510941 29.924466 C 12.447593 31.429301 12.414101 32.778145 12.413212 33.9792 L 22.8342 33.976855 L 22.835815 24.352004 C 22.833973 23.153689 22.657295 22.125267 22.300318 21.272219 C 21.943324 20.408228 21.19238 19.555786 20.044746 18.712162 C 19.735175 18.441785 19.619831 18.15743 19.706908 17.850877 C 19.80492 17.538835 20.004399 17.382583 20.305346 17.38212 L 34.116103 17.382771 C 34.827431 17.381677 35.216238 17.583535 35.282513 17.982872 C 35.343317 18.382218 35.198824 18.713483 34.843555 18.971202 Z M 34.843555 18.971202 " stroke="#54260f" stroke-width="2.489512" stroke-opacity="1" stroke-miterlimit="4"/><path stroke-linecap="butt" transform="matrix(0.835394, 0.566922, -0.566922, 0.835394, 110.18164, 56.074182)" fill="none" stroke-linejoin="miter" d="M 34.714441 49.779263 C 35.155472 50.036404 35.335002 50.335404 35.248686 50.669861 C 35.16237 51.004317 34.940551 51.173554 34.584258 51.172195 L 19.851152 51.173335 C 19.538881 51.174834 19.301499 51.017964 19.139006 50.702727 C 18.98726 50.389547 19.004057 50.083564 19.190424 49.779405 C 19.803044 48.980237 20.122586 47.776764 20.144706 46.162582 C 20.164654 44.545198 20.025315 42.741327 19.723487 40.753142 L 8.169004 40.752787 C 7.984136 41.369218 7.869136 42.129947 7.826178 43.038175 C 7.78322 43.946404 7.995595 44.975941 8.459072 46.134333 C 8.925636 47.276602 9.820989 48.492606 11.151534 49.777999 C 11.421966 50.038691 11.507049 50.336323 11.409984 50.668722 C 11.323668 51.003179 11.107223 51.173444 10.761678 51.174143 L 0.731046 51.173044 C 0.416603 51.171341 0.183451 51.006925 0.0336485 50.669047 C -0.119355 50.333341 0.0263062 50.038102 0.471662 49.777954 C 1.485291 49.197624 2.376683 48.499182 3.144809 47.688003 C 3.920366 46.867104 4.577222 45.705924 5.104629 44.202407 L 11.020571 25.014267 C 11.375215 23.772945 11.553546 22.623219 11.555564 21.565088 C 11.555408 20.503756 11.112978 19.555525 10.22713 18.711822 C 9.955555 18.442555 9.907062 18.157499 10.07948 17.853454 C 10.264704 17.540719 10.531689 17.382915 10.891183 17.382101 L 17.325726 17.382767 C 18.696127 17.383286 19.891484 17.759772 20.905394 18.51657 C 21.921361 19.262619 22.758157 20.144286 23.418985 21.159398 C 24.088388 22.173367 24.556431 23.104216 24.827342 23.944398 C 24.829859 23.989449 24.97681 24.502272 25.281115 25.488127 C 25.59388 26.458887 25.973319 27.707042 26.417257 29.229388 C 26.857994 30.753908 27.344472 32.359609 27.874517 34.04329 C 28.404562 35.726971 28.899615 37.331529 29.36505 38.857991 C 29.831514 40.379079 30.219528 41.626089 30.534467 42.600051 C 30.844031 43.572985 31.000586 44.07929 31.003104 44.124341 C 31.358873 45.365178 31.721494 46.395624 32.087767 47.217851 C 32.467989 48.039963 33.341032 48.892357 34.714441 49.779263 Z M 8.768548 38.887028 L 19.384044 38.888677 C 18.938702 36.544318 18.349746 34.222604 17.615003 31.920335 C 16.891008 29.620123 16.171713 27.63001 15.461464 25.956397 C 14.756474 24.269864 14.165165 23.226278 13.678963 22.826782 Z M 8.768548 38.887028 " stroke="#54260f" stroke-width="2.489512" stroke-opacity="1" stroke-miterlimit="4"/><path stroke-linecap="butt" transform="matrix(0.924844, 0.404902, -0.404902, 0.924844, 134.202257, 73.041583)" fill="none" stroke-linejoin="miter" d="M 31.924324 49.502583 C 32.367927 49.772976 32.591112 50.118751 32.590335 50.54146 C 32.589557 50.964169 32.237575 51.173176 31.53594 51.172027 L 18.654183 51.173115 C 18.295502 51.173872 18.065051 51.004449 17.957294 50.671493 C 17.847986 50.334994 17.925451 50.039211 18.183042 49.778608 C 19.070325 48.891755 19.524496 48.038246 19.545554 47.21808 C 19.566612 46.397913 19.40617 45.365774 19.057139 44.124766 C 18.833128 43.150024 18.561031 42.132979 18.245944 41.075624 C 17.946586 40.015606 17.47114 39.11293 16.821157 38.371141 C 16.185792 37.614505 15.267832 37.235012 14.068829 37.236205 C 13.625295 37.236098 13.072345 37.343024 12.415075 37.558978 C 12.457565 39.103139 12.52289 40.709104 12.609497 42.373331 C 12.696105 44.037558 12.906289 45.520972 13.238057 46.828669 C 13.573809 48.126175 14.051689 49.015114 14.666159 49.502135 C 15.021366 49.773215 15.180524 50.117456 15.138096 50.541505 C 15.094116 50.962009 14.71422 51.17479 14.003946 51.1732 L 0.664918 51.171747 C 0.352983 51.173156 0.151998 51.003504 0.0650663 50.669879 C -0.0218651 50.336254 0.0921541 50.037138 0.405131 49.777628 C 1.550515 48.891817 2.292252 48.039121 2.625246 47.217545 C 2.958239 46.395969 3.128565 45.366847 3.128024 44.121097 L 3.12672 24.350608 C 3.125527 23.151605 2.959548 22.126114 2.623687 21.272142 C 2.291812 20.407979 1.550524 19.554111 0.404919 18.712533 C 0.0913619 18.440112 -0.0205915 18.155455 0.0659548 17.851473 C 0.152942 17.53885 0.351407 17.384382 0.663343 17.382972 L 17.063905 17.382976 C 19.137792 17.383109 21.041866 17.825047 22.76904 18.711893 C 24.499758 19.597188 25.871652 20.79163 26.884722 22.29522 C 27.899784 23.793715 28.411093 25.453623 28.408458 27.270961 C 28.409911 29.483534 27.642319 31.454156 26.10568 33.182826 C 24.585211 34.900192 22.648984 36.073107 20.305638 36.702011 C 21.37565 37.361277 22.315226 38.233925 23.12747 39.327043 C 23.945692 40.404873 24.758395 41.556922 25.55893 42.777654 C 26.354809 43.987752 27.265889 45.181205 28.279982 46.359124 C 29.294517 47.528401 30.512842 48.574669 31.924324 49.502583 Z M 18.912356 27.268079 C 18.912135 25.54069 18.446496 24.004392 17.518542 22.666274 C 16.589477 21.315971 15.417475 20.346568 14.002094 19.766703 C 13.428087 20.693797 13.031645 22.045768 12.802579 23.818633 C 12.585697 25.590387 12.468303 27.41573 12.445301 29.292668 C 12.42385 31.173151 12.414303 32.820344 12.413115 34.235798 L 12.41535 35.1767 C 14.227523 34.907058 15.761054 34.020262 17.017496 32.519855 C 18.281468 31.007706 18.913088 29.257113 18.912356 27.268079 Z M 18.912356 27.268079 " stroke="#54260f" stroke-width="2.489512" stroke-opacity="1" stroke-miterlimit="4"/><path stroke-linecap="butt" transform="matrix(0.986085, 0.21661, -0.21661, 0.986085, 157.949919, 84.671359)" fill="none" stroke-linejoin="miter" d="M 36.707086 24.353125 L 36.70843 44.124044 C 36.707506 45.364157 36.887121 46.398234 37.241837 47.219546 C 37.596552 48.040859 38.32679 48.894562 39.427942 49.777706 C 39.786538 50.039612 39.92641 50.33372 39.850047 50.671365 C 39.785021 51.006521 39.580235 51.174308 39.234857 51.170948 L 25.426139 51.17381 C 24.712709 51.172072 24.337621 50.961325 24.292486 50.53945 C 24.248181 50.121354 24.385838 49.774205 24.69873 49.503443 C 25.312631 49.016027 25.801033 48.191733 26.158498 47.023833 C 26.513471 45.844595 26.776982 44.483419 26.949028 42.940304 C 27.122363 41.385022 27.241132 39.833804 27.306164 38.290428 C 27.382534 36.744563 27.422338 35.392913 27.421799 34.236311 C 27.422414 32.77839 27.372107 31.034553 27.274656 29.003968 C 27.189832 26.958725 26.968156 25.102 26.612578 23.429181 L 20.776322 39.942692 L 17.387457 49.437785 C 16.944823 50.596665 16.417578 51.172002 15.799827 51.173015 C 15.185854 51.173198 14.677424 50.571835 14.275368 49.372707 L 4.974923 23.28203 L 4.973526 45.727478 C 4.974934 46.527366 5.040649 47.11506 5.1715 47.494337 C 5.311198 47.859788 5.581501 48.188626 5.978631 48.481682 C 6.380829 48.76174 6.951359 49.194967 7.69778 49.779703 C 8.055546 50.037831 8.200027 50.334887 8.135001 50.670042 C 8.069976 51.005197 7.86141 51.173815 7.504696 51.172946 L 0.663706 51.174321 C 0.350221 51.171879 0.151284 51.005626 0.0660663 50.671783 C -0.019982 50.334161 0.0927955 50.036053 0.404399 49.777458 C 1.195629 49.19563 1.777922 48.762694 2.155888 48.481599 C 2.531363 48.189167 2.787743 47.859514 2.91747 47.494301 C 3.056045 47.11526 3.128407 46.524965 3.127829 45.728856 L 3.126292 22.765112 C 3.12709 21.921164 3.058885 21.322134 2.917068 20.965072 C 2.787419 20.609298 2.534722 20.288477 2.156029 20.007216 C 1.779454 19.717568 1.192978 19.283882 0.405817 18.712057 C 0.0925692 18.440189 -0.0213078 18.156217 0.0663051 17.851752 C 0.152258 17.53973 0.351147 17.381161 0.664632 17.383603 L 8.833023 17.383784 C 10.246884 17.382193 11.340753 17.637078 12.106243 18.14632 C 12.883071 18.653072 13.4957 19.548455 13.936575 20.834129 L 19.78725 37.153275 L 25.557824 20.899798 C 26.042004 19.569376 26.625056 18.652985 27.305319 18.143069 C 27.998579 17.638221 28.916597 17.381104 30.061863 17.383055 L 39.236613 17.384009 C 39.58116 17.38359 39.785995 17.540625 39.850286 17.851335 C 39.925084 18.155775 39.785482 18.439969 39.42936 18.712304 C 38.326527 19.552727 37.599675 20.409594 37.242534 21.272398 C 36.883733 22.127644 36.704974 23.153293 36.707086 24.353125 Z M 36.707086 24.353125 " stroke="#54260f" stroke-width="2.489512" stroke-opacity="1" stroke-miterlimit="4"/></g></g></g></svg>