<svg xmlns="http://www.w3.org/2000/svg" xmlns:xlink="http://www.w3.org/1999/xlink" width="500" zoomAndPan="magnify" viewBox="0 0 375 374.999991" height="500" preserveAspectRatio="xMidYMid meet" version="1.2"><defs><clipPath id="01acd4d4a8"><path d="M 192 225 L 226 225 L 226 368.664062 L 192 368.664062 Z M 192 225 "/></clipPath></defs><g id="aef8cfe8c7"><rect x="0" width="375" y="0" height="374.999991" style="fill:#ffffff;fill-opacity:1;stroke:none;"/><rect x="0" width="375" y="0" height="374.999991" style="fill:#537ca4;fill-opacity:1;stroke:none;"/><path style=" stroke:none;fill-rule:evenodd;fill:#84b68e;fill-opacity:1;" d="M 171.632812 90.34375 C 173.148438 81.347656 175.359375 65.914062 180.421875 54.503906 C 187.203125 39.210938 200.1875 21.121094 217.519531 20.71875 C 234.144531 20.335938 236.683594 36.425781 243.820312 39.484375 C 256.773438 45.039062 271.890625 39.4375 285.53125 47.507812 C 296.011719 53.707031 303.480469 63.421875 307.039062 75.074219 C 315.644531 103.25 296.601562 127.179688 275.097656 142.746094 C 273.441406 143.945312 268.320312 144.75 269.917969 146.027344 C 276.925781 151.640625 302.246094 148.273438 317.003906 167.5 C 321.082031 172.808594 323.246094 178.957031 322.679688 185.664062 C 321.761719 196.503906 313.089844 201.105469 310.246094 210.34375 C 306.183594 223.550781 334.863281 266.519531 281.621094 286.527344 C 232.300781 305.0625 204.328125 231.882812 203.480469 233.992188 C 200.308594 241.933594 201.074219 253.15625 191.476562 275.417969 C 175.4375 312.621094 142.597656 319.921875 115.574219 313.0625 C 103.988281 310.121094 93.792969 300.40625 88.6875 289.8125 C 86.40625 285.082031 84.242188 280.304688 81.359375 275.894531 C 68.414062 256.070312 20.144531 259.453125 50.355469 207.777344 C 61.789062 188.21875 80.859375 175.046875 102.253906 168.460938 C 102.65625 168.339844 108.441406 167.324219 108.46875 167.203125 C 108.648438 166.492188 99.328125 165.308594 98.679688 165.203125 C 76.273438 161.671875 24.082031 150.914062 36.394531 116.734375 C 42.585938 99.546875 58.511719 93.859375 69.445312 80.972656 C 79.898438 68.65625 83.046875 52.847656 96.1875 42.125 C 129.152344 15.21875 165.4375 60.128906 171.632812 90.34375 Z M 171.632812 90.34375 "/><path style=" stroke:none;fill-rule:evenodd;fill:#7e4021;fill-opacity:1;" d="M 100.972656 167.164062 C 79.519531 173.949219 60.453125 187.292969 48.957031 206.960938 C 39.574219 223.003906 37.65625 233.960938 39.714844 241.9375 C 41.8125 250.066406 48.042969 255.265625 55.320312 259.625 C 59.917969 262.378906 64.921875 264.8125 69.425781 267.542969 C 73.710938 270.144531 77.542969 273.007812 80.003906 276.78125 C 82.847656 281.132812 84.980469 285.851562 87.226562 290.519531 C 92.53125 301.519531 103.144531 311.578125 115.175781 314.632812 C 142.871094 321.664062 176.527344 314.183594 192.964844 276.058594 C 201.347656 256.613281 201.835938 245.582031 203.933594 237.804688 C 204.46875 238.785156 205.105469 239.957031 205.769531 241.191406 C 210.417969 249.832031 219.285156 265.25 231.972656 276.640625 C 244.921875 288.265625 261.796875 295.710938 282.191406 288.046875 C 298.679688 281.851562 307.507812 273.457031 311.96875 264.464844 C 316.445312 255.449219 316.53125 245.769531 315.355469 236.890625 C 314.445312 230.015625 312.777344 223.636719 311.941406 218.492188 C 311.433594 215.371094 311.203125 212.75 311.796875 210.820312 C 313.160156 206.378906 315.960938 203.074219 318.5 199.554688 C 321.300781 195.667969 323.808594 191.554688 324.292969 185.800781 C 324.894531 178.683594 322.617188 172.148438 318.289062 166.511719 C 309.15625 154.613281 296.136719 151.039062 285.59375 148.886719 C 281.554688 148.058594 277.898438 147.445312 275.023438 146.605469 C 274.058594 146.324219 273.1875 146.023438 272.433594 145.667969 C 272.65625 145.578125 272.878906 145.492188 273.074219 145.421875 C 274.222656 145.003906 275.375 144.546875 276.046875 144.058594 C 298.089844 128.105469 317.410156 103.480469 308.589844 74.601562 C 304.910156 62.554688 297.1875 52.519531 286.355469 46.109375 C 279.289062 41.929688 271.847656 41.246094 264.488281 40.933594 C 257.582031 40.640625 250.753906 40.695312 244.457031 37.996094 C 243.238281 37.472656 242.203125 36.480469 241.171875 35.269531 C 239.988281 33.878906 238.835938 32.207031 237.570312 30.488281 C 233.433594 24.863281 228.144531 18.851562 217.484375 19.097656 C 210.183594 19.265625 203.601562 22.382812 197.890625 27.132812 C 189.570312 34.054688 183.101562 44.460938 178.9375 53.847656 C 175.023438 62.683594 172.78125 73.902344 171.257812 82.757812 C 166.683594 68.941406 157.0625 53.636719 144.984375 43.570312 C 130.417969 31.425781 112.355469 26.835938 95.160156 40.871094 C 88.421875 46.371094 84.222656 53.164062 80.386719 60.171875 C 76.703125 66.910156 73.363281 73.851562 68.210938 79.921875 C 62.804688 86.296875 56.152344 90.878906 50.09375 96.003906 C 43.761719 101.363281 38.070312 107.296875 34.871094 116.183594 C 29.652344 130.667969 35.320312 141.199219 45.578125 148.84375 C 60.304688 159.816406 84.792969 164.65625 98.425781 166.804688 C 98.625 166.835938 99.65625 166.972656 100.972656 167.164062 Z M 170.046875 90.671875 C 170.203125 91.433594 170.882812 91.980469 171.660156 91.964844 C 172.441406 91.953125 173.101562 91.382812 173.230469 90.613281 C 174.730469 81.71875 176.898438 66.445312 181.902344 55.164062 C 185.875 46.199219 192.015625 36.234375 199.960938 29.625 C 205.097656 25.355469 210.992188 22.492188 217.558594 22.339844 C 226.84375 22.125 231.359375 27.515625 234.960938 32.410156 C 237.738281 36.179688 240.109375 39.65625 243.179688 40.976562 C 249.839844 43.832031 257.046875 43.863281 264.351562 44.171875 C 271.195312 44.464844 278.132812 45.015625 284.707031 48.902344 C 294.835938 54.894531 302.050781 64.285156 305.492188 75.546875 C 313.878906 103.019531 295.113281 126.257812 274.148438 141.433594 C 273.660156 141.785156 272.800781 142.070312 271.96875 142.375 C 270.820312 142.789062 269.699219 143.222656 269.082031 143.660156 C 268.414062 144.132812 268.101562 144.707031 268.019531 145.21875 C 267.914062 145.847656 268.035156 146.601562 268.902344 147.292969 C 270.164062 148.300781 271.9375 149.082031 274.113281 149.71875 C 277.0625 150.578125 280.804688 151.214844 284.945312 152.0625 C 294.847656 154.085938 307.140625 157.3125 315.71875 168.488281 C 319.546875 173.46875 321.597656 179.234375 321.066406 185.527344 C 320.636719 190.613281 318.347656 194.222656 315.871094 197.65625 C 313.128906 201.457031 310.171875 205.070312 308.699219 209.867188 C 308.15625 211.625 308.105469 213.859375 308.390625 216.46875 C 308.78125 220.035156 309.789062 224.371094 310.746094 229.160156 C 312.890625 239.875 314.84375 252.980469 308.1875 264.675781 C 303.75 272.46875 295.492188 279.585938 281.050781 285.011719 C 259.574219 293.082031 242.304688 283.078125 229.703125 269.929688 C 216.808594 256.476562 208.730469 239.695312 205.960938 234.667969 C 205.476562 233.785156 205.101562 233.207031 204.882812 232.964844 C 204.628906 232.683594 204.382812 232.542969 204.207031 232.46875 C 203.683594 232.242188 203.230469 232.304688 202.851562 232.472656 C 202.519531 232.621094 202.179688 232.886719 201.976562 233.390625 C 198.804688 241.324219 199.574219 252.535156 189.988281 274.773438 C 174.347656 311.054688 142.328125 318.179688 115.972656 311.492188 C 104.832031 308.664062 95.054688 299.292969 90.148438 289.109375 C 87.835938 284.316406 85.636719 279.476562 82.71875 275.007812 C 80.003906 270.851562 75.828125 267.640625 71.105469 264.773438 C 66.597656 262.035156 61.589844 259.601562 56.984375 256.84375 C 50.464844 252.9375 44.734375 248.410156 42.851562 241.125 C 40.929688 233.691406 43.007812 223.554688 51.753906 208.597656 C 62.980469 189.390625 81.722656 176.480469 102.730469 170.011719 C 103.085938 169.902344 107.761719 169.082031 108.710938 168.832031 C 109.785156 168.550781 110.011719 167.71875 110.042969 167.597656 C 110.175781 167.066406 110.140625 166.125 108.996094 165.535156 C 107.539062 164.785156 99.546875 163.699219 98.929688 163.601562 C 85.675781 161.515625 61.832031 156.914062 47.511719 146.242188 C 38.40625 139.460938 33.285156 130.140625 37.917969 117.28125 C 40.90625 108.984375 46.273438 103.480469 52.1875 98.476562 C 58.378906 93.242188 65.15625 88.535156 70.683594 82.019531 C 75.980469 75.777344 79.441406 68.65625 83.230469 61.730469 C 86.867188 55.078125 90.8125 48.601562 97.210938 43.382812 C 112.984375 30.507812 129.546875 34.917969 142.910156 46.058594 C 156.597656 57.464844 167.011719 75.867188 170.046875 90.671875 Z M 170.046875 90.671875 "/><path style=" stroke:none;fill-rule:evenodd;fill:#84b68e;fill-opacity:1;" d="M 206.433594 227.1875 C 206.367188 226.851562 205.9375 227.609375 204.835938 231.878906 C 204.058594 234.875 201.816406 238.679688 201.878906 241.75 C 202.074219 251.476562 204.050781 261.125 204.191406 270.894531 C 204.394531 284.957031 203.277344 299.011719 201.34375 312.929688 C 199.949219 322.964844 191.6875 355.132812 194.730469 364.265625 C 195.515625 366.625 198.324219 366.882812 200.464844 366.949219 C 204.585938 367.085938 213.976562 365.894531 216.839844 362.402344 C 227.757812 349.089844 223.011719 265.46875 217.492188 244.753906 C 216.003906 239.175781 209.78125 231.796875 206.433594 227.1875 Z M 206.433594 227.1875 "/><g clip-rule="nonzero" clip-path="url(#01acd4d4a8)"><path style=" stroke:none;fill-rule:evenodd;fill:#7e4021;fill-opacity:1;" d="M 207.875 226.417969 C 207.613281 225.855469 207.136719 225.636719 206.796875 225.550781 C 206.394531 225.445312 205.847656 225.417969 205.277344 225.917969 C 205.15625 226.027344 204.949219 226.242188 204.746094 226.660156 C 204.496094 227.179688 204.019531 228.558594 203.265625 231.472656 C 202.808594 233.234375 201.828125 235.277344 201.136719 237.28125 C 200.597656 238.839844 200.230469 240.382812 200.257812 241.785156 C 200.457031 251.507812 202.429688 261.152344 202.574219 270.917969 C 202.773438 284.898438 201.660156 298.867188 199.738281 312.707031 C 198.761719 319.738281 194.417969 337.628906 192.941406 350.867188 C 192.277344 356.832031 192.230469 361.894531 193.191406 364.777344 C 193.757812 366.484375 195.019531 367.46875 196.5625 368 C 197.78125 368.421875 199.191406 368.53125 200.410156 368.570312 C 203.003906 368.65625 207.582031 368.242188 211.476562 367.105469 C 214.316406 366.277344 216.78125 365.027344 218.09375 363.429688 C 219.511719 361.699219 220.726562 358.886719 221.6875 355.210938 C 223.035156 350.042969 223.933594 343.089844 224.453125 335.140625 C 226.46875 304.507812 222.945312 258.921875 219.054688 244.335938 C 217.546875 238.671875 211.347656 231.164062 207.875 226.417969 Z M 206.890625 230.5 C 210.226562 234.875 214.714844 240.625 215.925781 245.167969 C 219.769531 259.585938 223.210938 304.648438 221.222656 334.925781 C 220.714844 342.636719 219.859375 349.382812 218.550781 354.390625 C 217.738281 357.5 216.789062 359.910156 215.585938 361.371094 C 214.605469 362.566406 212.691406 363.375 210.570312 363.992188 C 207.03125 365.027344 202.871094 365.40625 200.515625 365.332031 C 199.597656 365.300781 198.535156 365.25 197.617188 364.933594 C 197.023438 364.730469 196.484375 364.410156 196.265625 363.753906 C 195.402344 361.15625 195.5625 356.597656 196.164062 351.226562 C 197.632812 338.019531 201.972656 320.171875 202.949219 313.152344 C 204.890625 299.152344 206.019531 285.015625 205.8125 270.871094 C 205.671875 261.097656 203.695312 251.445312 203.496094 241.71875 C 203.46875 240.367188 203.984375 238.867188 204.554688 237.363281 C 205.230469 235.59375 206.003906 233.832031 206.402344 232.285156 C 206.574219 231.613281 206.742188 231.015625 206.890625 230.5 Z M 205.175781 228.214844 L 205.121094 228.144531 C 204.984375 227.953125 204.890625 227.734375 204.84375 227.503906 C 204.90625 227.8125 205.027344 228.042969 205.175781 228.214844 Z M 205.175781 228.214844 "/></g><path style=" stroke:none;fill-rule:evenodd;fill:#a8c289;fill-opacity:1;" d="M 174.152344 81.53125 C 175.671875 72.535156 177.882812 57.101562 182.941406 45.691406 C 189.722656 30.394531 202.707031 12.304688 220.042969 11.90625 C 236.664062 11.523438 239.203125 27.613281 246.339844 30.671875 C 259.296875 36.226562 274.414062 30.625 288.050781 38.691406 C 298.535156 44.890625 306.003906 54.605469 309.5625 66.257812 C 318.164062 94.433594 299.125 118.367188 277.617188 133.929688 C 275.960938 135.128906 270.839844 135.9375 272.4375 137.214844 C 279.445312 142.824219 304.765625 139.460938 319.527344 158.6875 C 323.601562 163.996094 325.765625 170.144531 325.199219 176.851562 C 324.285156 187.691406 315.609375 192.292969 312.769531 201.53125 C 308.707031 214.738281 337.386719 257.707031 284.140625 277.714844 C 234.824219 296.25 206.847656 223.066406 206.003906 225.179688 C 202.828125 233.121094 203.59375 244.34375 193.996094 266.601562 C 177.957031 303.804688 145.121094 311.109375 118.09375 304.246094 C 106.507812 301.304688 96.3125 291.59375 91.207031 281 C 88.929688 276.269531 86.761719 271.492188 83.882812 267.078125 C 70.933594 247.257812 22.667969 250.636719 52.875 198.964844 C 64.308594 179.40625 83.378906 166.234375 104.773438 159.648438 C 105.175781 159.523438 110.960938 158.511719 110.992188 158.390625 C 111.167969 157.675781 101.851562 156.492188 101.199219 156.390625 C 78.792969 152.859375 26.601562 142.097656 38.914062 107.917969 C 45.105469 90.734375 61.035156 85.042969 71.96875 72.15625 C 82.417969 59.839844 85.570312 44.035156 98.707031 33.3125 C 131.671875 6.40625 167.957031 51.3125 174.152344 81.53125 Z M 174.152344 81.53125 "/><path style=" stroke:none;fill-rule:evenodd;fill:#7e4021;fill-opacity:1;" d="M 103.496094 158.351562 C 82.039062 165.136719 62.972656 178.480469 51.476562 198.144531 C 42.097656 214.191406 40.175781 225.148438 42.234375 233.125 C 44.335938 241.25 50.566406 246.449219 57.84375 250.8125 C 62.4375 253.566406 67.445312 255.996094 71.945312 258.730469 C 76.230469 261.332031 80.0625 264.195312 82.527344 267.964844 C 85.367188 272.320312 87.5 277.035156 89.75 281.703125 C 95.050781 292.703125 105.664062 302.765625 117.695312 305.820312 C 145.390625 312.851562 179.046875 305.371094 195.484375 267.246094 C 203.867188 247.796875 204.355469 236.769531 206.457031 228.992188 C 206.992188 229.96875 207.625 231.140625 208.292969 232.378906 C 212.9375 241.019531 221.804688 256.4375 234.492188 267.828125 C 247.441406 279.453125 264.320312 286.894531 284.710938 279.230469 C 301.199219 273.035156 310.027344 264.644531 314.488281 255.652344 C 318.964844 246.632812 319.054688 236.953125 317.878906 228.078125 C 316.964844 221.199219 315.300781 214.824219 314.460938 209.679688 C 313.953125 206.558594 313.722656 203.933594 314.316406 202.007812 C 315.683594 197.566406 318.484375 194.257812 321.019531 190.738281 C 323.820312 186.855469 326.328125 182.742188 326.8125 176.988281 C 327.414062 169.867188 325.136719 163.335938 320.8125 157.699219 C 311.675781 145.800781 298.65625 142.222656 288.113281 140.070312 C 284.074219 139.246094 280.417969 138.632812 277.542969 137.792969 C 276.578125 137.507812 275.707031 137.207031 274.953125 136.855469 C 275.179688 136.765625 275.398438 136.679688 275.59375 136.605469 C 276.742188 136.1875 277.894531 135.730469 278.566406 135.246094 C 300.609375 119.289062 319.929688 94.667969 311.109375 65.785156 C 307.433594 53.742188 299.710938 43.703125 288.875 37.296875 C 281.808594 33.117188 274.371094 32.433594 267.007812 32.121094 C 260.101562 31.824219 253.273438 31.882812 246.976562 29.179688 C 245.761719 28.660156 244.722656 27.664062 243.691406 26.457031 C 242.507812 25.066406 241.355469 23.390625 240.09375 21.671875 C 235.957031 16.050781 230.667969 10.039062 220.003906 10.285156 C 212.703125 10.453125 206.121094 13.570312 200.410156 18.320312 C 192.089844 25.238281 185.625 35.644531 181.460938 45.035156 C 177.542969 53.867188 175.300781 65.089844 173.777344 73.941406 C 169.203125 60.125 159.585938 44.820312 147.507812 34.753906 C 132.9375 22.613281 114.875 18.023438 97.683594 32.054688 C 90.941406 37.558594 86.742188 44.347656 82.910156 51.359375 C 79.222656 58.09375 75.886719 65.035156 70.734375 71.109375 C 65.324219 77.480469 58.671875 82.0625 52.617188 87.1875 C 46.285156 92.546875 40.589844 98.480469 37.390625 107.371094 C 32.171875 121.855469 37.839844 132.386719 48.097656 140.03125 C 62.828125 151.003906 87.316406 155.84375 100.945312 157.992188 C 101.148438 158.023438 102.175781 158.15625 103.496094 158.351562 Z M 172.566406 81.855469 C 172.722656 82.621094 173.402344 83.164062 174.183594 83.152344 C 174.960938 83.136719 175.621094 82.570312 175.75 81.800781 C 177.25 72.902344 179.417969 57.632812 184.421875 46.347656 C 188.398438 37.382812 194.535156 27.421875 202.484375 20.8125 C 207.621094 16.542969 213.511719 13.675781 220.078125 13.527344 C 229.363281 13.3125 233.882812 18.699219 237.484375 23.59375 C 240.257812 27.367188 242.628906 30.84375 245.703125 32.160156 C 252.359375 35.015625 259.570312 35.046875 266.871094 35.359375 C 273.714844 35.652344 280.65625 36.199219 287.226562 40.085938 C 297.359375 46.078125 304.574219 55.472656 308.011719 66.734375 C 316.402344 94.203125 297.636719 117.441406 276.667969 132.617188 C 276.179688 132.972656 275.324219 133.257812 274.488281 133.558594 C 273.339844 133.976562 272.21875 134.410156 271.605469 134.84375 C 270.933594 135.320312 270.625 135.894531 270.539062 136.40625 C 270.4375 137.035156 270.558594 137.785156 271.425781 138.480469 C 272.683594 139.488281 274.457031 140.265625 276.636719 140.902344 C 279.582031 141.765625 283.328125 142.402344 287.464844 143.246094 C 297.367188 145.269531 309.664062 148.5 318.242188 159.671875 C 322.066406 164.65625 324.117188 170.421875 323.585938 176.714844 C 323.15625 181.800781 320.867188 185.40625 318.390625 188.84375 C 315.652344 192.644531 312.695312 196.253906 311.21875 201.054688 C 310.679688 202.8125 310.625 205.046875 310.910156 207.65625 C 311.300781 211.222656 312.308594 215.554688 313.269531 220.347656 C 315.410156 231.0625 317.367188 244.164062 310.707031 255.863281 C 306.273438 263.65625 298.011719 270.769531 283.574219 276.195312 C 262.09375 284.269531 244.828125 274.261719 232.222656 261.113281 C 219.328125 247.664062 211.25 230.878906 208.484375 225.855469 C 207.996094 224.96875 207.621094 224.390625 207.402344 224.148438 C 207.148438 223.871094 206.902344 223.730469 206.730469 223.652344 C 206.203125 223.425781 205.75 223.488281 205.371094 223.660156 C 205.039062 223.808594 204.699219 224.070312 204.5 224.578125 C 201.328125 232.511719 202.097656 243.722656 192.507812 265.960938 C 176.867188 302.242188 144.847656 309.367188 118.492188 302.675781 C 107.355469 299.847656 97.578125 290.480469 92.667969 280.296875 C 90.359375 275.503906 88.15625 270.664062 85.238281 266.191406 C 82.523438 262.035156 78.351562 258.824219 73.625 255.957031 C 69.117188 253.222656 64.109375 250.789062 59.507812 248.03125 C 52.984375 244.121094 47.253906 239.59375 45.371094 232.3125 C 43.453125 224.878906 45.53125 214.738281 54.273438 199.78125 C 65.5 180.578125 84.242188 167.664062 105.25 161.199219 C 105.609375 161.085938 110.28125 160.269531 111.234375 160.019531 C 112.304688 159.734375 112.53125 158.902344 112.5625 158.78125 C 112.695312 158.253906 112.660156 157.308594 111.519531 156.722656 C 110.058594 155.972656 102.066406 154.886719 101.449219 154.789062 C 88.199219 152.699219 64.351562 148.097656 50.035156 137.429688 C 40.929688 130.644531 35.804688 121.328125 40.4375 108.46875 C 43.425781 100.171875 48.796875 94.667969 54.707031 89.664062 C 60.898438 84.425781 67.675781 79.71875 73.203125 73.207031 C 78.5 66.964844 81.960938 59.84375 85.75 52.914062 C 89.390625 46.261719 93.335938 39.789062 99.730469 34.566406 C 115.503906 21.691406 132.066406 26.105469 145.433594 37.246094 C 159.117188 48.652344 169.53125 67.050781 172.566406 81.855469 Z M 172.566406 81.855469 "/><path style=" stroke:none;fill-rule:evenodd;fill:#7d3f21;fill-opacity:1;" d="M 235.09375 61.144531 C 235.0625 61.15625 235.027344 61.148438 235.035156 61.105469 C 235.1875 60.394531 235.757812 59.578125 236.085938 58.9375 C 236.316406 58.496094 238.019531 55.070312 238.460938 55.007812 C 239.570312 54.847656 239.460938 60.332031 240.035156 60.992188 C 240.757812 61.824219 245.660156 62.796875 245.675781 63.402344 C 245.703125 64.320312 241.667969 64.527344 240.636719 65.402344 C 239.082031 66.730469 238.652344 68.550781 237.617188 70.28125 C 237.445312 70.570312 237.28125 71.0625 237.003906 71.015625 C 236.894531 70.996094 236.796875 70.5625 236.773438 70.488281 C 236.386719 69.328125 236.195312 66.5 235.203125 65.699219 C 234.097656 64.800781 229.171875 64.1875 229.183594 63.5625 C 229.1875 63.433594 229.429688 63.363281 229.515625 63.335938 C 231.316406 62.761719 233.273438 61.648438 235.09375 61.144531 Z M 235.09375 61.144531 "/><path style=" stroke:none;fill-rule:evenodd;fill:#7e4021;fill-opacity:1;" d="M 191.601562 51.738281 C 191.378906 51.707031 191.15625 51.722656 190.941406 51.777344 C 190.613281 51.859375 190.300781 52.035156 190.058594 52.304688 C 189.410156 53.019531 189.464844 54.125 190.179688 54.773438 C 190.75 55.289062 191.199219 55.238281 191.425781 55.230469 C 191.84375 55.21875 192.824219 54.429688 192.851562 54.40625 C 193.339844 53.640625 193.15625 52.609375 192.414062 52.0625 C 192.300781 51.980469 192.183594 51.914062 192.0625 51.863281 C 191.886719 51.78125 191.730469 51.746094 191.601562 51.738281 Z M 192.847656 54.410156 L 192.851562 54.40625 L 192.847656 54.410156 L 192.785156 54.507812 C 192.808594 54.476562 192.828125 54.445312 192.847656 54.410156 Z M 192.0625 51.863281 C 191.914062 51.796875 191.757812 51.757812 191.601562 51.738281 L 191.574219 51.734375 C 191.554688 51.734375 191.53125 51.734375 191.511719 51.730469 L 191.464844 51.734375 C 191.816406 51.753906 192.164062 51.882812 192.453125 52.121094 C 192.316406 52.003906 192.183594 51.917969 192.0625 51.863281 Z M 192.0625 51.863281 "/><path style=" stroke:none;fill-rule:evenodd;fill:#7e4021;fill-opacity:1;" d="M 245.304688 45.421875 C 245.523438 44.363281 244.839844 43.328125 243.789062 43.109375 C 242.726562 42.890625 241.6875 43.574219 241.472656 44.632812 C 241.253906 45.691406 241.9375 46.726562 243 46.945312 C 244.050781 47.160156 245.089844 46.480469 245.304688 45.421875 Z M 245.304688 45.421875 "/><path style=" stroke:none;fill-rule:evenodd;fill:#ffffff;fill-opacity:1;" d="M 251.378906 54.175781 C 251.597656 53.117188 250.914062 52.082031 249.863281 51.863281 C 248.800781 51.648438 247.761719 52.328125 247.546875 53.386719 C 247.328125 54.445312 248.011719 55.480469 249.074219 55.699219 C 250.125 55.914062 251.164062 55.234375 251.378906 54.175781 Z M 251.378906 54.175781 "/><path style=" stroke:none;fill-rule:evenodd;fill:#7e4021;fill-opacity:1;" d="M 213.144531 43.101562 C 213.144531 43.113281 213.140625 43.117188 213.136719 43.128906 C 213.117188 43.175781 210.691406 41.382812 210.476562 41.214844 C 209.761719 40.65625 205.453125 37.300781 205.675781 36.433594 C 205.871094 35.675781 213.351562 34.703125 214.328125 34.085938 C 215.464844 33.371094 214.945312 26.269531 216.382812 25.261719 C 217.632812 24.378906 220.824219 31.589844 221.765625 31.996094 C 223.410156 32.707031 232.105469 31.492188 232.488281 32.164062 C 233.578125 34.101562 226.84375 39.328125 226.085938 41.027344 C 225.894531 41.457031 229.511719 48.125 229.824219 49.40625 C 229.851562 49.523438 230.019531 50.003906 229.875 50.09375 C 228.738281 50.792969 222.160156 45.746094 220.265625 45.722656 C 217.488281 45.6875 214.953125 58.136719 213.53125 49.695312 C 213.386719 48.824219 213.21875 47.949219 213.175781 47.0625 C 213.125 45.960938 213.097656 44.207031 213.144531 43.101562 Z M 213.144531 43.101562 "/><path style=" stroke:none;fill-rule:evenodd;fill:#7d3f21;fill-opacity:1;" d="M 302.582031 48.328125 C 305.574219 48.289062 311.566406 51.28125 314.394531 52.417969 C 314.832031 52.589844 318.148438 53.976562 318.152344 54.445312 C 318.15625 54.8125 315.800781 54.449219 314.71875 54.265625 C 311.085938 53.652344 305.648438 52.820312 302.132812 51.734375 C 301.261719 51.464844 302.78125 52.972656 303.035156 53.234375 C 305.398438 55.609375 307.5 58.195312 309.058594 61.175781 C 309.265625 61.566406 310.8125 64.699219 310.445312 64.980469 C 309.910156 65.390625 307.890625 62.972656 307.617188 62.6875 C 305.316406 60.28125 303.164062 57.699219 301.097656 55.089844 C 300.871094 54.800781 300.160156 53.746094 299.753906 53.773438 C 299.632812 53.785156 298.570312 55.753906 297.988281 57.3125 C 297.03125 59.882812 294.941406 63.695312 292.5 66.789062 C 292.28125 67.066406 290.570312 69.605469 290.105469 69.363281 C 289.496094 69.042969 290.523438 66.574219 290.640625 66.191406 C 291.734375 62.59375 293.746094 56.617188 295.597656 53.351562 C 296.058594 52.539062 293.851562 53.941406 293.523438 54.097656 C 290.527344 55.515625 287.398438 56.597656 284.117188 57.117188 C 283.605469 57.199219 280.371094 57.957031 280.121094 57.210938 C 279.84375 56.378906 282.03125 55.335938 282.523438 55.058594 C 285.425781 53.429688 288.464844 52.222656 291.585938 51.085938 C 294.199219 50.132812 294.457031 49.597656 294.4375 49.566406 C 294.429688 49.554688 290.960938 48.804688 290.632812 48.734375 C 285.945312 47.710938 281.273438 46.425781 276.828125 44.589844 C 276.226562 44.34375 271.980469 42.503906 272.042969 41.824219 C 272.105469 41.164062 275.546875 41.5 275.957031 41.546875 C 280.496094 42.085938 284.984375 43.195312 289.269531 44.773438 C 290.625 45.273438 291.964844 45.820312 293.316406 46.335938 C 293.429688 46.378906 294.566406 46.898438 294.652344 46.691406 C 294.710938 46.5625 292.476562 43.855469 292.25 43.582031 C 289.976562 40.804688 287.859375 37.625 286.429688 34.324219 C 286.207031 33.808594 284.894531 31.484375 285.296875 30.941406 C 285.75 30.332031 287.839844 32.503906 288.074219 32.738281 C 290.523438 35.1875 292.765625 37.996094 294.65625 40.898438 C 295.304688 41.898438 295.894531 42.925781 296.507812 43.949219 C 296.53125 43.992188 296.734375 44.402344 296.820312 44.363281 C 296.890625 44.335938 297.507812 40.539062 297.578125 40.179688 C 298.300781 36.621094 299.683594 33.195312 301.117188 29.875 C 301.347656 29.351562 302.234375 26.875 302.953125 26.796875 C 303.445312 26.738281 303.011719 29.449219 302.578125 31.464844 C 301.816406 35.003906 301.65625 37.859375 300.730469 41.351562 C 300.554688 42.019531 300.128906 44.195312 299.921875 44.921875 C 299.820312 45.289062 301.398438 44.460938 302.089844 43.996094 C 304.828125 42.148438 307.507812 40.265625 310.363281 38.605469 C 310.714844 38.402344 312.605469 37.042969 313.03125 37.585938 C 313.53125 38.222656 311.101562 40.289062 310.757812 40.625 C 307.800781 43.535156 306.015625 46.058594 302.582031 48.328125 Z M 302.582031 48.328125 "/><path style=" stroke:none;fill-rule:evenodd;fill:#fdfdfe;fill-opacity:1;" d="M 127.683594 140.839844 C 127.683594 140.839844 109.328125 146.804688 107.246094 165.996094 C 105.167969 185.1875 129.351562 213.335938 154.757812 190.371094 C 180.164062 167.402344 149.855469 129.867188 127.683594 140.839844 Z M 127.683594 140.839844 "/><path style=" stroke:none;fill-rule:evenodd;fill:#7e4021;fill-opacity:1;" d="M 127.148438 139.546875 C 125.625 140.074219 107.941406 146.621094 105.859375 165.84375 C 105.097656 172.875 107.667969 181.058594 112.515625 187.6875 C 117.378906 194.34375 124.515625 199.40625 132.757812 200.25 C 139.808594 200.972656 147.703125 198.632812 155.695312 191.40625 C 171.65625 176.980469 166.675781 157.058594 155.078125 145.910156 C 147.277344 138.417969 136.519531 134.957031 127.148438 139.546875 Z M 128.117188 142.171875 C 128.179688 142.148438 128.242188 142.125 128.304688 142.09375 C 136.648438 137.964844 146.191406 141.25 153.140625 147.929688 C 163.699219 158.074219 168.347656 176.203125 153.820312 189.332031 C 146.566406 195.890625 139.441406 198.125 133.042969 197.46875 C 125.585938 196.707031 119.171875 192.054688 114.769531 186.039062 C 110.351562 179.996094 107.941406 172.554688 108.636719 166.148438 C 110.621094 147.855469 128.117188 142.171875 128.117188 142.171875 Z M 128.117188 142.171875 "/><path style=" stroke:none;fill-rule:evenodd;fill:#7e4021;fill-opacity:1;" d="M 125.136719 145.03125 C 125.136719 145.03125 113.757812 175.222656 144.234375 196.066406 C 144.234375 196.066406 172.28125 187.652344 160.988281 157.585938 C 152.949219 136.183594 125.148438 137.296875 125.136719 145.03125 Z M 125.136719 145.03125 "/><path style=" stroke:none;fill-rule:evenodd;fill:#7e4021;fill-opacity:1;" d="M 123.746094 144.769531 C 122.75 147.640625 113.578125 176.796875 143.445312 197.222656 C 143.792969 197.460938 144.230469 197.527344 144.636719 197.40625 C 144.636719 197.40625 159.074219 193.054688 163.671875 179.609375 C 165.628906 173.890625 165.832031 166.507812 162.296875 157.09375 C 156.375 141.324219 140.246094 137.195312 131.109375 138.914062 C 128.550781 139.394531 126.515625 140.34375 125.277344 141.566406 C 124.339844 142.492188 123.8125 143.574219 123.746094 144.769531 Z M 126.441406 145.527344 C 126.503906 145.371094 126.53125 145.203125 126.53125 145.035156 C 126.535156 144.296875 126.992188 143.691406 127.6875 143.175781 C 128.640625 142.472656 130.003906 141.96875 131.625 141.664062 C 139.851562 140.117188 154.347656 143.878906 159.679688 158.078125 C 162.921875 166.703125 162.820312 173.464844 161.027344 178.703125 C 157.421875 189.246094 147.09375 193.566406 144.453125 194.519531 C 115.652344 174.351562 126.441406 145.527344 126.441406 145.527344 Z M 126.441406 145.527344 "/><path style=" stroke:none;fill-rule:evenodd;fill:#7e4021;fill-opacity:1;" d="M 196.679688 149.300781 C 196.800781 148.992188 197.476562 147.285156 197.652344 146.859375 C 202.011719 136.457031 212.195312 126.996094 223.640625 125.351562 C 224.527344 125.226562 225.144531 124.402344 225.015625 123.519531 C 224.890625 122.632812 224.066406 122.015625 223.183594 122.144531 C 210.652344 123.945312 199.4375 134.21875 194.664062 145.605469 C 194.4375 146.148438 193.738281 147.472656 193.515625 148.515625 C 193.324219 149.40625 193.453125 150.1875 193.78125 150.714844 C 194.253906 151.476562 195.253906 151.710938 196.015625 151.238281 C 196.679688 150.824219 196.941406 150.007812 196.679688 149.300781 Z M 196.679688 149.300781 "/><path style=" stroke:none;fill-rule:evenodd;fill:#7e4021;fill-opacity:1;" d="M 215.105469 143.261719 C 214.621094 142.902344 213.902344 142.628906 212.976562 142.53125 C 212.003906 142.429688 210.734375 142.503906 209.304688 142.730469 C 205.722656 143.296875 201.074219 144.808594 198.042969 146.289062 C 196.558594 147.015625 195.4375 147.769531 194.871094 148.394531 C 194.269531 149.054688 194.320312 150.082031 194.984375 150.683594 C 195.644531 151.285156 196.671875 151.234375 197.273438 150.570312 C 197.65625 150.148438 198.457031 149.695312 199.464844 149.203125 C 202.25 147.84375 206.519531 146.453125 209.8125 145.933594 C 210.746094 145.785156 211.597656 145.703125 212.296875 145.730469 C 212.675781 145.746094 212.988281 145.726562 213.167969 145.859375 C 213.882812 146.398438 214.902344 146.25 215.4375 145.53125 C 215.96875 144.816406 215.824219 143.796875 215.105469 143.261719 Z M 215.105469 143.261719 "/><path style=" stroke:none;fill-rule:evenodd;fill:#7e4021;fill-opacity:1;" d="M 183.425781 196.171875 C 183.488281 196.164062 183.554688 196.15625 183.621094 196.140625 C 186.59375 195.476562 189.515625 194.722656 192.257812 193.355469 C 201.132812 188.933594 209.710938 181.320312 211.261719 170.929688 C 211.394531 170.042969 210.78125 169.21875 209.898438 169.085938 C 209.015625 168.953125 208.1875 169.566406 208.054688 170.449219 C 206.664062 179.785156 198.785156 186.484375 190.816406 190.457031 C 188.308594 191.703125 185.632812 192.371094 182.917969 192.976562 C 182.988281 192.960938 183.066406 192.964844 183.066406 192.964844 C 183.066406 192.964844 182.40625 193.058594 182.339844 193.085938 C 181.832031 193.296875 181.59375 193.648438 181.460938 193.964844 C 181.410156 194.085938 180.910156 195.265625 182.179688 196.007812 C 182.570312 196.238281 183.019531 196.285156 183.425781 196.171875 Z M 183.902344 193.265625 C 184.117188 193.40625 184.285156 193.59375 184.40625 193.808594 C 184.328125 193.644531 184.179688 193.445312 183.902344 193.265625 Z M 183.902344 193.265625 "/><path style=" stroke:none;fill-rule:evenodd;fill:#7e4021;fill-opacity:1;" d="M 265.496094 183.363281 C 265.730469 183.507812 266.238281 183.824219 266.332031 183.867188 C 271.109375 186.253906 276.582031 187.988281 281.757812 189.238281 C 282.625 189.445312 283.5 188.910156 283.710938 188.039062 C 283.921875 187.171875 283.386719 186.296875 282.515625 186.085938 C 277.589844 184.894531 272.375 183.253906 267.820312 180.988281 C 267.660156 180.890625 266.761719 180.324219 266.371094 180.203125 C 265.625 179.976562 265.054688 180.207031 264.710938 180.464844 C 264 181.007812 263.863281 182.027344 264.40625 182.738281 C 264.683594 183.097656 265.078125 183.3125 265.496094 183.363281 Z M 265.496094 183.363281 "/><path style=" stroke:none;fill-rule:evenodd;fill:#7e4021;fill-opacity:1;" d="M 252.945312 191.289062 C 253.363281 193.019531 254.988281 194.8125 257.136719 196.375 C 259.84375 198.351562 263.335938 200.058594 265.078125 201.160156 C 265.835938 201.636719 266.835938 201.410156 267.3125 200.652344 C 267.789062 199.894531 267.5625 198.894531 266.808594 198.417969 C 265.105469 197.34375 261.6875 195.683594 259.042969 193.757812 C 257.621094 192.71875 256.371094 191.675781 256.09375 190.527344 C 255.886719 189.660156 255.007812 189.125 254.140625 189.335938 C 253.269531 189.542969 252.734375 190.421875 252.945312 191.289062 Z M 252.945312 191.289062 "/><path style=" stroke:none;fill-rule:evenodd;fill:#7e4021;fill-opacity:1;" d="M 145.597656 234.410156 L 145.664062 234.28125 C 146.410156 232.851562 150.3125 225.714844 150.730469 225 C 151.183594 224.230469 150.921875 223.234375 150.152344 222.785156 C 149.378906 222.332031 148.386719 222.59375 147.933594 223.363281 C 147.511719 224.089844 143.550781 231.328125 142.792969 232.777344 C 142.628906 233.089844 142.558594 233.285156 142.546875 233.324219 C 142.367188 233.953125 142.578125 234.351562 142.65625 234.507812 C 142.894531 234.980469 143.265625 235.238281 143.707031 235.347656 C 144.492188 235.546875 145.289062 235.136719 145.597656 234.410156 Z M 145.597656 234.410156 "/><path style=" stroke:none;fill-rule:evenodd;fill:#7e4021;fill-opacity:1;" d="M 115.882812 224.890625 C 116.925781 224.726562 118.792969 224.398438 119.511719 224.136719 C 123.4375 222.683594 127.363281 220.828125 131.011719 218.777344 C 131.789062 218.339844 132.070312 217.351562 131.632812 216.570312 C 131.195312 215.792969 130.203125 215.511719 129.425781 215.953125 C 125.921875 217.917969 122.15625 219.703125 118.390625 221.09375 C 117.632812 221.371094 116.03125 221.507812 114.992188 221.714844 C 114.109375 221.886719 113.476562 222.207031 113.222656 222.441406 C 112.691406 222.9375 112.570312 223.503906 112.675781 224.066406 C 112.742188 224.425781 112.945312 224.992188 113.742188 225.429688 C 114.492188 225.84375 115.425781 225.601562 115.882812 224.890625 Z M 115.882812 224.890625 "/><path style=" stroke:none;fill-rule:evenodd;fill:#7e4021;fill-opacity:1;" d="M 114.34375 85.261719 C 114.339844 84.980469 114.261719 84.695312 114.097656 84.4375 C 113.625 83.679688 112.625 83.453125 111.867188 83.925781 C 111.429688 84.199219 110.808594 84.871094 111.160156 86.066406 C 111.621094 87.613281 116.183594 93.976562 116.578125 94.460938 C 119.972656 98.625 124.019531 102.488281 128.566406 105.367188 C 129.320312 105.84375 130.324219 105.621094 130.800781 104.863281 C 131.28125 104.109375 131.054688 103.105469 130.296875 102.628906 C 126.046875 99.933594 122.265625 96.3125 119.089844 92.414062 C 118.773438 92.023438 114.941406 86.171875 114.34375 85.261719 Z M 113.652344 86.628906 L 113.585938 86.671875 C 113.609375 86.660156 113.632812 86.644531 113.652344 86.628906 Z M 113.722656 86.578125 L 113.664062 86.621094 L 113.691406 86.601562 Z M 113.847656 86.472656 L 113.894531 86.421875 C 113.84375 86.480469 113.785156 86.53125 113.722656 86.578125 L 113.785156 86.527344 C 113.804688 86.507812 113.824219 86.488281 113.847656 86.472656 Z M 113.929688 86.382812 L 113.929688 86.386719 Z M 113.929688 86.382812 "/><path style=" stroke:none;fill-rule:evenodd;fill:#7e4021;fill-opacity:1;" d="M 138.417969 242.757812 C 138.011719 244.117188 137.488281 245.453125 137.03125 246.796875 C 136.742188 247.644531 137.195312 248.566406 138.042969 248.855469 C 138.886719 249.144531 139.808594 248.691406 140.097656 247.84375 C 140.566406 246.460938 141.105469 245.082031 141.523438 243.683594 C 141.777344 242.824219 141.289062 241.921875 140.433594 241.667969 C 139.574219 241.410156 138.671875 241.898438 138.417969 242.757812 Z M 138.417969 242.757812 "/><path style=" stroke:none;fill-rule:evenodd;fill:#7e4021;fill-opacity:1;" d="M 200.628906 360.296875 C 201.164062 359.011719 201.382812 357.347656 201.4375 355.59375 C 201.507812 353.3125 201.308594 350.855469 201.460938 349.070312 C 201.539062 348.175781 200.875 347.390625 199.984375 347.316406 C 199.09375 347.238281 198.308594 347.898438 198.230469 348.792969 C 198.101562 350.339844 198.210938 352.371094 198.210938 354.375 C 198.214844 356.101562 198.15625 357.808594 197.636719 359.054688 C 197.296875 359.878906 197.6875 360.828125 198.511719 361.171875 C 199.339844 361.515625 200.289062 361.121094 200.628906 360.296875 Z M 200.628906 360.296875 "/><path style=" stroke:none;fill-rule:evenodd;fill:#7e4021;fill-opacity:1;" d="M 202.160156 343.183594 C 202.46875 342.570312 202.648438 341.71875 202.730469 340.800781 C 202.820312 339.785156 202.792969 338.671875 202.886719 337.917969 C 202.996094 337.027344 202.367188 336.21875 201.480469 336.109375 C 200.59375 336 199.78125 336.628906 199.671875 337.519531 C 199.589844 338.1875 199.585938 339.125 199.535156 340.042969 C 199.5 340.679688 199.472656 341.3125 199.261719 341.734375 C 198.863281 342.53125 199.1875 343.507812 199.984375 343.90625 C 200.785156 344.308594 201.757812 343.984375 202.160156 343.183594 Z M 202.160156 343.183594 "/><path style=" stroke:none;fill-rule:evenodd;fill:#7e4021;fill-opacity:1;" d="M 203.933594 343.835938 C 204.066406 344.105469 203.980469 344.5625 203.9375 345.050781 C 203.828125 346.339844 203.535156 347.785156 203.507812 348.554688 C 203.472656 349.445312 204.171875 350.199219 205.066406 350.234375 C 205.957031 350.265625 206.710938 349.566406 206.742188 348.671875 C 206.777344 347.792969 207.171875 346.011719 207.207031 344.621094 C 207.234375 343.71875 207.101562 342.933594 206.839844 342.402344 C 206.445312 341.601562 205.472656 341.269531 204.671875 341.664062 C 203.867188 342.0625 203.539062 343.035156 203.933594 343.835938 Z M 203.933594 343.835938 "/><path style=" stroke:none;fill-rule:evenodd;fill:#ffffff;fill-opacity:1;" d="M 85.722656 184.898438 C 87.453125 185.957031 89.097656 176.785156 99.699219 180.066406 C 114.820312 184.742188 114.941406 213.160156 104.390625 228.460938 C 96.800781 239.464844 82.089844 238.789062 72.074219 238.0625 C 65.574219 237.589844 45.96875 228.128906 45.738281 219.636719 C 45.59375 214.257812 47.703125 215.132812 48.941406 211.683594 C 49.46875 210.210938 48.332031 207.59375 49.617188 204.441406 C 51.015625 201.007812 55.730469 200.757812 54.160156 200.023438 C 48.910156 197.5625 44.355469 195.511719 33.972656 187.511719 C 27.902344 182.839844 24.671875 173.816406 31.042969 169.445312 C 41.414062 162.332031 61.523438 184.617188 65.902344 189.300781 C 65.902344 189.300781 64.613281 186.363281 64.308594 185.664062 C 62.171875 180.753906 60.929688 175.234375 59.71875 170.207031 C 58.839844 166.5625 57.769531 161.832031 58.71875 158.132812 C 59.601562 154.703125 61.8125 151.195312 65.574219 150.527344 C 78.367188 148.253906 83.328125 172.269531 84.738281 181.621094 C 84.738281 181.621094 85.59375 184.820312 85.722656 184.898438 Z M 85.722656 184.898438 "/><path style=" stroke:none;fill-rule:evenodd;fill:#7e4021;fill-opacity:1;" d="M 61.226562 182.105469 C 56.320312 177.253906 49.425781 171.144531 42.984375 168.234375 C 38.222656 166.082031 33.671875 165.675781 30.125 168.109375 C 26.328125 170.714844 25.34375 174.691406 26.261719 178.726562 C 27.109375 182.449219 29.648438 186.226562 32.984375 188.796875 C 42.023438 195.761719 46.710938 198.28125 51.222656 200.433594 C 50.046875 201.222656 48.703125 202.386719 48.117188 203.828125 C 47.371094 205.660156 47.308594 207.335938 47.375 208.765625 C 47.421875 209.742188 47.625 210.550781 47.414062 211.136719 C 46.871094 212.648438 46.105469 213.1875 45.523438 213.964844 C 44.714844 215.042969 44.03125 216.398438 44.121094 219.679688 C 44.164062 221.316406 44.773438 222.992188 45.847656 224.636719 C 47.285156 226.828125 49.582031 228.996094 52.28125 230.964844 C 58.875 235.769531 67.890625 239.382812 71.957031 239.679688 C 77.089844 240.050781 83.421875 240.394531 89.445312 239.253906 C 95.730469 238.058594 101.667969 235.261719 105.722656 229.382812 C 112.292969 219.855469 114.878906 205.4375 112.507812 194.375 C 110.84375 186.636719 106.761719 180.554688 100.179688 178.515625 C 92.863281 176.25 89.269531 179.21875 87.125 181.632812 C 86.957031 181.820312 86.777344 182.027344 86.601562 182.234375 L 86.324219 181.277344 C 85.445312 175.492188 83.242188 164.429688 78.835938 156.972656 C 75.570312 151.445312 71.082031 147.902344 65.289062 148.929688 C 60.886719 149.710938 58.183594 153.714844 57.152344 157.726562 C 56.136719 161.664062 57.207031 166.707031 58.144531 170.585938 C 59.039062 174.304688 59.957031 178.289062 61.226562 182.105469 Z M 84.878906 186.28125 C 85.816406 186.855469 86.875 186.769531 87.988281 185.617188 C 88.878906 184.691406 90.078125 182.523438 92.589844 181.5 C 94.183594 180.847656 96.308594 180.710938 99.21875 181.613281 C 104.734375 183.320312 107.949219 188.574219 109.335938 195.054688 C 111.539062 205.320312 109.152344 218.703125 103.058594 227.539062 C 99.523438 232.660156 94.3125 235.027344 88.839844 236.066406 C 83.105469 237.15625 77.078125 236.800781 72.191406 236.445312 C 68.460938 236.175781 60.238281 232.75 54.191406 228.34375 C 51.835938 226.628906 49.808594 224.769531 48.558594 222.859375 C 47.84375 221.769531 47.386719 220.675781 47.359375 219.59375 C 47.277344 216.53125 48.085938 215.960938 48.929688 214.933594 C 49.46875 214.273438 50.011719 213.488281 50.464844 212.230469 C 50.738281 211.472656 50.730469 210.480469 50.652344 209.300781 C 50.578125 208.125 50.457031 206.667969 51.117188 205.050781 C 51.722656 203.566406 53.195312 202.921875 54.105469 202.484375 C 54.90625 202.097656 55.464844 201.722656 55.679688 201.460938 C 56.128906 200.910156 56.183594 200.351562 56.023438 199.8125 C 55.921875 199.464844 55.664062 198.9375 54.847656 198.554688 C 49.675781 196.132812 45.191406 194.109375 34.960938 186.230469 C 32.230469 184.125 30.117188 181.054688 29.421875 178.007812 C 28.800781 175.269531 29.386719 172.550781 31.957031 170.785156 C 33.671875 169.609375 35.710938 169.460938 37.898438 169.914062 C 40.382812 170.433594 43.027344 171.71875 45.667969 173.382812 C 53.984375 178.628906 62.132812 187.640625 64.71875 190.40625 C 65.257812 190.984375 66.136719 191.085938 66.792969 190.652344 C 67.453125 190.21875 67.703125 189.371094 67.386719 188.648438 C 67.386719 188.648438 66.101562 185.714844 65.796875 185.015625 C 63.691406 180.191406 62.484375 174.765625 61.292969 169.828125 C 60.472656 166.417969 59.398438 161.996094 60.289062 158.535156 C 61.019531 155.691406 62.738281 152.675781 65.855469 152.121094 C 70.300781 151.332031 73.539062 154.382812 76.046875 158.621094 C 80.265625 165.761719 82.308594 176.390625 83.136719 181.863281 C 83.144531 181.925781 83.15625 181.984375 83.171875 182.042969 C 83.171875 182.042969 83.917969 184.789062 84.164062 185.398438 C 84.398438 185.976562 84.761719 186.210938 84.878906 186.28125 Z M 84.878906 186.28125 "/><path style=" stroke:none;fill-rule:evenodd;fill:#7e4021;fill-opacity:1;" d="M 88.175781 185.277344 C 88.839844 184.753906 88.992188 183.796875 88.507812 183.089844 C 88 182.351562 86.992188 182.164062 86.253906 182.671875 C 85.816406 182.972656 85.101562 183.945312 84.449219 185.285156 C 83.246094 187.761719 81.90625 191.566406 81.761719 192.429688 C 80.6875 198.84375 80.007812 207.496094 83.761719 213.242188 C 89.773438 222.449219 99.785156 215.289062 102.199219 207.628906 C 102.464844 206.777344 101.992188 205.867188 101.140625 205.597656 C 100.285156 205.328125 99.375 205.800781 99.105469 206.65625 C 98.382812 208.957031 96.761719 211.257812 94.792969 212.753906 C 93.214844 213.949219 91.410156 214.652344 89.675781 214.152344 C 88.519531 213.816406 87.441406 212.949219 86.472656 211.46875 C 83.140625 206.367188 84.003906 198.660156 84.957031 192.964844 C 85.082031 192.207031 86.304688 188.878906 87.363281 186.703125 C 87.652344 186.109375 88.125 185.363281 88.175781 185.277344 Z M 88.175781 185.277344 "/><path style=" stroke:none;fill-rule:evenodd;fill:#7e4021;fill-opacity:1;" d="M 69.714844 239.125 C 71.75 239.027344 74.515625 238.125 76.46875 237.503906 C 81.570312 235.890625 84.519531 230.085938 83.335938 224.96875 C 82.398438 220.902344 78.214844 217.765625 72.777344 215.613281 C 65.335938 212.664062 55.621094 211.363281 50.660156 210.839844 C 49.769531 210.746094 48.972656 211.390625 48.878906 212.28125 C 48.785156 213.171875 49.429688 213.96875 50.320312 214.0625 C 55.089844 214.566406 64.429688 215.792969 71.585938 218.628906 C 73.851562 219.523438 75.894531 220.582031 77.460938 221.847656 C 78.835938 222.957031 79.835938 224.214844 80.179688 225.699219 C 81 229.242188 79.023438 233.296875 75.492188 234.414062 C 73.773438 234.957031 71.351562 235.800781 69.5625 235.886719 C 68.667969 235.929688 67.976562 236.6875 68.019531 237.582031 C 68.0625 238.476562 68.820312 239.167969 69.714844 239.125 Z M 69.714844 239.125 "/><path style=" stroke:none;fill-rule:evenodd;fill:#7e4021;fill-opacity:1;" d="M 77.363281 220.445312 C 78.238281 220.3125 79.121094 220.0625 79.953125 219.757812 C 82.453125 218.84375 84.527344 216.988281 84.773438 214.183594 C 85.074219 210.785156 83 207.894531 79.492188 205.652344 C 72.4375 201.136719 59.449219 199.15625 54.492188 199.054688 C 53.597656 199.039062 52.855469 199.75 52.839844 200.644531 C 52.820312 201.539062 53.53125 202.28125 54.425781 202.296875 C 58.410156 202.375 67.921875 203.730469 74.726562 206.777344 C 76.851562 207.730469 78.710938 208.84375 79.984375 210.164062 C 81.039062 211.257812 81.671875 212.480469 81.546875 213.898438 C 81.417969 215.386719 80.164062 216.226562 78.839844 216.714844 C 78.207031 216.945312 77.542969 217.136719 76.878906 217.238281 C 75.992188 217.375 75.382812 218.199219 75.515625 219.085938 C 75.652344 219.96875 76.476562 220.578125 77.363281 220.445312 Z M 77.363281 220.445312 "/></g></svg>